<?xml version="1.0" standalone="no"?>
<!DOCTYPE svg PUBLIC "-//W3C//DTD SVG 1.1//EN" "http://www.w3.org/Graphics/SVG/1.1/DTD/svg11.dtd" >
<svg xmlns="http://www.w3.org/2000/svg" xmlns:xlink="http://www.w3.org/1999/xlink" version="1.1">
<metadata>
Created by FontForge 20170731 at Thu Feb 20 08:22:54 2014
 By ,,,
Copyright (c) 2012 by Fontsmith Ltd. All rights reserved.
</metadata>
<defs>
<font id="FSElliotPro-Bold" horiz-adv-x="576" >
  <font-face 
    font-family="FS Elliot Pro"
    font-weight="700"
    font-stretch="normal"
    units-per-em="1000"
    panose-1="2 0 8 3 5 0 0 2 0 4"
    ascent="800"
    descent="-200"
    x-height="490"
    cap-height="672"
    bbox="-189 -302 1227 916"
    underline-thickness="50"
    underline-position="-200"
    unicode-range="U+000D-FB04"
  />
<missing-glyph horiz-adv-x="500" 
d="M488 0h-476v672h476v-672zM60 580v-488l162 244zM250 292l-162 -244h324zM412 624h-324l162 -244zM440 580l-162 -244l162 -244v488z" />
    <glyph glyph-name="f_f" unicode="ff" horiz-adv-x="711" 
d="M113 393h-91v97h91v68q0 71 46 114q47 44 120 44q53 0 111 -15l-17 -96q-35 9 -63 9q-31 0 -50 -19t-19 -50v-55h201v68q0 71 46 114.5t120 43.5q52 0 110 -15l-16 -96q-34 9 -64 9q-31 0 -49.5 -19t-18.5 -50v-55h119v-97h-119v-393h-128v393h-201v-393h-128v393z" />
    <glyph glyph-name="fi" unicode="fi" horiz-adv-x="620" 
d="M113 393h-91v97h91v45q0 81 57 130q58 51 149 51q77 0 168 -27l-22 -97q-79 24 -126 24q-44 0 -71 -24t-27 -62v-40h313v-490h-128v393h-185v-393h-128v393z" />
    <glyph glyph-name="fl" unicode="fl" horiz-adv-x="668" 
d="M113 393h-91v97h91v45q0 80 59 130q59 51 152 51q94 0 230 -24v-552q0 -23 13.5 -36.5t35.5 -13.5q11 0 45 6l14 -97q-55 -11 -89 -11q-66 0 -106.5 38.5t-40.5 100.5v480q-54 9 -92 9q-42 0 -67.5 -24t-25.5 -62v-40h120v-97h-120v-393h-128v393z" />
    <glyph glyph-name="f_f_i" unicode="ffi" horiz-adv-x="948" 
d="M113 393h-91v97h91v68q0 71 46 114q47 44 120 44q53 0 111 -15l-17 -96q-35 9 -63 9q-31 0 -50 -19t-19 -50v-55h201v45q0 81 57 130q59 51 148 51q77 0 169 -27l-23 -97q-77 24 -125 24q-44 0 -71 -24t-27 -62v-40h313v-490h-128v393h-185v-393h-128v393h-201v-393h-128
v393z" />
    <glyph glyph-name="f_f_l" unicode="ffl" horiz-adv-x="996" 
d="M113 393h-91v97h91v68q0 71 46 114q47 44 120 44q53 0 111 -15l-17 -96q-35 9 -63 9q-31 0 -50 -19t-19 -50v-55h201v45q0 81 58 130q58 51 152 51t231 -24v-552q0 -23 13.5 -36.5t35.5 -13.5q11 0 44 6l14 -97q-53 -11 -89 -11q-65 0 -105.5 38.5t-40.5 100.5v480
q-54 9 -93 9q-41 0 -66.5 -24t-25.5 -62v-40h119v-97h-119v-393h-128v393h-201v-393h-128v393z" />
    <glyph glyph-name=".notdef" horiz-adv-x="500" 
d="M488 0h-476v672h476v-672zM60 580v-488l162 244zM250 292l-162 -244h324zM412 624h-324l162 -244zM440 580l-162 -244l162 -244v488z" />
    <glyph glyph-name=".null" horiz-adv-x="0" 
 />
    <glyph glyph-name="nonmarkingreturn" horiz-adv-x="333" 
 />
    <glyph glyph-name="NULL" horiz-adv-x="0" 
 />
    <glyph glyph-name="NULL" horiz-adv-x="0" 
 />
    <glyph glyph-name="CR" unicode="&#xd;" horiz-adv-x="240" 
 />
    <glyph glyph-name="space" unicode=" " horiz-adv-x="240" 
 />
    <glyph glyph-name="exclam" unicode="!" horiz-adv-x="281" 
d="M64 66q0 34 21.5 55.5t54.5 21.5q34 0 55.5 -21.5t21.5 -55.5t-21.5 -55.5t-55.5 -21.5q-35 0 -55.5 21.5t-20.5 55.5zM87 223l-11 449h129l-11 -449h-107z" />
    <glyph glyph-name="quotedbl" unicode="&#x22;" horiz-adv-x="444" 
d="M68 429l-11 243h119l-11 -243h-97zM279 429l-11 243h119l-11 -243h-97z" />
    <glyph glyph-name="numbersign" unicode="#" horiz-adv-x="660" 
d="M116 157h-100v98h119l31 162h-100v98h119l32 165l96 -13l-29 -152h161l32 165l96 -13l-29 -152h100v-98h-119l-31 -162h101v-98h-119l-32 -165l-96 13l28 152h-161l-32 -165l-96 13zM265 417l-31 -162h161l31 162h-161z" />
    <glyph glyph-name="dollar" unicode="$" 
d="M64 81l31 100q102 -43 183 -43q49 0 76 19t27 53q0 25 -23 42t-58 24.5t-75.5 20.5t-75.5 29.5t-58 52.5t-23 87q0 64 45 108.5t121 55.5v170h108v-168q68 -8 150 -39l-31 -99q-93 40 -163 40q-46 0 -72.5 -18.5t-26.5 -49.5q0 -29 32 -45.5t78.5 -27.5t92.5 -27t78 -55
t32 -101q0 -66 -46 -111t-124 -57v-170h-108v167q-82 8 -170 42z" />
    <glyph glyph-name="percent" unicode="%" horiz-adv-x="864" 
d="M85 374q-49 50 -49 130t49 129q50 51 128 51q79 0 128 -51q50 -50 50 -129q0 -78 -50 -130q-50 -50 -128 -50t-128 50zM153 580q-22 -28 -22 -76t22 -76q23 -29 60 -29t60 29t23 76t-23 76t-60 29t-60 -29zM213 -25l-66 50l504 672l66 -50zM651 348q77 0 127 -51
q50 -50 50 -129q0 -78 -50 -130q-50 -50 -127 -50q-78 0 -128 50q-50 52 -50 130q0 79 50 129q49 51 128 51zM591 244q-23 -29 -23 -76t23 -76t60 -29q36 0 59 29t23 76t-23 76t-59 29q-37 0 -60 -29z" />
    <glyph glyph-name="ampersand" unicode="&#x26;" horiz-adv-x="655" 
d="M31 186q0 120 146 191q-74 77 -74 144q0 72 54 117q53 46 138 46q82 0 134 -43q53 -42 53 -109q0 -106 -142 -179l129 -140q26 47 28 117h108q-3 -115 -63 -197l122 -133h-140l-64 69q-88 -81 -191 -81q-104 0 -171 55t-67 143zM151 196q0 -49 37 -80t91 -31q65 0 116 55
l-160 173q-84 -51 -84 -117zM218 516q0 -40 61 -95q90 47 90 100q0 29 -21 47.5t-53 18.5q-34 0 -55.5 -19.5t-21.5 -51.5z" />
    <glyph glyph-name="quotesingle" unicode="'" horiz-adv-x="233" 
d="M68 429l-11 243h119l-11 -243h-97z" />
    <glyph glyph-name="parenleft" unicode="(" horiz-adv-x="351" 
d="M65 288q0 263 177 455l91 -60q-98 -106 -133 -250.5t0 -289t133 -250.5l-91 -60q-177 191 -177 455z" />
    <glyph glyph-name="parenright" unicode=")" horiz-adv-x="351" 
d="M108 -167l-91 60q98 106 133 250.5t0 289t-133 250.5l91 60q177 -189 177 -455t-177 -455z" />
    <glyph glyph-name="asterisk" unicode="*" horiz-adv-x="500" 
d="M180 436l-145 48l27 83l145 -47v152h87v-152l144 47l28 -83l-146 -48l90 -123l-70 -52l-90 127l-90 -127l-70 52z" />
    <glyph glyph-name="plus" unicode="+" 
d="M234 234h-190v108h190v190h108v-190h190v-108h-190v-190h-108v190z" />
    <glyph glyph-name="comma" unicode="," horiz-adv-x="265" 
d="M87 -160l-39 50q59 49 73 105q-30 3 -49.5 23.5t-19.5 50.5q0 35 22.5 57.5t57.5 22.5q36 0 59.5 -27.5t23.5 -70.5q0 -63 -34 -118.5t-94 -92.5z" />
    <glyph glyph-name="hyphen" unicode="-" horiz-adv-x="320" 
d="M298 202h-276v98h276v-98z" />
    <glyph glyph-name="period" unicode="." horiz-adv-x="265" 
d="M52 69q0 35 22.5 57.5t57.5 22.5t57.5 -22.5t22.5 -57.5t-22.5 -57.5t-57.5 -22.5q-34 0 -57 22.5t-23 57.5z" />
    <glyph glyph-name="slash" unicode="/" horiz-adv-x="384" 
d="M93 -149l-102 32l300 842l102 -32z" />
    <glyph glyph-name="zero" unicode="0" 
d="M99 80q-68 94 -68 256q0 163 68 255q67 93 189 93t189 -93q68 -92 68 -255q0 -162 -68 -256q-68 -92 -189 -92t-189 92zM288 93q64 0 100.5 65t36.5 178t-36.5 178t-100.5 65t-100.5 -65t-36.5 -178t36.5 -178t100.5 -65z" />
    <glyph glyph-name="one" unicode="1" 
d="M121 460l-44 86l219 126h107v-672h-128v548z" />
    <glyph glyph-name="two" unicode="2" 
d="M93 521l-49 94q118 69 228 69q96 0 156 -57q61 -57 61 -146q0 -108 -97 -205l-173 -174h278v-102h-448v81l239 239q76 76 76 143q0 50 -32.5 81.5t-84.5 31.5q-36 0 -69.5 -12.5t-84.5 -42.5z" />
    <glyph glyph-name="three" unicode="3" 
d="M36 41l41 95q96 -46 177 -46q52 0 85 28t33 73q0 47 -39.5 77t-102.5 30h-47v92h47q57 0 93 27.5t36 71.5q0 41 -28 67t-74 26q-73 0 -164 -42l-41 95q108 49 225 49q93 0 151 -51q59 -51 59 -131q0 -55 -29 -96t-80 -59q57 -18 91 -63.5t34 -105.5q0 -83 -64 -137
q-64 -53 -162 -53q-124 0 -241 53z" />
    <glyph glyph-name="four" unicode="4" 
d="M338 145h-313v87l309 440h122v-429h89v-98h-89v-145h-118v145zM338 519l-194 -276h194v276z" />
    <glyph glyph-name="five" unicode="5" 
d="M49 49l49 94q83 -50 154 -50q60 0 95.5 30.5t35.5 82.5q0 55 -39 86.5t-108 31.5q-62 0 -141 -18v366h389v-102h-277v-162q33 5 70 5q106 0 168.5 -57t62.5 -153q0 -93 -69 -155q-67 -60 -177 -60q-113 0 -213 61z" />
    <glyph glyph-name="six" unicode="6" 
d="M44 303q0 181 77 281t215 100q97 0 180 -44l-44 -92q-70 36 -131 36q-81 0 -127.5 -57.5t-48.5 -162.5q25 34 67.5 54.5t91.5 20.5q97 0 158 -61q61 -60 61 -156q0 -102 -68 -168q-67 -66 -171 -66q-121 0 -190.5 83t-69.5 232zM173 227q0 -61 35 -100t91 -39
q54 0 90 36.5t36 91.5q0 56 -34.5 90.5t-89.5 34.5t-91.5 -32.5t-36.5 -81.5z" />
    <glyph glyph-name="seven" unicode="7" 
d="M363 570h-308v102h448v-81l-252 -591h-134z" />
    <glyph glyph-name="eight" unicode="8" 
d="M36 179q0 58 35 101.5t99 63.5q-54 19 -86 61t-32 96q0 81 65 132q66 51 171 51q106 0 170 -51q66 -51 66 -132q0 -54 -32 -96t-86 -61q64 -21 99 -64t35 -101q0 -86 -70 -138q-71 -53 -182 -53t-182 53q-70 52 -70 138zM164 187q0 -45 34.5 -73.5t89.5 -28.5t89.5 28.5
t34.5 73.5q0 84 -124 111q-124 -27 -124 -111zM175 493q0 -77 113 -103q113 26 113 103q0 41 -32 67.5t-81 26.5t-81 -26.5t-32 -67.5z" />
    <glyph glyph-name="nine" unicode="9" 
d="M33 450q0 102 67 168q68 66 172 66q123 0 191.5 -82.5t68.5 -232.5q0 -181 -77 -281t-215 -100q-95 0 -180 44l44 92q70 -36 131 -36q81 0 127.5 57.5t48.5 162.5q-53 -75 -159 -75q-97 0 -158 60q-61 61 -61 157zM275 331q55 0 91.5 32.5t36.5 81.5q0 61 -35 100t-91 39
q-54 0 -90 -36.5t-36 -92.5t34 -90t90 -34z" />
    <glyph glyph-name="colon" unicode=":" horiz-adv-x="281" 
d="M60 69q0 35 22.5 57.5t57.5 22.5t57.5 -22.5t22.5 -57.5t-22.5 -57.5t-57.5 -22.5t-57.5 22.5t-22.5 57.5zM60 420q0 35 22.5 57.5t57.5 22.5t57.5 -22.5t22.5 -57.5t-22.5 -57.5t-57.5 -22.5t-57.5 23t-22.5 57z" />
    <glyph glyph-name="semicolon" unicode=";" horiz-adv-x="281" 
d="M95 -160l-39 50q59 49 73 105q-30 3 -49.5 23.5t-19.5 50.5q0 35 22.5 57.5t57.5 22.5q37 0 60 -27.5t23 -70.5q0 -63 -33.5 -118.5t-94.5 -92.5zM60 420q0 35 22.5 57.5t57.5 22.5t57.5 -22.5t22.5 -57.5t-22.5 -57.5t-57.5 -22.5t-57.5 23t-22.5 57z" />
    <glyph glyph-name="less" unicode="&#x3c;" 
d="M500 26l-456 208v108l456 208l43 -102l-354 -160l354 -160z" />
    <glyph glyph-name="equal" unicode="=" 
d="M532 118h-488v107h488v-107zM532 351h-488v107h488v-107z" />
    <glyph glyph-name="greater" unicode="&#x3e;" 
d="M76 26l-43 102l354 160l-354 160l43 102l456 -208v-108z" />
    <glyph glyph-name="question" unicode="?" horiz-adv-x="468" 
d="M74 530l-49 91q94 63 196 63q90 0 149 -51q58 -51 58 -131q0 -40 -15 -75t-37 -59.5t-44 -46t-39 -44.5t-20 -46l-1 -8h-107v18q0 33 14 62t33.5 50t39.5 40.5t34 42.5t14 48q0 41 -28 66.5t-71 25.5q-53 0 -127 -46zM141 69q0 33 21.5 53.5t54.5 20.5q34 0 56 -20.5
t22 -53.5q0 -34 -22 -57t-55 -23t-55 23t-22 57z" />
    <glyph glyph-name="at" unicode="@" horiz-adv-x="980" 
d="M39 245q0 197 130 323t333 126q193 0 316.5 -111t123.5 -285q0 -120 -60 -196q-58 -75 -154 -75q-43 0 -76 18.5t-48 51.5q-60 -70 -151 -70q-84 0 -139 61t-55 157q0 95 55 156q56 62 139 62q81 0 126 -57l13 47h104v-279q0 -25 13 -40t34 -15q41 0 66 46.5t25 122.5
q2 136 -93 224.5t-239 86.5q-155 0 -255.5 -99.5t-100.5 -254.5q-2 -153 100 -254.5t256 -99.5q112 0 242 73l49 -84q-156 -84 -291 -84q-204 0 -333.5 125t-129.5 324zM484 126q38 0 62.5 27t24.5 67v50q0 41 -24 67.5t-63 26.5q-43 0 -70 -33.5t-27 -85.5t27.5 -85.5
t69.5 -33.5z" />
    <glyph glyph-name="A" unicode="A" horiz-adv-x="681" 
d="M138 0h-134l275 672h123l275 -672h-134l-62 160h-281zM341 526l-105 -269h210z" />
    <glyph glyph-name="B" unicode="B" horiz-adv-x="660" 
d="M393 0h-309v672h293q94 0 153 -50q60 -50 60 -128q0 -48 -25 -86.5t-68 -57.5q54 -18 85.5 -62t31.5 -102q0 -81 -63 -134q-61 -52 -158 -52zM212 300v-203h160q49 0 80 28.5t31 73.5t-31 73t-80 28h-160zM212 575v-187h147q45 0 74 26t29 67t-29 67.5t-74 26.5h-147z
" />
    <glyph glyph-name="C" unicode="C" horiz-adv-x="650" 
d="M39 336q0 154 96.5 251t248.5 97q125 0 241 -76l-54 -89q-86 59 -170 59q-101 0 -164 -68t-63 -174q0 -108 63 -175t164 -67q84 0 170 59l54 -89q-116 -76 -241 -76q-153 0 -249 97.5t-96 250.5z" />
    <glyph glyph-name="D" unicode="D" horiz-adv-x="729" 
d="M345 0h-261v672h261q152 2 250 -93t96 -243q0 -148 -96.5 -242t-249.5 -94zM217 570v-468h112q100 0 163 65q63 66 63 169q0 104 -63 168q-63 66 -163 66h-112z" />
    <glyph glyph-name="E" unicode="E" horiz-adv-x="602" 
d="M559 0h-475v672h459v-100h-326v-179h294v-98h-294v-195h342v-100z" />
    <glyph glyph-name="F" unicode="F" horiz-adv-x="586" 
d="M217 0h-133v672h459v-102h-326v-201h294v-103h-294v-266z" />
    <glyph glyph-name="G" unicode="G" horiz-adv-x="713" 
d="M39 336q-3 151 98.5 250.5t254.5 97.5q122 0 249 -69l-49 -89q-107 56 -185 56q-105 0 -172 -69q-66 -69 -66 -177q0 -110 67 -178q68 -68 174 -68q64 0 121 25v158h-151v98h274v-326q-134 -57 -254 -57q-160 0 -260.5 97.5t-100.5 250.5z" />
    <glyph glyph-name="H" unicode="H" horiz-adv-x="777" 
d="M217 0h-133v672h133v-277h343v277h133v-672h-133v293h-343v-293z" />
    <glyph glyph-name="I" unicode="I" horiz-adv-x="302" 
d="M217 0h-133v672h133v-672z" />
    <glyph glyph-name="J" unicode="J" horiz-adv-x="452" 
d="M17 7l17 102q52 -13 94 -13q47 0 77 29.5t30 77.5v469h133v-482q0 -90 -59 -146t-151 -56q-71 0 -141 19z" />
    <glyph glyph-name="K" unicode="K" horiz-adv-x="681" 
d="M212 0h-128v672h128v-319l297 319h153l-296 -314l310 -358h-156l-243 280l-65 -68v-212z" />
    <glyph glyph-name="L" unicode="L" horiz-adv-x="538" 
d="M516 0h-432v672h133v-570h299v-102z" />
    <glyph glyph-name="M" unicode="M" horiz-adv-x="865" 
d="M207 0h-123v672h129l220 -302l219 302h129v-672h-123v490l-188 -259h-74l-189 259v-490z" />
    <glyph glyph-name="N" unicode="N" horiz-adv-x="777" 
d="M207 0h-123v672h129l357 -490v490h123v-672h-129l-357 490v-490z" />
    <glyph glyph-name="O" unicode="O" horiz-adv-x="777" 
d="M389 684q151 2 251.5 -97.5t98.5 -250.5q2 -151 -98.5 -250.5t-251.5 -97.5q-154 0 -252 97.5t-98 250.5t98 250.5t252 97.5zM234 510q-60 -68 -60 -175t60 -174q62 -68 155 -68q94 0 154 68q60 67 60 175q0 107 -60 175t-154 68q-93 0 -155 -69z" />
    <glyph glyph-name="P" unicode="P" horiz-adv-x="628" 
d="M212 0h-128v672h275q104 0 172 -62q67 -61 67 -159q0 -97 -67 -160q-68 -62 -172 -62h-147v-229zM212 570v-238h127q57 0 92.5 33t35.5 86q0 52 -35.5 85.5t-92.5 33.5h-127z" />
    <glyph glyph-name="Q" unicode="Q" horiz-adv-x="777" 
d="M389 684q151 2 251.5 -97.5t98.5 -250.5q0 -92 -37.5 -166t-105.5 -120l149 -107l-65 -81l-191 140q-51 -14 -100 -14q-154 0 -252 97.5t-98 250.5t98 250.5t252 97.5zM234 510q-60 -68 -60 -175t60 -174q62 -68 155 -68q94 0 154 68q60 67 60 175q0 107 -60 175t-154 68
q-93 0 -155 -69z" />
    <glyph glyph-name="R" unicode="R" horiz-adv-x="660" 
d="M212 0h-128v672h280q101 0 166 -59t65 -152q0 -75 -42 -128t-113 -68l184 -265h-145l-163 245h-104v-245zM212 570v-222h132q54 0 87 30.5t33 80.5q0 49 -34 80t-86 31h-132z" />
    <glyph glyph-name="S" unicode="S" horiz-adv-x="588" 
d="M41 43l30 99q128 -49 213 -49q62 0 97.5 24.5t35.5 66.5q0 34 -27.5 57t-69 33t-89.5 25.5t-89.5 34t-69 59t-27.5 99.5q0 86 69 139q71 53 180 53q103 0 229 -47l-30 -99q-105 41 -189 41q-58 0 -93 -23.5t-35 -63.5q0 -33 27.5 -55t68.5 -31.5t89.5 -25t89.5 -34
t68.5 -60t27.5 -102.5q0 -88 -70 -142q-71 -54 -183 -54q-124 0 -253 55z" />
    <glyph glyph-name="T" unicode="T" horiz-adv-x="602" 
d="M235 570h-213v102h558v-102h-212v-570h-133v570z" />
    <glyph glyph-name="U" unicode="U" horiz-adv-x="777" 
d="M76 263v409h133v-404q0 -76 50 -126q50 -49 130 -49q79 0 128 49q51 50 51 126v404h133v-409q0 -121 -88 -198t-224 -77t-224.5 77t-88.5 198z" />
    <glyph glyph-name="V" unicode="V" horiz-adv-x="681" 
d="M279 0l-275 672h139l198 -511l197 511h139l-275 -672h-123z" />
    <glyph glyph-name="W" unicode="W" horiz-adv-x="1017" 
d="M230 0l-214 672h134l148 -511l149 511h124l148 -511l149 511h133l-214 -672h-130l-148 511l-149 -511h-130z" />
    <glyph glyph-name="X" unicode="X" horiz-adv-x="689" 
d="M160 0h-150l250 344l-238 328h147l176 -244l175 244h147l-237 -328l249 -344h-150l-184 260z" />
    <glyph glyph-name="Y" unicode="Y" horiz-adv-x="617" 
d="M242 273l-246 399h145l167 -281l168 281h144l-245 -399v-273h-133v273z" />
    <glyph glyph-name="Z" unicode="Z" horiz-adv-x="636" 
d="M595 0h-554v76l371 494h-359v102h530v-76l-371 -494h383v-102z" />
    <glyph glyph-name="bracketleft" unicode="[" horiz-adv-x="351" 
d="M323 -138h-236v852h236v-102h-118v-648h118v-102z" />
    <glyph glyph-name="backslash" unicode="\" horiz-adv-x="384" 
d="M291 -149l-300 842l102 32l300 -842z" />
    <glyph glyph-name="bracketright" unicode="]" horiz-adv-x="351" 
d="M28 -138v102h117v648h-117v102h235v-852h-235z" />
    <glyph glyph-name="asciicircum" unicode="^" 
d="M128 167l-102 38l208 467h108l208 -467l-102 -38l-160 360z" />
    <glyph glyph-name="underscore" unicode="_" horiz-adv-x="480" 
d="M0 -177v98h480v-98h-480z" />
    <glyph glyph-name="grave" unicode="`" horiz-adv-x="240" 
d="M162 535l-193 117l57 82l185 -129z" />
    <glyph glyph-name="a" unicode="a" horiz-adv-x="551" 
d="M36 142q0 77 59.5 120t166.5 43q49 0 95 -10v26q0 37 -28 61.5t-73 24.5q-71 0 -161 -35l-32 89q109 41 208 41q94 0 149 -51q57 -49 57 -132v-199q0 -16 9.5 -25.5t24.5 -9.5q13 0 25 3l9 -93q-38 -7 -68 -7q-37 0 -64.5 17.5t-40.5 48.5q-66 -66 -161 -66
q-77 0 -126 43t-49 111zM159 149q0 -30 24.5 -50.5t60.5 -20.5q51 0 82 31.5t31 82.5v29q-36 10 -80 10q-55 0 -86.5 -22t-31.5 -60z" />
    <glyph glyph-name="b" unicode="b" horiz-adv-x="601" 
d="M167 0h-102v704h128v-269q55 67 147 67q99 0 162 -72t63 -185t-63 -185t-162 -72q-101 0 -157 75zM191 278v-66q0 -53 32.5 -88t83.5 -35q56 0 92 44t36 112q0 69 -35.5 112.5t-92.5 43.5q-51 0 -83.5 -34.5t-32.5 -88.5z" />
    <glyph glyph-name="c" unicode="c" horiz-adv-x="500" 
d="M36 245q0 113 72 185q74 72 187 72q99 0 188 -57l-52 -86q-61 41 -118 41q-64 0 -106 -44q-41 -44 -41 -111q0 -68 41 -112q42 -43 106 -43q57 0 118 42l52 -87q-89 -57 -188 -57q-113 0 -187 72q-72 72 -72 185z" />
    <glyph glyph-name="d" unicode="d" horiz-adv-x="601" 
d="M260 502q93 0 147 -67v269h128v-704h-102l-16 63q-56 -75 -157 -75q-98 0 -161 72t-63 185t63 185t161 72zM166 245q0 -68 35.5 -112t91.5 -44q51 0 84 35t33 88v66q0 54 -32.5 88.5t-84.5 34.5q-56 0 -91.5 -43.5t-35.5 -112.5z" />
    <glyph glyph-name="e" unicode="e" horiz-adv-x="551" 
d="M287 502q105 0 170 -69q66 -69 66 -179q0 -7 -2 -41h-357q6 -59 49 -94.5t106 -35.5q65 0 141 41l39 -87q-98 -49 -196 -49q-118 0 -193 72q-74 72 -74 185q0 114 70 185q70 72 181 72zM164 290h236q-3 53 -34 85t-79 32q-49 0 -83 -32.5t-40 -84.5z" />
    <glyph glyph-name="f" unicode="f" horiz-adv-x="383" 
d="M113 393h-91v97h91v68q0 71 46 114q47 44 120 44q53 0 111 -15l-17 -96q-35 9 -63 9q-31 0 -50 -19t-19 -50v-55h120v-97h-120v-393h-128v393z" />
    <glyph glyph-name="g" unicode="g" horiz-adv-x="601" 
d="M260 502q101 0 157 -75l16 63h102v-481q0 -99 -75 -164q-74 -65 -189 -65q-98 0 -208 45l35 95q89 -40 163 -40q65 0 105.5 34.5t40.5 89.5v52q-54 -68 -147 -68q-98 0 -161 72t-63 185t63 185t161 72zM166 245q0 -68 35.5 -112t91.5 -44q51 0 84 35t33 88v66
q0 54 -32.5 88.5t-84.5 34.5q-56 0 -91.5 -43.5t-35.5 -112.5z" />
    <glyph glyph-name="h" unicode="h" horiz-adv-x="601" 
d="M193 0h-128v704h128v-277q56 75 159 75q84 0 137 -53q54 -52 54 -134v-315h-128v295q0 45 -29 73.5t-73 28.5q-52 0 -86 -35.5t-34 -91.5v-270z" />
    <glyph glyph-name="i" unicode="i" horiz-adv-x="259" 
d="M129 707q34 0 55.5 -21.5t21.5 -55.5t-21.5 -55.5t-55.5 -21.5q-33 0 -54.5 21.5t-21.5 55.5t21.5 55.5t54.5 21.5zM193 0h-128v490h128v-490z" />
    <glyph glyph-name="j" unicode="j" horiz-adv-x="267" 
d="M-75 -205l17 96q36 -9 63 -9q31 0 49.5 19t18.5 50v539h128v-552q0 -71 -45.5 -114.5t-119.5 -43.5q-51 0 -111 15zM137 707q34 0 55.5 -21.5t21.5 -55.5t-21.5 -55.5t-55.5 -21.5q-33 0 -54.5 21.5t-21.5 55.5t21.5 55.5t54.5 21.5z" />
    <glyph glyph-name="k" unicode="k" horiz-adv-x="531" 
d="M188 0h-123v704h123v-423l187 209h146l-211 -229l219 -261h-148l-154 186l-39 -40v-146z" />
    <glyph glyph-name="l" unicode="l" horiz-adv-x="307" 
d="M65 127v577h128v-564q0 -23 14 -36.5t36 -13.5q9 0 44 6l14 -97q-55 -11 -89 -11q-67 0 -107 37.5t-40 101.5z" />
    <glyph glyph-name="m" unicode="m" horiz-adv-x="919" 
d="M193 0h-128v490h102l16 -67q60 79 161 79q53 0 94.5 -24t62.5 -66q69 90 177 90q79 0 131 -50q52 -49 52 -129v-323h-128v303q0 42 -26.5 68t-68.5 26q-49 0 -80 -33.5t-31 -85.5v-278h-128v303q0 42 -26 68t-68 26q-49 0 -80.5 -33.5t-31.5 -85.5v-278z" />
    <glyph glyph-name="n" unicode="n" horiz-adv-x="601" 
d="M193 0h-128v490h102l16 -71q58 83 169 83q84 0 137 -53q54 -52 54 -134v-315h-128v295q0 45 -29 73.5t-73 28.5q-52 0 -86 -35.5t-34 -91.5v-270z" />
    <glyph glyph-name="o" unicode="o" horiz-adv-x="601" 
d="M300 502q118 0 191 -72q74 -72 74 -185t-74 -185q-73 -72 -191 -72q-116 0 -190 72t-74 185t74 185t190 72zM166 245q0 -69 37.5 -113t96.5 -44t97 44t38 113t-38 113t-97 44t-96.5 -44t-37.5 -113z" />
    <glyph glyph-name="p" unicode="p" horiz-adv-x="601" 
d="M193 -208h-128v698h102l16 -63q56 75 157 75q99 0 162 -72t63 -185t-63 -185t-162 -72q-91 0 -147 68v-264zM191 278v-66q0 -53 32.5 -88t83.5 -35q56 0 92 44t36 112q0 69 -35.5 112.5t-92.5 43.5q-51 0 -83.5 -34.5t-32.5 -88.5z" />
    <glyph glyph-name="q" unicode="q" horiz-adv-x="601" 
d="M260 502q101 0 157 -75l16 63h102v-698h-128v264q-54 -68 -147 -68q-98 0 -161 72t-63 185t63 185t161 72zM166 245q0 -68 35.5 -112t91.5 -44q51 0 84 35t33 88v66q0 54 -32.5 88.5t-84.5 34.5q-56 0 -91.5 -43.5t-35.5 -112.5z" />
    <glyph glyph-name="r" unicode="r" horiz-adv-x="401" 
d="M193 0h-128v490h102l16 -76q21 40 59 62t86 22q32 0 59 -7l-12 -102q-28 7 -57 7q-57 0 -91 -39.5t-34 -103.5v-253z" />
    <glyph glyph-name="s" unicode="s" horiz-adv-x="463" 
d="M36 27l27 91q88 -35 158 -35q37 0 58.5 15.5t21.5 41.5q0 22 -19.5 36t-48.5 20t-62.5 16.5t-62.5 24t-48.5 43.5t-19.5 74q0 65 53 106q53 42 138 42q84 0 180 -34l-28 -92q-78 31 -142 31q-34 0 -55 -14.5t-21 -38.5t27 -37.5t65.5 -22t77 -22t65.5 -46.5t27 -86
q0 -67 -55 -110q-54 -42 -141 -42q-91 0 -195 39z" />
    <glyph glyph-name="t" unicode="t" horiz-adv-x="415" 
d="M113 393h-91v97h91v144h128v-144h136v-97h-136v-234q0 -31 19 -50t50 -19q27 0 63 9l17 -96q-60 -15 -111 -15q-73 0 -120 44q-46 43 -46 114v247z" />
    <glyph glyph-name="u" unicode="u" horiz-adv-x="601" 
d="M57 175v315h128v-294q0 -46 29 -74.5t74 -28.5q52 0 85.5 35.5t33.5 91.5v270h128v-490h-102l-16 71q-56 -83 -168 -83q-85 0 -138 52q-54 52 -54 135z" />
    <glyph glyph-name="v" unicode="v" horiz-adv-x="537" 
d="M209 0l-200 490h134l125 -345l126 345h133l-200 -490h-118z" />
    <glyph glyph-name="w" unicode="w" horiz-adv-x="793" 
d="M177 0l-160 490h129l95 -344l96 344h119l95 -344l96 344h128l-159 -490h-124l-96 344l-95 -344h-124z" />
    <glyph glyph-name="x" unicode="x" horiz-adv-x="537" 
d="M152 0h-145l179 251l-171 239h142l111 -159l111 159h142l-170 -239l178 -251h-144l-117 171z" />
    <glyph glyph-name="y" unicode="y" horiz-adv-x="537" 
d="M211 6l-202 484h134l127 -345l124 345h133l-218 -545q-65 -165 -196 -165q-33 0 -76 9l17 100q29 -7 47 -7q33 0 54 18.5t39 62.5z" />
    <glyph glyph-name="z" unicode="z" horiz-adv-x="495" 
d="M459 0h-423v71l249 322h-241v97h407v-70l-249 -323h257v-97z" />
    <glyph glyph-name="braceleft" unicode="{" horiz-adv-x="351" 
d="M33 237h-16v102h16q33 0 54.5 20.5t21.5 50.5q0 23 -6 68q-5 52 -5 70q0 72 50 119t128 47h47v-102h-16q-38 0 -63 -25t-25 -64q0 -25 4 -62q4 -36 4 -61q0 -41 -20 -70.5t-57 -41.5q36 -12 56.5 -42t20.5 -70q0 -26 -4 -62t-4 -61q0 -38 25 -63.5t63 -25.5h16v-102h-47
q-78 0 -128 47t-50 119q0 17 5 69q6 47 6 69q0 30 -21.5 50.5t-54.5 20.5z" />
    <glyph glyph-name="bar" unicode="|" horiz-adv-x="240" 
d="M174 -224h-108v960h108v-960z" />
    <glyph glyph-name="braceright" unicode="}" horiz-adv-x="351" 
d="M28 -138v102h16q38 0 63 25.5t25 63.5q0 25 -4 61t-4 62q0 40 20.5 70t56.5 42q-37 12 -57 41.5t-20 70.5q0 25 4 61q4 37 4 62q0 39 -25 64t-63 25h-16v102h46q78 0 128 -47t50 -119q0 -24 -6 -69q-5 -50 -5 -69q0 -30 21.5 -50.5t54.5 -20.5h16v-102h-16
q-32 0 -54 -20.5t-22 -50.5q0 -17 5 -69q6 -47 6 -69q0 -72 -50 -119t-128 -47h-46z" />
    <glyph glyph-name="asciitilde" unicode="~" 
d="M81 216l-58 91q76 59 159 59q56 0 110 -24q56 -24 102 -24q53 0 101 42l58 -91q-76 -59 -159 -59q-40 0 -111 24t-101 24q-53 0 -101 -42z" />
    <glyph glyph-name="nbspace" unicode="&#xa0;" horiz-adv-x="240" 
 />
    <glyph glyph-name="exclamdown" unicode="&#xa1;" horiz-adv-x="281" 
d="M140 501q35 0 56 -21.5t21 -55.5t-21.5 -55.5t-55.5 -21.5q-33 0 -54.5 21.5t-21.5 55.5t21.5 55.5t54.5 21.5zM205 -182h-129l11 450h107z" />
    <glyph glyph-name="cent" unicode="&#xa2;" 
d="M73 336q0 95 53 162.5t140 85.5v152h108v-147q80 -8 147 -53l-52 -87q-65 42 -118 42q-65 0 -106 -43.5t-41 -111.5t41 -111.5t106 -43.5q57 0 118 42l52 -87q-69 -45 -147 -54v-146h-108v151q-87 18 -140 86t-53 163z" />
    <glyph glyph-name="sterling" unicode="&#xa3;" 
d="M532 0h-472v100h91v195h-75v98h75v91q0 89 61 144q62 56 156 56q71 0 164 -33l-33 -95q-57 23 -106 23q-48 0 -78.5 -29t-30.5 -76v-81h173v-98h-173v-195h248v-100z" />
    <glyph glyph-name="currency" unicode="&#xa4;" 
d="M108 80l-76 76l78 78q-26 47 -26 102t26 101l-78 79l76 76l78 -79q44 27 102 27t101 -27l79 79l76 -76l-79 -79q27 -43 27 -101q0 -56 -27 -102l79 -78l-76 -76l-79 78q-43 -25 -101 -25t-102 25zM212 412q-30 -30 -30 -76t30 -76t76 -30t76 30t30 76t-30 76t-76 30
t-76 -30z" />
    <glyph glyph-name="yen" unicode="&#xa5;" 
d="M189 369l-189 303h140l148 -259l148 259h140l-189 -303h113v-87h-145v-67h145v-87h-145v-128h-134v128h-145v87h145v67h-145v87h113z" />
    <glyph glyph-name="brokenbar" unicode="&#xa6;" horiz-adv-x="240" 
d="M174 -176h-108v384h108v-384zM174 304h-108v384h108v-384z" />
    <glyph glyph-name="section" unicode="&#xa7;" horiz-adv-x="543" 
d="M39 -127l30 100q105 -40 184 -40q49 0 76.5 19t27.5 53q0 30 -32.5 48.5t-78.5 30.5t-92 29t-78.5 55.5t-32.5 97.5q0 82 73 125q-57 43 -57 120t61 125q62 48 159 48q95 0 205 -43l-30 -99q-90 37 -165 37q-47 0 -73.5 -18.5t-26.5 -49.5q0 -29 32.5 -46t78.5 -29
t92.5 -29t79 -56.5t32.5 -100.5q0 -80 -70 -126q54 -44 54 -119q0 -81 -62 -129t-163 -48q-105 0 -224 45zM173 272q0 -40 49 -64q16 -8 30 -12l70 -21q23 10 37 28.5t14 40.5q0 35 -35 58q-14 11 -50 20q-2 1 -58 18q-26 -8 -41.5 -26.5t-15.5 -41.5z" />
    <glyph glyph-name="dieresis" unicode="&#xa8;" horiz-adv-x="240" 
d="M-41 580q-19 19 -19 50t19 50t50 19t50 -19t19 -50t-19 -50t-50 -19t-50 19zM181 580q-19 19 -19 50t19 50t50 19t50 -19t19 -50t-19 -50t-50 -19t-50 19z" />
    <glyph glyph-name="copyright" unicode="&#xa9;" horiz-adv-x="832" 
d="M95 145q-47 85 -47 190q0 107 46.5 190.5t131.5 131.5q85 47 190 47t189.5 -47t131.5 -131q47 -85 47 -191q0 -105 -47 -189t-131 -131q-85 -47 -190 -47t-189.5 46.5t-131.5 130.5zM115 336q-2 -130 84.5 -216.5t216.5 -84.5q131 -2 217 84t84 217q0 133 -85 217
q-84 84 -216 84t-217 -84q-84 -84 -84 -217zM428 552q84 0 154 -48l-40 -66q-49 34 -101 34q-58 0 -94.5 -38t-36.5 -99q0 -60 36.5 -97.5t94.5 -37.5q52 0 101 34l40 -66q-70 -48 -154 -48q-96 0 -156 60q-60 62 -60 156q0 95 60 155q60 61 156 61z" />
    <glyph glyph-name="ordfeminine" unicode="&#xaa;" horiz-adv-x="392" 
d="M371 217h-349v67h349v-67zM31 446q0 50 41 78.5t112 28.5q25 0 60 -7v12q0 27 -17.5 43t-47.5 16q-49 0 -108 -24l-22 64q72 28 139 28q65 0 104 -35t39 -94v-120q0 -21 20 -21q5 0 15 2l7 -68q-92 -21 -119 37q-40 -42 -105 -42q-51 0 -84.5 29t-33.5 73zM120 451
q0 -18 15 -30.5t38 -12.5q31 0 51 19t20 48v20q-32 5 -51 5q-34 0 -53.5 -13t-19.5 -36z" />
    <glyph glyph-name="guillemotleft" unicode="&#xab;" horiz-adv-x="582" 
d="M226 2l-199 221v56l199 222l75 -60l-151 -190l151 -190zM479 2l-199 221v56l199 222l75 -60l-151 -190l151 -190z" />
    <glyph glyph-name="logicalnot" unicode="&#xac;" 
d="M425 234h-381v108h488v-298h-107v190z" />
    <glyph glyph-name="uni00AD" unicode="&#xad;" horiz-adv-x="320" 
d="M310 202h-276v98h276v-98z" />
    <glyph glyph-name="registered" unicode="&#xae;" horiz-adv-x="832" 
d="M95 145q-47 85 -47 190q0 107 46.5 190.5t131.5 131.5q85 47 190 47t189.5 -47t131.5 -131q47 -85 47 -191q0 -105 -47 -189t-131 -131q-85 -47 -190 -47t-189.5 46.5t-131.5 130.5zM115 336q-2 -130 84.5 -216.5t216.5 -84.5q131 -2 217 84t84 217q0 133 -85 217
q-84 84 -216 84t-217 -84q-84 -84 -84 -217zM350 128h-90v416h181q64 0 105 -37t41 -96q0 -46 -24.5 -79t-65.5 -43l104 -161h-102l-89 147h-60v-147zM350 471v-125h79q30 0 48.5 17t18.5 45q0 29 -18.5 46t-48.5 17h-79z" />
    <glyph glyph-name="overscore" unicode="&#xaf;" horiz-adv-x="240" 
d="M276 586h-312v87h312v-87z" />
    <glyph glyph-name="degree" unicode="&#xb0;" horiz-adv-x="340" 
d="M38 551q0 57 37 94.5t95 37.5t95 -37.5t37 -94.5q0 -58 -37 -95t-95 -37t-95 37t-37 95zM108 551q0 -28 17.5 -45.5t44.5 -17.5q28 0 45.5 17.5t17.5 45.5q0 27 -17.5 44.5t-45.5 17.5t-45 -17.5t-17 -44.5z" />
    <glyph glyph-name="plusminus" unicode="&#xb1;" 
d="M532 0h-488v108h488v-108zM234 353h-190v108h190v191h108v-191h190v-108h-190v-190h-108v190z" />
    <glyph glyph-name="twosuperior" unicode="&#xb2;" horiz-adv-x="344" 
d="M52 696l-36 69q76 43 146 43q61 0 99.5 -36t38.5 -92q0 -68 -59 -125l-96 -96h160v-75h-283v59l141 142q44 42 44 80q0 29 -17.5 46t-46.5 17q-36 0 -91 -32z" />
    <glyph glyph-name="threesuperior" unicode="&#xb3;" horiz-adv-x="344" 
d="M13 410l30 67q56 -28 104 -28q29 0 47.5 15.5t18.5 40.5q0 26 -21.5 43t-55.5 17h-35v64h35q31 0 50.5 15.5t19.5 38.5q0 24 -15.5 38t-41.5 14q-45 0 -98 -25l-29 66q73 32 144 32q59 0 96 -32.5t37 -82.5q0 -71 -61 -94q33 -12 52 -39.5t19 -63.5q0 -53 -40 -86.5
t-103 -33.5q-81 0 -153 34z" />
    <glyph glyph-name="acute" unicode="&#xb4;" horiz-adv-x="240" 
d="M88 535l-49 70l185 129l57 -82z" />
    <glyph glyph-name="uni00B5" unicode="&#xb5;" horiz-adv-x="625" 
d="M193 -208h-128v698h128v-294q0 -46 28.5 -74.5t74.5 -28.5q52 0 85.5 35.5t33.5 91.5v270h128v-365q0 -16 10 -25.5t25 -9.5q5 0 23 2l10 -97q-38 -7 -68 -7q-41 0 -71 19.5t-41 54.5q-53 -71 -139 -71q-66 0 -99 33v-232z" />
    <glyph glyph-name="paragraph" unicode="&#xb6;" horiz-adv-x="601" 
d="M31 455q0 95 66 156q67 61 172 61h247v-832h-107v724h-102v-327h-38q-105 0 -172 61q-66 62 -66 157z" />
    <glyph glyph-name="middot" unicode="&#xb7;" horiz-adv-x="265" 
d="M52 251q0 35 22.5 57.5t57.5 22.5t57.5 -22.5t22.5 -57.5t-22.5 -57.5t-57.5 -22.5q-34 0 -57 23t-23 57z" />
    <glyph glyph-name="cedilla" unicode="&#xb8;" horiz-adv-x="240" 
d="M1 -213l22 72q35 -13 66 -13q32 -3 41 22q9 23 -13 37q-14 9 -36 7h-13l16 88h88l-8 -44q32 -7 52 -31.5t20 -58.5q0 -43 -37 -70t-97 -27q-54 0 -101 18z" />
    <glyph glyph-name="onesuperior" unicode="&#xb9;" horiz-adv-x="280" 
d="M36 659l-33 62l137 79h78v-416h-94v325z" />
    <glyph glyph-name="ordmasculine" unicode="&#xba;" horiz-adv-x="421" 
d="M31 515q0 75 50 122q49 48 129 48t130 -48q50 -47 50 -122q0 -76 -50 -124q-50 -47 -130 -47q-79 0 -129 47q-50 48 -50 124zM383 217h-345v67h345v-67zM128 515q0 -42 23 -69t59 -27q37 0 60 26.5t23 69.5q0 42 -23 69t-60 27q-36 0 -59 -27t-23 -69z" />
    <glyph glyph-name="guillemotright" unicode="&#xbb;" horiz-adv-x="582" 
d="M103 2l-75 59l150 190l-150 190l75 60l199 -222v-56zM356 2l-75 59l150 190l-150 190l75 60l199 -222v-56z" />
    <glyph glyph-name="onequarter" unicode="&#xbc;" horiz-adv-x="960" 
d="M88 531l-33 62l137 79h78v-416h-94v325zM261 -25l-66 50l504 672l66 -50zM797 86h-195v65l189 265h89v-262h51v-68h-51v-86h-83v86zM797 313l-113 -159h113v159z" />
    <glyph glyph-name="onehalf" unicode="&#xbd;" horiz-adv-x="960" 
d="M88 531l-33 62l137 79h78v-416h-94v325zM261 -25l-66 50l504 672l66 -50zM648 312l-36 69q76 43 146 43q61 0 99.5 -36t38.5 -92q0 -66 -59 -125l-96 -96h160v-75h-283v59l141 142q44 44 44 80q0 29 -17.5 46t-46.5 17q-35 0 -91 -32z" />
    <glyph glyph-name="threequarters" unicode="&#xbe;" horiz-adv-x="960" 
d="M33 282l30 67q57 -28 104 -28q29 0 47.5 15.5t18.5 40.5q0 26 -21.5 43t-55.5 17h-35v64h35q31 0 50.5 15.5t19.5 38.5q0 24 -15.5 38t-41.5 14q-45 0 -98 -25l-29 66q73 32 144 32q59 0 96 -32.5t37 -82.5q0 -71 -61 -94q33 -12 52 -39.5t19 -63.5q0 -53 -40 -86.5
t-103 -33.5q-81 0 -153 34zM261 -25l-66 50l504 672l66 -50zM797 86h-195v65l189 265h89v-262h51v-68h-51v-86h-83v86zM797 313l-113 -159h113v159z" />
    <glyph glyph-name="questiondown" unicode="&#xbf;" horiz-adv-x="404" 
d="M33 -12q0 39 15 74t36.5 59.5t43.5 46.5t39 45.5t20 46.5l2 8h107v-19q0 -32 -14 -61t-33.5 -50t-39.5 -41t-34 -43.5t-14 -47.5q0 -41 27.5 -66.5t71.5 -25.5q53 0 127 46l49 -91q-95 -63 -197 -63q-91 0 -149 52q-57 51 -57 130zM186 368q-21 22 -21 56t21 55
q22 22 56 22t55 -22q22 -21 22 -55t-22 -56q-21 -21 -55 -21t-56 21z" />
    <glyph glyph-name="multiply" unicode="&#xd7;" 
d="M130 55l-75 75l157 158l-157 158l75 75l158 -157l158 157l75 -75l-157 -158l157 -158l-75 -75l-158 157z" />
    <glyph glyph-name="germandbls" unicode="&#xdf;" horiz-adv-x="633" 
d="M188 0h-123v521q0 87 62 141q63 54 165 54q93 0 151 -49q60 -48 60 -122q0 -31 -11.5 -59t-26 -44t-26 -37t-11.5 -40q0 -24 18 -41.5t44 -31t52.5 -30.5t44.5 -48t18 -74q0 -68 -53 -110q-52 -42 -135 -42q-74 0 -158 35l33 91q66 -29 115 -29q34 0 54.5 15t20.5 40
q0 22 -18.5 38.5t-45.5 29.5t-54 29.5t-45.5 46.5t-18.5 71q0 36 19 68t37.5 60.5t18.5 56.5q0 34 -24.5 56.5t-63.5 22.5q-45 0 -72 -28t-27 -75v-516z" />
    <glyph glyph-name="divide" unicode="&#xf7;" 
d="M532 239h-488v98h488v-98zM220 96q0 30 19 49t49 19t49 -19t19 -49t-19 -49t-49 -19t-49 19t-19 49zM288 548q31 0 49.5 -18t18.5 -50q3 -29 -19 -49t-49 -19t-49 19q-18 22 -19 49t19 49t49 19z" />
    <glyph glyph-name="florin" unicode="&#x192;" 
d="M87 1l16 100q40 -8 57 -8q25 0 40.5 15.5t15.5 40.5v190h-87v97h87v97q0 67 45 109t114 42q51 0 104 -13l-17 -100q-37 8 -54 8q-26 0 -42.5 -15.5t-16.5 -40.5v-87h103v-97h-103v-200q0 -66 -44.5 -108.5t-113.5 -42.5q-52 0 -104 13z" />
    <glyph glyph-name="circumflex" unicode="&#x2c6;" horiz-adv-x="240" 
d="M11 535l-55 60l125 119h78l125 -119l-55 -60l-109 92z" />
    <glyph glyph-name="caron" unicode="&#x2c7;" horiz-adv-x="240" 
d="M81 545l-125 120l55 59l109 -91l109 91l55 -59l-125 -120h-78z" />
    <glyph glyph-name="breve" unicode="&#x2d8;" horiz-adv-x="240" 
d="M-44 698h83q2 -32 24.5 -52.5t56.5 -20.5t57 20.5t24 52.5h83q-3 -72 -48.5 -116.5t-115.5 -44.5t-115.5 44.5t-48.5 116.5z" />
    <glyph glyph-name="dotaccent" unicode="&#x2d9;" horiz-adv-x="240" 
d="M46 630q0 32 20.5 53t53.5 21t53.5 -21t20.5 -53q0 -33 -20.5 -53.5t-53.5 -20.5t-53.5 20.5t-20.5 53.5z" />
    <glyph glyph-name="ring" unicode="&#x2da;" horiz-adv-x="240" 
d="M42 555q-30 29 -30 75t30 74q31 29 78 29t78 -29q30 -28 30 -74t-30 -75q-28 -28 -77 -28q-48 0 -79 28zM121 583q20 0 33 13t13 34q0 20 -13 33t-34 13q-29 3 -41 -21.5t0.5 -49.5t41.5 -22z" />
    <glyph glyph-name="ogonek" unicode="&#x2db;" horiz-adv-x="240" 
d="M8 -136q0 77 107 151l69 -15q-81 -64 -81 -113q0 -18 12.5 -29.5t31.5 -11.5q17 0 35 6l15 -70q-38 -13 -81 -13q-49 0 -78.5 25.5t-29.5 69.5z" />
    <glyph glyph-name="tilde" unicode="&#x2dc;" horiz-adv-x="240" 
d="M28 569l-77 22q7 45 36 72.5t69 27.5q27 0 66 -18q42 -17 52 -17q24 0 38 35l77 -23q-7 -45 -35.5 -72t-69.5 -27q-25 0 -67 17q-39 18 -51 18q-30 0 -38 -35z" />
    <glyph glyph-name="hungarumlaut" unicode="&#x2dd;" horiz-adv-x="240" 
d="M-1 532l-64 65l152 161l73 -73zM220 532l-64 65l152 161l73 -73z" />
    <glyph glyph-name="commaaccent" unicode="&#x326;" horiz-adv-x="240" 
d="M82 -302l-33 45q48 41 59 85q-25 0 -41 17t-16 42q0 31 19 50t50 19t51 -23t20 -59q0 -53 -28.5 -99t-80.5 -77z" />
    <glyph glyph-name="uni0400" unicode="&#x400;" horiz-adv-x="602" 
d="M559 0h-475v672h459v-100h-326v-179h294v-98h-294v-195h342v-100zM351 717l-193 117l57 82l185 -129z" />
    <glyph glyph-name="afii10023" unicode="&#x401;" horiz-adv-x="602" 
d="M559 0h-475v672h459v-100h-326v-179h294v-98h-294v-195h342v-100zM148 762q-19 19 -19 50t19 50t50 19t50 -19t19 -50t-19 -50t-50 -19t-50 19zM370 762q-19 19 -19 50t19 50t50 19t50 -19t19 -50t-19 -50t-50 -19t-50 19z" />
    <glyph glyph-name="afii10051" unicode="&#x402;" horiz-adv-x="842" 
d="M219 570h-197v102h558v-102h-228v-188q119 22 215 22q111 0 178 -58q67 -57 67 -150t-67 -151q-66 -57 -173 -57q-74 0 -143 19l26 102q52 -13 102 -13q55 0 87 26t32 72q0 48 -36 76.5t-99 28.5q-83 0 -189 -20v-279h-133v570z" />
    <glyph glyph-name="afii10052" unicode="&#x403;" horiz-adv-x="538" 
d="M217 0h-133v672h432v-102h-299v-570zM269 717l-49 70l185 129l57 -82z" />
    <glyph glyph-name="afii10053" unicode="&#x404;" horiz-adv-x="658" 
d="M39 336q0 154 96.5 251t248.5 97q128 0 241 -74l-54 -86q-86 58 -170 58q-90 0 -151 -52t-73 -137h336v-98h-340q10 -91 73 -149q62 -56 155 -56q84 0 170 58l54 -86q-113 -74 -241 -74q-153 0 -249 97.5t-96 250.5z" />
    <glyph glyph-name="afii10054" unicode="&#x405;" horiz-adv-x="588" 
d="M41 43l30 99q128 -49 213 -49q62 0 97.5 24.5t35.5 66.5q0 34 -27.5 57t-69 33t-89.5 25.5t-89.5 34t-69 59t-27.5 99.5q0 86 69 139q71 53 180 53q103 0 229 -47l-30 -99q-105 41 -189 41q-58 0 -93 -23.5t-35 -63.5q0 -33 27.5 -55t68.5 -31.5t89.5 -25t89.5 -34
t68.5 -60t27.5 -102.5q0 -88 -70 -142q-71 -54 -183 -54q-124 0 -253 55z" />
    <glyph glyph-name="afii10055" unicode="&#x406;" horiz-adv-x="302" 
d="M217 0h-133v672h133v-672z" />
    <glyph glyph-name="afii10056" unicode="&#x407;" horiz-adv-x="302" 
d="M-10 762q-19 19 -19 50t19 50t50 19t50 -19t19 -50t-19 -50t-50 -19t-50 19zM217 0h-133v672h133v-672zM212 762q-19 19 -19 50t19 50t50 19t50 -19t19 -50t-19 -50t-50 -19t-50 19z" />
    <glyph glyph-name="afii10057" unicode="&#x408;" horiz-adv-x="452" 
d="M17 7l17 102q52 -13 94 -13q47 0 77 29.5t30 77.5v469h133v-482q0 -90 -59 -146t-151 -56q-71 0 -141 19z" />
    <glyph glyph-name="afii10058" unicode="&#x409;" horiz-adv-x="1130" 
d="M6 -5l11 105q32 -4 50 -4q49 0 76 34.5t27 96.5v445h531v-255h173q98 0 162 -59q64 -58 64 -150t-64 -150q-62 -58 -162 -58h-296v570h-280v-353q0 -106 -56.5 -167.5t-154.5 -61.5q-39 0 -81 7zM701 314v-212h158q51 0 83 30t32 76t-32 76t-83 30h-158z" />
    <glyph glyph-name="afii10059" unicode="&#x40a;" horiz-adv-x="1106" 
d="M212 0h-128v672h128v-271h342v271h123v-271h176q98 0 160 -56q63 -55 63 -145t-63 -145q-61 -55 -160 -55h-299v301h-342v-301zM677 303v-206h161q50 0 81 28.5t31 74.5t-31 74.5t-81 28.5h-161z" />
    <glyph glyph-name="afii10060" unicode="&#x40b;" horiz-adv-x="842" 
d="M219 570h-197v102h558v-102h-228v-188q98 22 196 22q107 0 175 -63q68 -62 68 -161v-180h-133v170q0 57 -39.5 93t-100.5 36q-72 0 -166 -20v-279h-133v570z" />
    <glyph glyph-name="afii10061" unicode="&#x40c;" horiz-adv-x="681" 
d="M212 0h-128v672h128v-277h71l222 277h148l-260 -322l277 -350h-150l-232 293h-76v-293zM316 717l-49 70l185 129l57 -82z" />
    <glyph glyph-name="uni040D" unicode="&#x40d;" horiz-adv-x="777" 
d="M213 0h-129v672h123v-490l357 490h129v-672h-123v490zM431 717l-193 117l57 82l185 -129z" />
    <glyph glyph-name="afii10062" unicode="&#x40e;" horiz-adv-x="644" 
d="M266 175l-246 497h139l173 -383l169 383h139l-255 -545q-67 -139 -204 -139q-47 0 -103 15l19 102q39 -9 68 -9q62 0 94 65zM166 880h83q1 -33 24 -53t57 -20t57 20t24 53h83q-3 -73 -48.5 -117t-115.5 -44t-115.5 44t-48.5 117z" />
    <glyph glyph-name="afii10145" unicode="&#x40f;" horiz-adv-x="777" 
d="M327 0h-243v672h133v-570h343v570h133v-672h-243v-176h-123v176z" />
    <glyph glyph-name="afii10017" unicode="&#x410;" horiz-adv-x="681" 
d="M138 0h-134l275 672h123l275 -672h-134l-62 160h-281zM341 526l-105 -269h210z" />
    <glyph glyph-name="afii10018" unicode="&#x411;" horiz-adv-x="649" 
d="M392 0h-308v672h472v-97h-344v-176h180q97 0 159 -56q63 -55 63 -144t-63 -144q-61 -55 -159 -55zM212 301v-204h160q49 0 80 28t31 74t-30.5 74t-80.5 28h-160z" />
    <glyph glyph-name="afii10019" unicode="&#x412;" horiz-adv-x="660" 
d="M393 0h-309v672h293q94 0 153 -50q60 -50 60 -128q0 -48 -25 -86.5t-68 -57.5q54 -18 85.5 -62t31.5 -102q0 -81 -63 -134q-61 -52 -158 -52zM212 300v-203h160q49 0 80 28.5t31 73.5t-31 73t-80 28h-160zM212 575v-187h147q45 0 74 26t29 67t-29 67.5t-74 26.5h-147z
" />
    <glyph glyph-name="afii10020" unicode="&#x413;" horiz-adv-x="538" 
d="M217 0h-133v672h432v-102h-299v-570z" />
    <glyph glyph-name="afii10021" unicode="&#x414;" horiz-adv-x="785" 
d="M20 -176v278h48q77 137 77 307v263h514v-570h96v-278h-123v176h-490v-176h-122zM210 102h321v468h-258v-171q0 -168 -63 -297z" />
    <glyph glyph-name="afii10022" unicode="&#x415;" horiz-adv-x="602" 
d="M559 0h-475v672h459v-100h-326v-179h294v-98h-294v-195h342v-100z" />
    <glyph glyph-name="afii10024" unicode="&#x416;" horiz-adv-x="1016" 
d="M157 0h-145l254 349l-237 323h140l203 -277h72v277h128v-277h72l203 277h140l-237 -323l254 -349h-145l-211 293h-76v-293h-128v293h-76z" />
    <glyph glyph-name="afii10025" unicode="&#x417;" horiz-adv-x="548" 
d="M12 41l38 97q105 -45 198 -45q59 0 95 27.5t36 72.5q0 48 -40.5 76.5t-109.5 28.5h-63v92h63q63 0 100 26.5t37 70.5q0 42 -31 67t-84 25q-77 0 -185 -41l-38 97q123 49 240 49q100 0 163 -51t63 -131q0 -55 -31 -97t-84 -58q59 -17 95 -63t36 -106q0 -84 -68 -137
t-174 -53q-130 0 -256 53z" />
    <glyph glyph-name="afii10026" unicode="&#x418;" horiz-adv-x="777" 
d="M213 0h-129v672h123v-490l357 490h129v-672h-123v490z" />
    <glyph glyph-name="afii10027" unicode="&#x419;" horiz-adv-x="777" 
d="M213 0h-129v672h123v-490l357 490h129v-672h-123v490zM223 880h83q2 -33 24.5 -53t56.5 -20t56.5 20t24.5 53h83q-3 -74 -48.5 -117.5t-115.5 -43.5t-115.5 44t-48.5 117z" />
    <glyph glyph-name="afii10028" unicode="&#x41a;" horiz-adv-x="681" 
d="M212 0h-128v672h128v-277h71l222 277h148l-260 -322l277 -350h-150l-232 293h-76v-293z" />
    <glyph glyph-name="afii10029" unicode="&#x41b;" horiz-adv-x="801" 
d="M6 -5l11 105q32 -4 50 -4q49 0 76 34.5t27 96.5v445h547v-672h-128v570h-291v-353q0 -106 -56.5 -167.5t-154.5 -61.5q-39 0 -81 7z" />
    <glyph glyph-name="afii10030" unicode="&#x41c;" horiz-adv-x="865" 
d="M207 0h-123v672h129l220 -302l219 302h129v-672h-123v490l-188 -259h-74l-189 259v-490z" />
    <glyph glyph-name="afii10031" unicode="&#x41d;" horiz-adv-x="777" 
d="M217 0h-133v672h133v-277h343v277h133v-672h-133v293h-343v-293z" />
    <glyph glyph-name="afii10032" unicode="&#x41e;" horiz-adv-x="777" 
d="M389 684q151 2 251.5 -97.5t98.5 -250.5q2 -151 -98.5 -250.5t-251.5 -97.5q-154 0 -252 97.5t-98 250.5t98 250.5t252 97.5zM234 510q-60 -68 -60 -175t60 -174q62 -68 155 -68q94 0 154 68q60 67 60 175q0 107 -60 175t-154 68q-93 0 -155 -69z" />
    <glyph glyph-name="afii10033" unicode="&#x41f;" horiz-adv-x="777" 
d="M217 0h-133v672h609v-672h-133v570h-343v-570z" />
    <glyph glyph-name="afii10034" unicode="&#x420;" horiz-adv-x="628" 
d="M212 0h-128v672h275q104 0 172 -62q67 -61 67 -159q0 -97 -67 -160q-68 -62 -172 -62h-147v-229zM212 570v-238h127q57 0 92.5 33t35.5 86q0 52 -35.5 85.5t-92.5 33.5h-127z" />
    <glyph glyph-name="afii10035" unicode="&#x421;" horiz-adv-x="650" 
d="M39 336q0 154 96.5 251t248.5 97q125 0 241 -76l-54 -89q-86 59 -170 59q-101 0 -164 -68t-63 -174q0 -108 63 -175t164 -67q84 0 170 59l54 -89q-116 -76 -241 -76q-153 0 -249 97.5t-96 250.5z" />
    <glyph glyph-name="afii10036" unicode="&#x422;" horiz-adv-x="602" 
d="M235 570h-213v102h558v-102h-212v-570h-133v570z" />
    <glyph glyph-name="afii10037" unicode="&#x423;" horiz-adv-x="644" 
d="M266 175l-246 497h139l173 -383l169 383h139l-255 -545q-67 -139 -204 -139q-47 0 -103 15l19 102q39 -9 68 -9q62 0 94 65z" />
    <glyph glyph-name="afii10038" unicode="&#x424;" horiz-adv-x="793" 
d="M31 344q0 120 84 198t220 86v76h123v-76q135 -8 219.5 -86t84.5 -198t-85 -199q-83 -77 -219 -85v-92h-123v92q-135 8 -220 85q-84 79 -84 199zM335 162v364q-81 -8 -130 -58q-49 -49 -49 -124t49 -125q49 -49 130 -57zM458 526v-364q80 8 129 57q50 52 50 125
q0 74 -50 124q-49 50 -129 58z" />
    <glyph glyph-name="afii10039" unicode="&#x425;" horiz-adv-x="689" 
d="M160 0h-150l250 344l-238 328h147l176 -244l175 244h147l-237 -328l249 -344h-150l-184 260z" />
    <glyph glyph-name="afii10040" unicode="&#x426;" horiz-adv-x="820" 
d="M666 0h-582v672h133v-570h343v570h133v-570h96v-278h-123v176z" />
    <glyph glyph-name="afii10041" unicode="&#x427;" horiz-adv-x="711" 
d="M52 484v188h133v-178q0 -61 38.5 -99t100.5 -38q77 0 169 20v295h133v-672h-133v274q-113 -22 -199 -22q-107 0 -175 65q-67 64 -67 167z" />
    <glyph glyph-name="afii10042" unicode="&#x428;" horiz-adv-x="1098" 
d="M1014 0h-930v672h133v-570h266v570h133v-570h265v570h133v-672z" />
    <glyph glyph-name="afii10043" unicode="&#x429;" horiz-adv-x="1140" 
d="M982 0h-898v672h133v-570h266v570h133v-570h265v570h133v-570h96v-278h-128v176z" />
    <glyph glyph-name="afii10044" unicode="&#x42a;" horiz-adv-x="772" 
d="M212 570h-190v102h318v-255h176q98 0 162 -59q64 -58 64 -150t-64 -150q-62 -58 -162 -58h-304v570zM340 314v-212h156q51 0 83 29.5t32 76.5t-32 76.5t-83 29.5h-156z" />
    <glyph glyph-name="afii10045" unicode="&#x42b;" horiz-adv-x="946" 
d="M388 0h-304v672h128v-255h176q98 0 162 -59q64 -58 64 -150t-64 -150q-62 -58 -162 -58zM212 314v-212h156q51 0 83 29.5t32 76.5t-32 76.5t-83 29.5h-156zM861 0h-133v672h133v-672z" />
    <glyph glyph-name="afii10046" unicode="&#x42c;" horiz-adv-x="644" 
d="M388 0h-304v672h128v-255h176q98 0 162 -59q64 -58 64 -150t-64 -150q-62 -58 -162 -58zM212 314v-212h156q51 0 83 29.5t32 76.5t-32 76.5t-83 29.5h-156z" />
    <glyph glyph-name="afii10047" unicode="&#x42d;" horiz-adv-x="658" 
d="M33 62l55 86q85 -58 169 -58q93 0 155 56q63 58 73 149h-340v98h337q-14 86 -75 137q-61 52 -150 52q-84 0 -169 -58l-55 86q116 74 242 74q153 0 249 -97q96 -98 96 -251q2 -151 -96.5 -250.5t-248.5 -97.5q-126 0 -242 74z" />
    <glyph glyph-name="afii10048" unicode="&#x42e;" horiz-adv-x="1071" 
d="M217 0h-133v672h133v-274h130q19 127 112 206q94 80 228 80q149 2 248.5 -97.5t97.5 -250.5q2 -151 -97 -250.5t-249 -97.5q-140 0 -235 83q-94 84 -108 219h-127v-290zM687 93q93 0 153 68q60 67 60 174t-60 175q-60 69 -153 69q-94 0 -154 -69q-60 -68 -60 -175
t60 -174q60 -68 154 -68z" />
    <glyph glyph-name="afii10049" unicode="&#x42f;" horiz-adv-x="660" 
d="M181 0h-145l184 265q-71 15 -113 68t-42 128q0 93 65 152t166 59h280v-672h-128v245h-103zM196 459q0 -50 33 -80.5t87 -30.5h132v222h-132q-52 0 -86 -31t-34 -80z" />
    <glyph glyph-name="afii10065" unicode="&#x430;" horiz-adv-x="559" 
d="M36 142q0 77 59.5 120t166.5 43q49 0 95 -10v26q0 37 -28 61.5t-73 24.5q-71 0 -161 -35l-32 89q109 41 208 41q94 0 149 -51q57 -49 57 -132v-199q0 -16 9.5 -25.5t24.5 -9.5q13 0 25 3l9 -93q-38 -7 -68 -7q-37 0 -64.5 17.5t-40.5 48.5q-66 -66 -161 -66
q-77 0 -126 43t-49 111zM159 149q0 -30 24.5 -50.5t60.5 -20.5q51 0 82 31.5t31 82.5v29q-36 10 -80 10q-55 0 -86.5 -22t-31.5 -60z" />
    <glyph glyph-name="afii10066" unicode="&#x431;" horiz-adv-x="601" 
d="M44 303q0 159 70 257t205 129l157 38l23 -97l-159 -38q-139 -35 -164 -161q60 71 163 71q97 0 161 -70q65 -70 65 -174q0 -119 -71 -195q-70 -75 -182 -75q-122 0 -195 85t-73 230zM172 253q0 -71 39 -117t96 -46q60 0 97.5 45t37.5 116q0 66 -37.5 107.5t-96.5 41.5
q-60 0 -98 -41t-38 -106z" />
    <glyph glyph-name="afii10067" unicode="&#x432;" horiz-adv-x="511" 
d="M303 0h-238v490h228q73 0 119 -37t46 -97q0 -68 -62 -100q37 -15 58 -46t21 -72q0 -61 -49 -100q-49 -38 -123 -38zM183 214v-127h102q31 0 50.5 17.5t19.5 46.5q0 28 -19 45.5t-51 17.5h-102zM183 403v-117h94q29 0 46 16t17 42q0 27 -17.5 43t-45.5 16h-94z" />
    <glyph glyph-name="afii10068" unicode="&#x433;" horiz-adv-x="439" 
d="M193 0h-128v490h344v-97h-216v-393z" />
    <glyph glyph-name="afii10069" unicode="&#x434;" horiz-adv-x="601" 
d="M20 -160v257h32q51 84 51 206v187h406v-393h64v-257h-118v160h-318v-160h-117zM178 97h218v296h-181v-101q0 -115 -37 -195z" />
    <glyph glyph-name="afii10070" unicode="&#x435;" horiz-adv-x="551" 
d="M287 502q105 0 170 -69q66 -69 66 -179q0 -7 -2 -41h-357q6 -59 49 -94.5t106 -35.5q65 0 141 41l39 -87q-98 -49 -196 -49q-118 0 -193 72q-74 72 -74 185q0 114 70 185q70 72 181 72zM164 290h236q-3 53 -34 85t-79 32q-49 0 -83 -32.5t-40 -84.5z" />
    <glyph glyph-name="afii10072" unicode="&#x436;" horiz-adv-x="781" 
d="M145 0h-132l173 255l-160 235h130l131 -190h45v190h117v-190h46l130 190h130l-160 -235l173 -255h-132l-139 202h-48v-202h-117v202h-48z" />
    <glyph glyph-name="afii10073" unicode="&#x437;" horiz-adv-x="447" 
d="M17 33l35 89q81 -37 149 -37q37 0 60.5 17t23.5 44q0 29 -26.5 48t-69.5 19h-50v77h50q40 0 63.5 16t23.5 42t-19.5 41.5t-52.5 15.5q-60 0 -140 -33l-35 89q102 41 190 41q80 0 130 -38t50 -99q0 -38 -21.5 -68.5t-56.5 -42.5q40 -14 65 -47.5t25 -74.5q0 -64 -54 -104
q-52 -40 -138 -40q-92 0 -202 45z" />
    <glyph glyph-name="afii10074" unicode="&#x438;" horiz-adv-x="601" 
d="M187 0h-122v490h118v-319l231 319h121v-490h-118v319z" />
    <glyph glyph-name="afii10075" unicode="&#x439;" horiz-adv-x="601" 
d="M187 0h-122v490h118v-319l231 319h121v-490h-118v319zM134 698h83q1 -32 24 -52.5t57 -20.5t56.5 20.5t24.5 52.5h83q-3 -72 -48.5 -116.5t-115.5 -44.5t-115.5 44.5t-48.5 116.5z" />
    <glyph glyph-name="afii10076" unicode="&#x43a;" horiz-adv-x="531" 
d="M188 0h-123v490h123v-190h40l147 190h135l-179 -235l193 -255h-141l-152 202h-43v-202z" />
    <glyph glyph-name="afii10077" unicode="&#x43b;" horiz-adv-x="617" 
d="M14 -7l11 101q17 -4 34 -4q65 0 65 84v316h427v-490h-123v393h-181v-229q0 -80 -45.5 -128t-122.5 -48q-30 0 -65 5z" />
    <glyph glyph-name="afii10078" unicode="&#x43c;" horiz-adv-x="665" 
d="M183 0h-118v490h121l146 -200l147 200h120v-490h-118v319l-117 -159h-65l-116 159v-319z" />
    <glyph glyph-name="afii10079" unicode="&#x43d;" horiz-adv-x="601" 
d="M193 0h-128v490h128v-193h214v193h128v-490h-128v200h-214v-200z" />
    <glyph glyph-name="afii10080" unicode="&#x43e;" horiz-adv-x="601" 
d="M300 502q118 0 191 -72q74 -72 74 -185t-74 -185q-73 -72 -191 -72q-116 0 -190 72t-74 185t74 185t190 72zM166 245q0 -69 37.5 -113t96.5 -44t97 44t38 113t-38 113t-97 44t-96.5 -44t-37.5 -113z" />
    <glyph glyph-name="afii10081" unicode="&#x43f;" horiz-adv-x="601" 
d="M193 0h-128v490h470v-490h-128v393h-214v-393z" />
    <glyph glyph-name="afii10082" unicode="&#x440;" horiz-adv-x="601" 
d="M193 -208h-128v698h102l16 -63q56 75 157 75q99 0 162 -72t63 -185t-63 -185t-162 -72q-91 0 -147 68v-264zM191 278v-66q0 -53 32.5 -88t83.5 -35q56 0 92 44t36 112q0 69 -35.5 112.5t-92.5 43.5q-51 0 -83.5 -34.5t-32.5 -88.5z" />
    <glyph glyph-name="afii10083" unicode="&#x441;" horiz-adv-x="500" 
d="M36 245q0 113 72 185q74 72 187 72q99 0 188 -57l-52 -86q-61 41 -118 41q-64 0 -106 -44q-41 -44 -41 -111q0 -68 41 -112q42 -43 106 -43q57 0 118 42l52 -87q-89 -57 -188 -57q-113 0 -187 72q-72 72 -72 185z" />
    <glyph glyph-name="afii10084" unicode="&#x442;" horiz-adv-x="468" 
d="M170 393h-148v97h425v-97h-149v-393h-128v393z" />
    <glyph glyph-name="afii10085" unicode="&#x443;" horiz-adv-x="537" 
d="M211 6l-202 484h134l127 -345l124 345h133l-218 -545q-65 -165 -196 -165q-33 0 -76 9l17 100q29 -7 47 -7q33 0 54 18.5t39 62.5z" />
    <glyph glyph-name="afii10086" unicode="&#x444;" horiz-adv-x="707" 
d="M295 497v207h117v-207q118 -13 188 -82q71 -69 71 -170t-71 -170q-70 -69 -188 -82v-201h-117v201q-119 14 -189 82q-70 69 -70 170t70 170q70 68 189 82zM153 245q0 -61 38.5 -102.5t103.5 -49.5v304q-65 -8 -103.5 -49.5t-38.5 -102.5zM412 395v-299q65 8 103 48.5
t38 100.5t-38 100.5t-103 49.5z" />
    <glyph glyph-name="afii10087" unicode="&#x445;" horiz-adv-x="537" 
d="M152 0h-145l179 251l-171 239h142l111 -159l111 159h142l-170 -239l178 -251h-144l-117 171z" />
    <glyph glyph-name="afii10088" unicode="&#x446;" horiz-adv-x="627" 
d="M481 0h-416v490h128v-393h214v393h128v-393h64v-257h-118v160z" />
    <glyph glyph-name="afii10089" unicode="&#x447;" horiz-adv-x="553" 
d="M44 350v140h128v-130q0 -38 23.5 -61t60.5 -23q53 0 103 10v204h128v-490h-128v188q-72 -12 -136 -12q-79 0 -129 48q-50 50 -50 126z" />
    <glyph glyph-name="afii10090" unicode="&#x448;" horiz-adv-x="863" 
d="M797 0h-732v490h128v-393h174v393h128v-393h174v393h128v-490z" />
    <glyph glyph-name="afii10091" unicode="&#x449;" horiz-adv-x="889" 
d="M743 0h-678v490h128v-393h174v393h128v-393h174v393h128v-393h64v-257h-118v160z" />
    <glyph glyph-name="afii10092" unicode="&#x44a;" horiz-adv-x="601" 
d="M156 393h-134v97h251v-172h128q75 0 123 -45q49 -43 49 -114q0 -70 -48 -114.5t-124 -44.5h-245v393zM273 224v-130h109q32 0 51.5 18t19.5 47t-20 47t-51 18h-109z" />
    <glyph glyph-name="afii10093" unicode="&#x44b;" horiz-adv-x="764" 
d="M311 0h-246v490h118v-172h128q75 0 123 -45q49 -43 49 -114q0 -70 -49 -115q-49 -44 -123 -44zM183 224v-130h109q31 0 51 18t20 47t-20 47t-52 18h-108zM699 0h-123v490h123v-490z" />
    <glyph glyph-name="afii10094" unicode="&#x44c;" horiz-adv-x="511" 
d="M311 0h-246v490h118v-172h128q75 0 123 -45q49 -43 49 -114q0 -70 -49 -115q-49 -44 -123 -44zM183 224v-130h109q31 0 51 18t20 47t-20 47t-52 18h-108z" />
    <glyph glyph-name="afii10095" unicode="&#x44d;" horiz-adv-x="513" 
d="M31 45l49 79q62 -41 120 -41t98 34t49 92h-229v82h227q-12 54 -50.5 85t-94.5 31q-59 0 -120 -40l-49 78q89 57 187 57q114 0 187 -73q73 -72 73 -184t-73 -185q-73 -72 -187 -72q-98 0 -187 57z" />
    <glyph glyph-name="afii10096" unicode="&#x44e;" horiz-adv-x="844" 
d="M193 0h-128v490h128v-193h108q15 92 83 148q69 57 167 57q113 0 185 -72t72 -185t-72 -185t-185 -72q-100 0 -168 58q-68 59 -83 154h-107v-200zM422 245q0 -69 36 -113t93 -44t93 44t36 113t-36 113t-93 44t-93 -44t-36 -113z" />
    <glyph glyph-name="afii10097" unicode="&#x44f;" horiz-adv-x="531" 
d="M162 0h-132l128 185q-48 15 -76 54t-28 90q0 71 48 116q50 45 127 45h236v-490h-117v165h-76zM174 327q0 -31 21 -50.5t56 -19.5h97v141h-97q-34 0 -55.5 -19.5t-21.5 -51.5z" />
    <glyph glyph-name="uni0450" unicode="&#x450;" horiz-adv-x="551" 
d="M287 502q105 0 170 -69q66 -69 66 -179q0 -7 -2 -41h-357q6 -59 49 -94.5t106 -35.5q65 0 141 41l39 -87q-98 -49 -196 -49q-118 0 -193 72q-74 72 -74 185q0 114 70 185q70 72 181 72zM329 535l-193 117l57 82l185 -129zM164 290h236q-3 53 -34 85t-79 32
q-49 0 -83 -32.5t-40 -84.5z" />
    <glyph glyph-name="afii10071" unicode="&#x451;" horiz-adv-x="551" 
d="M287 502q105 0 170 -69q66 -69 66 -179q0 -7 -2 -41h-357q6 -59 49 -94.5t106 -35.5q65 0 141 41l39 -87q-98 -49 -196 -49q-118 0 -193 72q-74 72 -74 185q0 114 70 185q70 72 181 72zM126 580q-19 19 -19 50t19 50t50 19t50 -19t19 -50t-19 -50t-50 -19t-50 19z
M164 290h236q-3 53 -34 85t-79 32q-49 0 -83 -32.5t-40 -84.5zM348 580q-19 19 -19 50t19 50t50 19t50 -19t19 -50t-19 -50t-50 -19t-50 19z" />
    <glyph glyph-name="afii10099" unicode="&#x452;" horiz-adv-x="601" 
d="M65 551h-59v88h59v65h128v-65h162v-88h-162v-123q55 74 159 74q85 0 138 -53t53 -136v-375q0 -71 -46 -114.5t-120 -43.5q-49 0 -110 15l17 96q36 -9 63 -9q31 0 49.5 19t18.5 50v342q0 46 -28.5 75t-73.5 29q-52 0 -86 -34.5t-34 -86.5v-276h-128v551z" />
    <glyph glyph-name="afii10100" unicode="&#x453;" horiz-adv-x="439" 
d="M193 0h-128v490h344v-97h-216v-393zM194 535l-49 70l185 129l57 -82z" />
    <glyph glyph-name="afii10101" unicode="&#x454;" horiz-adv-x="513" 
d="M295 502q99 0 188 -57l-49 -78q-61 40 -121 40q-55 0 -94 -31.5t-50 -84.5h227v-82h-230q9 -58 49 -92t98 -34q59 0 121 41l49 -79q-89 -57 -188 -57q-113 0 -186 72q-73 73 -73 185t73 184q73 73 186 73z" />
    <glyph glyph-name="afii10102" unicode="&#x455;" horiz-adv-x="463" 
d="M36 27l27 91q88 -35 158 -35q37 0 58.5 15.5t21.5 41.5q0 22 -19.5 36t-48.5 20t-62.5 16.5t-62.5 24t-48.5 43.5t-19.5 74q0 65 53 106q53 42 138 42q84 0 180 -34l-28 -92q-78 31 -142 31q-34 0 -55 -14.5t-21 -38.5t27 -37.5t65.5 -22t77 -22t65.5 -46.5t27 -86
q0 -67 -55 -110q-54 -42 -141 -42q-91 0 -195 39z" />
    <glyph glyph-name="afii10103" unicode="&#x456;" horiz-adv-x="259" 
d="M129 707q34 0 55.5 -21.5t21.5 -55.5t-21.5 -55.5t-55.5 -21.5q-33 0 -54.5 21.5t-21.5 55.5t21.5 55.5t54.5 21.5zM193 0h-128v490h128v-490z" />
    <glyph glyph-name="afii10104" unicode="&#x457;" horiz-adv-x="259" 
d="M-32 580q-19 19 -19 50t19 50t50 19t50 -19t19 -50t-19 -50t-50 -19t-50 19zM193 0h-128v490h128v-490zM190 580q-19 19 -19 50t19 50t50 19t50 -19t19 -50t-19 -50t-50 -19t-50 19z" />
    <glyph glyph-name="afii10105" unicode="&#x458;" horiz-adv-x="267" 
d="M-75 -205l17 96q36 -9 63 -9q31 0 49.5 19t18.5 50v539h128v-552q0 -71 -45.5 -114.5t-119.5 -43.5q-51 0 -111 15zM137 707q34 0 55.5 -21.5t21.5 -55.5t-21.5 -55.5t-55.5 -21.5q-33 0 -54.5 21.5t-21.5 55.5t21.5 55.5t54.5 21.5z" />
    <glyph glyph-name="afii10106" unicode="&#x459;" horiz-adv-x="857" 
d="M14 -7l11 101q17 -4 34 -4q65 0 65 84v316h414v-172h120q75 0 123 -45q49 -43 49 -114q0 -70 -49 -115q-49 -44 -123 -44h-238v393h-173v-229q0 -80 -45.5 -128t-122.5 -48q-30 0 -65 5zM538 224v-130h101q31 0 50.5 18t19.5 47t-19.5 47t-51.5 18h-100z" />
    <glyph glyph-name="afii10107" unicode="&#x45a;" horiz-adv-x="841" 
d="M188 0h-123v490h123v-185h216v185h118v-185h126q73 0 119.5 -43t46.5 -110q0 -66 -47 -110q-47 -42 -118 -42h-245v212h-216v-212zM522 216v-127h102q31 0 50 17t19 46t-18.5 46.5t-50.5 17.5h-102z" />
    <glyph glyph-name="afii10108" unicode="&#x45b;" horiz-adv-x="601" 
d="M65 551h-59v88h59v65h128v-65h162v-88h-162v-124q56 75 159 75q84 0 137 -53q54 -52 54 -134v-315h-128v295q0 45 -29 73.5t-73 28.5q-52 0 -86 -35.5t-34 -91.5v-270h-128v551z" />
    <glyph glyph-name="afii10109" unicode="&#x45c;" horiz-adv-x="531" 
d="M188 0h-123v490h123v-190h40l147 190h135l-179 -235l193 -255h-141l-152 202h-43v-202zM233 535l-49 70l185 129l57 -82z" />
    <glyph glyph-name="uni045D" unicode="&#x45d;" horiz-adv-x="601" 
d="M187 0h-122v490h118v-319l231 319h121v-490h-118v319zM342 535l-193 117l57 82l185 -129z" />
    <glyph glyph-name="afii10110" unicode="&#x45e;" horiz-adv-x="537" 
d="M211 6l-202 484h134l127 -345l124 345h133l-218 -545q-65 -165 -196 -165q-33 0 -76 9l17 100q29 -7 47 -7q33 0 54 18.5t39 62.5zM104 698h83q1 -32 24 -52.5t57 -20.5t57 20.5t24 52.5h83q-3 -72 -48.5 -116.5t-115.5 -44.5t-115.5 44.5t-48.5 116.5z" />
    <glyph glyph-name="afii10193" unicode="&#x45f;" horiz-adv-x="601" 
d="M241 0h-176v490h128v-393h214v393h128v-490h-176v-160h-118v160z" />
    <glyph glyph-name="afii10050" unicode="&#x490;" horiz-adv-x="538" 
d="M217 0h-133v672h310v160h122v-262h-299v-570z" />
    <glyph glyph-name="afii10098" unicode="&#x491;" horiz-adv-x="439" 
d="M193 0h-128v490h227v160h117v-257h-216v-393z" />
    <glyph glyph-name="uni0492" unicode="&#x492;" horiz-adv-x="554" 
d="M100 269h-78v97h78v306h432v-102h-299v-204h176v-97h-176v-269h-133v269z" />
    <glyph glyph-name="uni0493" unicode="&#x493;" horiz-adv-x="447" 
d="M73 184h-62v93h62v213h344v-97h-216v-116h117v-93h-117v-184h-128v184z" />
    <glyph glyph-name="uni049A" unicode="&#x49a;" horiz-adv-x="726" 
d="M212 0h-128v672h128v-277h71l225 277h145l-260 -322l202 -248h111v-278h-123v176h-63l-232 293h-76v-293z" />
    <glyph glyph-name="uni049B" unicode="&#x49b;" horiz-adv-x="568" 
d="M188 0h-123v490h123v-190h40l147 190h135l-177 -233l125 -160h90v-257h-117v160h-48l-151 202h-44v-202z" />
    <glyph glyph-name="uni04A2" unicode="&#x4a2;" horiz-adv-x="820" 
d="M217 0h-133v672h133v-277h343v277h133v-570h96v-278h-123v176h-106v293h-343v-293z" />
    <glyph glyph-name="uni04A3" unicode="&#x4a3;" horiz-adv-x="627" 
d="M193 0h-128v490h128v-193h214v193h128v-393h64v-257h-118v160h-74v200h-214v-200z" />
    <glyph glyph-name="uni04AE" unicode="&#x4ae;" horiz-adv-x="617" 
d="M242 273l-246 399h145l167 -281l168 281h144l-245 -399v-273h-133v273z" />
    <glyph glyph-name="uni04AF" unicode="&#x4af;" horiz-adv-x="537" 
d="M204 13l-195 477h134l125 -340l126 340h133l-195 -477v-221h-128v221z" />
    <glyph glyph-name="uni04B0" unicode="&#x4b0;" horiz-adv-x="617" 
d="M207 332l-211 340h145l167 -281l168 281h144l-211 -340h106v-102h-140v-230h-133v230h-140v102h105z" />
    <glyph glyph-name="uni04B1" unicode="&#x4b1;" horiz-adv-x="537" 
d="M184 65l-175 425h134l125 -340l126 340h133l-174 -425h106v-87h-127v-186h-128v186h-126v87h106z" />
    <glyph glyph-name="uni04BA" unicode="&#x4ba;" horiz-adv-x="711" 
d="M217 0h-133v672h133v-274q113 22 200 22q106 0 174 -65t68 -167v-188h-133v178q0 61 -39 99t-101 38q-77 0 -169 -20v-295z" />
    <glyph glyph-name="uni04BB" unicode="&#x4bb;" horiz-adv-x="601" 
d="M193 0h-128v704h128v-277q56 75 159 75q84 0 137 -53q54 -52 54 -134v-315h-128v295q0 45 -29 73.5t-73 28.5q-52 0 -86 -35.5t-34 -91.5v-270z" />
    <glyph glyph-name="uni04D8" unicode="&#x4d8;" horiz-adv-x="716" 
d="M27 323q0 7 2 49h513q-8 95 -72 152q-64 58 -165 58q-96 0 -199 -55l-43 92q132 65 258 65q157 0 257 -97t100 -251t-94 -251t-242 -97q-139 0 -227 93.5t-88 241.5zM542 284h-385q4 -85 56 -140q51 -54 129 -54q83 0 137 52.5t63 141.5z" />
    <glyph glyph-name="afii10846" unicode="&#x4d9;" horiz-adv-x="551" 
d="M28 236q0 24 2 42h357q-7 58 -49.5 93.5t-105.5 35.5q-66 0 -142 -40l-38 86q97 49 195 49q119 0 193 -72q75 -72 75 -185q0 -112 -71 -185q-70 -72 -181 -72q-104 0 -170 69q-65 70 -65 179zM387 201h-237q4 -53 35 -85.5t78 -32.5q50 0 83.5 32t40.5 86z" />
    <glyph glyph-name="uni04E8" unicode="&#x4e8;" horiz-adv-x="777" 
d="M389 684q152 2 252 -97.5t98 -250.5q2 -151 -98 -250.5t-252 -97.5q-154 0 -252 97.5t-98 250.5t98 250.5t252 97.5zM609 298h-441q10 -93 71 -152q59 -58 150 -58q90 0 149 58q61 58 71 152zM172 390h434q-15 88 -74 141t-143 53q-85 0 -144 -53q-60 -54 -73 -141z" />
    <glyph glyph-name="uni04E9" unicode="&#x4e9;" horiz-adv-x="601" 
d="M300 502q118 0 191 -72q74 -72 74 -185t-74 -185q-73 -72 -191 -72q-116 0 -190 72t-74 185t74 185t190 72zM444 211h-288q8 -60 47.5 -96.5t96.5 -36.5t96.5 36t47.5 97zM158 288h284q-11 57 -49.5 90.5t-92.5 33.5t-92.5 -33.5t-49.5 -90.5z" />
    <glyph glyph-name="uni2010" unicode="&#x2010;" horiz-adv-x="320" 
d="M298 202h-276v98h276v-98z" />
    <glyph glyph-name="uni2011" unicode="&#x2011;" horiz-adv-x="320" 
d="M298 202h-276v98h276v-98z" />
    <glyph glyph-name="endash" unicode="&#x2013;" horiz-adv-x="480" 
d="M458 202h-436v98h436v-98z" />
    <glyph glyph-name="emdash" unicode="&#x2014;" horiz-adv-x="960" 
d="M938 202h-916v98h916v-98z" />
    <glyph glyph-name="afii00208" unicode="&#x2015;" horiz-adv-x="960" 
d="M938 202h-916v98h916v-98z" />
    <glyph glyph-name="quoteleft" unicode="&#x2018;" horiz-adv-x="265" 
d="M50 480q0 62 33.5 117t94.5 93l39 -50q-59 -48 -73 -105q30 -3 49 -23.5t19 -50.5q0 -35 -22.5 -57.5t-57.5 -22.5q-37 0 -59.5 27.5t-22.5 71.5z" />
    <glyph glyph-name="quoteright" unicode="&#x2019;" horiz-adv-x="265" 
d="M87 376l-39 50q59 49 73 105q-30 3 -49.5 23.5t-19.5 50.5q0 35 22.5 57.5t57.5 22.5q36 0 59.5 -27.5t23.5 -70.5q0 -63 -34 -118.5t-94 -92.5z" />
    <glyph glyph-name="quotesinglbase" unicode="&#x201a;" horiz-adv-x="233" 
d="M87 -160l-39 50q59 49 73 105q-30 3 -49.5 23.5t-19.5 50.5q0 35 22.5 57.5t57.5 22.5q36 0 59.5 -27.5t23.5 -70.5q0 -63 -34 -118.5t-94 -92.5z" />
    <glyph glyph-name="quotedblleft" unicode="&#x201c;" horiz-adv-x="486" 
d="M50 480q0 62 33.5 117t94.5 93l39 -50q-59 -48 -73 -105q30 -3 49 -23.5t19 -50.5q0 -35 -22.5 -57.5t-57.5 -22.5q-37 0 -59.5 27.5t-22.5 71.5zM272 480q0 62 33.5 117.5t94.5 92.5l39 -50q-59 -48 -73 -105q30 -3 49 -23.5t19 -50.5q0 -35 -22.5 -57.5t-57.5 -22.5
q-37 0 -59.5 27.5t-22.5 71.5z" />
    <glyph glyph-name="quotedblright" unicode="&#x201d;" horiz-adv-x="486" 
d="M87 376l-39 50q59 49 73 105q-30 3 -49.5 23.5t-19.5 50.5q0 35 22.5 57.5t57.5 22.5q36 0 59.5 -27.5t23.5 -70.5q0 -63 -34 -118.5t-94 -92.5zM308 376l-39 50q59 49 73 105q-30 3 -49.5 23.5t-19.5 50.5q0 35 22.5 57.5t57.5 22.5q37 0 60 -27.5t23 -70.5
q0 -63 -33.5 -118.5t-94.5 -92.5z" />
    <glyph glyph-name="quotedblbase" unicode="&#x201e;" horiz-adv-x="486" 
d="M87 -160l-39 50q59 49 73 105q-30 3 -49.5 23.5t-19.5 50.5q0 35 22.5 57.5t57.5 22.5q36 0 59.5 -27.5t23.5 -70.5q0 -63 -34 -118.5t-94 -92.5zM308 -160l-39 50q59 49 73 105q-30 3 -49.5 23.5t-19.5 50.5q0 35 22.5 57.5t57.5 22.5q37 0 60 -27.5t23 -70.5
q0 -63 -33.5 -118.5t-94.5 -92.5z" />
    <glyph glyph-name="dagger" unicode="&#x2020;" horiz-adv-x="500" 
d="M201 411h-163v97h163v164h98v-164h164v-97h-164v-411h-98v411z" />
    <glyph glyph-name="daggerdbl" unicode="&#x2021;" horiz-adv-x="500" 
d="M201 164h-163v97h163v150h-163v97h163v164h98v-164h164v-97h-164v-150h164v-97h-164v-164h-98v164z" />
    <glyph glyph-name="bullet" unicode="&#x2022;" horiz-adv-x="480" 
d="M138 186q-42 42 -42 102t42 102t102 42t102 -42t42 -102t-42 -102t-102 -42t-102 42z" />
    <glyph glyph-name="ellipsis" unicode="&#x2026;" horiz-adv-x="960" 
d="M80 69q0 35 22.5 57.5t57.5 22.5t57.5 -22.5t22.5 -57.5t-22.5 -57.5t-57.5 -22.5q-34 0 -57 22.5t-23 57.5zM400 69q0 35 22.5 57.5t57.5 22.5t57.5 -22.5t22.5 -57.5t-22.5 -57.5t-57.5 -22.5t-57.5 22.5t-22.5 57.5zM720 69q0 35 22.5 57.5t57.5 22.5t57.5 -22.5
t22.5 -57.5t-22.5 -57.5t-57.5 -22.5q-34 0 -57 22.5t-23 57.5z" />
    <glyph glyph-name="perthousand" unicode="&#x2030;" horiz-adv-x="1263" 
d="M85 374q-49 50 -49 130t49 129q50 51 128 51q79 0 128 -51q50 -50 50 -129q0 -78 -50 -130q-50 -50 -128 -50t-128 50zM153 580q-22 -28 -22 -76t22 -76q23 -29 60 -29t60 29t23 76t-23 76t-60 29t-60 -29zM213 -25l-66 50l504 672l66 -50zM651 348q77 0 127 -51
q50 -50 50 -129q0 -78 -50 -130q-50 -50 -127 -50q-78 0 -128 50q-50 52 -50 130q0 79 50 129q49 51 128 51zM591 244q-23 -29 -23 -76t23 -76t60 -29q36 0 59 29t23 76t-23 76t-59 29q-37 0 -60 -29zM1049 348q77 0 127 -51q51 -49 51 -129q0 -79 -51 -130
q-50 -50 -127 -50t-127 50q-50 52 -50 130q0 79 50 129q50 51 127 51zM1049 63q36 0 59.5 29t23.5 76t-23.5 76t-59.5 29t-59 -29t-23 -76t23 -76t59 -29z" />
    <glyph glyph-name="guilsinglleft" unicode="&#x2039;" horiz-adv-x="329" 
d="M226 2l-199 221v56l199 222l75 -60l-151 -190l151 -190z" />
    <glyph glyph-name="guilsinglright" unicode="&#x203a;" horiz-adv-x="329" 
d="M103 2l-75 59l150 190l-150 190l75 60l199 -222v-56z" />
    <glyph glyph-name="fraction" unicode="&#x2044;" horiz-adv-x="192" 
d="M-123 -25l-66 50l504 672l66 -50z" />
    <glyph glyph-name="Euro" unicode="&#x20ac;" 
d="M101 233h-71v78h61q-2 22 -2 25q0 7 2 41h-61v78h76q29 107 103 168t175 61q100 0 185 -49l-46 -87q-61 36 -124 36q-57 0 -101.5 -35.5t-61.5 -93.5h219v-78h-241q-2 -34 -2 -41q0 -2 0.5 -12t0.5 -13h242v-78h-225q17 -67 62 -106t107 -39q63 0 124 36l46 -87
q-85 -49 -185 -49q-103 0 -180 65q-74 65 -103 180z" />
    <glyph glyph-name="afii61248" unicode="&#x2105;" horiz-adv-x="852" 
d="M31 509q0 74 49 122q49 49 127 49q60 0 126 -39l-39 -64q-38 27 -75 27q-40 0 -66 -26.5t-26 -68.5t25.5 -68t66.5 -26q35 0 75 26l39 -63q-66 -39 -126 -39q-77 0 -127 48q-49 48 -49 122zM205 -25l-65 50l504 672l65 -50zM462 163q0 75 50 122q51 48 130 48
q80 0 129 -48q51 -47 51 -122q0 -76 -51 -124q-50 -47 -129 -47q-78 0 -130 47q-50 48 -50 124zM560 163q0 -42 23 -69t59 -27t59 27t23 69t-23 69t-59 27t-59 -27t-23 -69z" />
    <glyph glyph-name="litre" unicode="&#x2113;" horiz-adv-x="403" 
d="M65 146v399q0 77 45.5 124t117.5 47q66 0 109 -46q44 -47 44 -117q0 -82 -51 -161.5t-147 -144.5v-91q0 -29 19 -47.5t50 -18.5q28 0 68 10l17 -97q-59 -15 -106 -15q-72 0 -119 44q-47 45 -47 114zM183 539v-179q101 84 101 177q0 33 -14 54t-37 21t-36.5 -20t-13.5 -53
z" />
    <glyph glyph-name="numero" unicode="&#x2116;" horiz-adv-x="1198" 
d="M207 0h-123v672h129l357 -490v490h123v-672h-129l-357 490v-490zM808 515q0 75 50 122q51 48 130 48q78 0 128 -48q51 -47 51 -122q0 -76 -50 -124q-50 -47 -129 -47q-78 0 -130 47q-50 48 -50 124zM1160 217h-345v67h345v-67zM906 515q0 -43 22.5 -69.5t59.5 -26.5
q36 0 59 27t23 69t-23 69t-59 27q-37 0 -59.5 -26.5t-22.5 -69.5z" />
    <glyph glyph-name="uni2117" unicode="&#x2117;" horiz-adv-x="832" 
d="M95 145q-47 85 -47 190q0 107 46.5 190.5t131.5 131.5q85 47 190 47t189.5 -47t131.5 -131q47 -85 47 -191q0 -105 -47 -189t-131 -131q-85 -47 -190 -47t-189.5 46.5t-131.5 130.5zM115 336q-2 -130 84.5 -216.5t216.5 -84.5q131 -2 217 84t84 217q0 133 -85 217
q-84 84 -216 84t-217 -84q-84 -84 -84 -217zM363 128h-90v416h177q67 0 109 -39.5t42 -101.5t-42 -101t-109 -39h-87v-135zM363 470v-134h75q32 0 52 18.5t20 48.5q0 31 -20 49t-52 18h-75z" />
    <glyph glyph-name="uni2120" unicode="&#x2120;" horiz-adv-x="944" 
d="M33 282l24 71q75 -29 129 -29q33 0 52.5 14t19.5 36t-23 34.5t-55.5 20.5t-64.5 19t-55 38.5t-23 70.5q0 55 43 89t113 34t148 -30l-24 -71q-65 24 -117 24q-31 0 -49.5 -12.5t-18.5 -33.5q0 -20 23 -32t55.5 -19.5t64.5 -19t55 -39.5t23 -73q0 -57 -43.5 -91.5
t-116.5 -34.5q-82 0 -160 34zM531 256h-87v416h94l127 -175l127 175h94v-416h-89v285l-104 -146h-56l-106 146v-285z" />
    <glyph glyph-name="trademark" unicode="&#x2122;" horiz-adv-x="952" 
d="M148 597h-126v75h351v-75h-127v-341h-98v341zM539 256h-87v416h95l126 -175l127 175h94v-416h-88v285l-105 -146h-55l-107 146v-285z" />
    <glyph glyph-name="uni2126" unicode="&#x2126;" horiz-adv-x="799" 
d="M348 0h-304v102h150q-129 103 -129 263q-2 139 93 230t241 89q147 0 241 -90q94 -88 94 -229q0 -159 -129 -263h150v-102h-304v87q150 107 150 268q0 100 -56 162t-146 62t-146 -62q-55 -61 -55 -162q0 -161 150 -268v-87z" />
    <glyph glyph-name="estimated" unicode="&#x212e;" horiz-adv-x="960" 
d="M864 336q0 -13 -1 -16h-623v-196q95 -108 240 -108q148 0 243 112h66q-55 -67 -136 -105.5t-173 -38.5q-117 0 -212.5 59.5t-141.5 155.5q-46 98 -21.5 206.5t103.5 179.5q77 73 195.5 95.5t225.5 -20.5q105 -41 170 -128.5t65 -195.5zM240 548v-196h480v196
q-97 108 -240 108t-240 -108z" />
    <glyph glyph-name="uni215F" unicode="&#x215f;" 
d="M88 531l-33 62l137 79h78v-416h-94v325zM261 -25l-66 50l504 672l66 -50z" />
    <glyph glyph-name="arrowleft" unicode="&#x2190;" horiz-adv-x="960" 
d="M367 -47l-335 335l335 335l85 -81l-201 -195h677v-118h-677l201 -195z" />
    <glyph glyph-name="arrowup" unicode="&#x2191;" horiz-adv-x="960" 
d="M226 316l-81 85l335 335l335 -335l-81 -85l-195 201v-677h-118v677z" />
    <glyph glyph-name="arrowright" unicode="&#x2192;" horiz-adv-x="960" 
d="M709 229h-677v118h677l-201 195l85 81l335 -335l-335 -335l-85 81z" />
    <glyph glyph-name="arrowdown" unicode="&#x2193;" horiz-adv-x="960" 
d="M480 -160l-335 335l81 85l195 -201v677h118v-677l195 201l81 -85z" />
    <glyph glyph-name="uni2196" unicode="&#x2196;" horiz-adv-x="960" 
d="M281 128l-118 4v473h473l4 -118l-281 4l479 -478l-83 -83l-478 479z" />
    <glyph glyph-name="uni2197" unicode="&#x2197;" horiz-adv-x="960" 
d="M205 -70l-83 83l479 479l-281 -5l4 118h473v-473l-118 -4l5 281z" />
    <glyph glyph-name="uni2198" unicode="&#x2198;" horiz-adv-x="960" 
d="M601 84l-479 479l83 83l479 -479l-5 281l118 -4v-473h-473l-4 118z" />
    <glyph glyph-name="uni2199" unicode="&#x2199;" horiz-adv-x="960" 
d="M636 -29h-473v473l118 4l-5 -281l479 479l83 -83l-479 -479l281 5z" />
    <glyph glyph-name="partialdiff" unicode="&#x2202;" horiz-adv-x="601" 
d="M36 258q0 104 65 174q64 70 162 70q101 0 163 -71q-7 89 -49 137t-111 48q-61 0 -134 -37l-43 92q90 45 187 45q135 0 208 -98.5t73 -285.5q0 -161 -73 -252q-74 -92 -195 -92q-113 0 -183 75q-70 74 -70 195zM158 251q0 -70 38 -114t98 -44q58 0 96 48q39 48 39 121
q0 59 -38 97t-97 38q-60 0 -98 -41t-38 -105z" />
    <glyph glyph-name="uni2206" unicode="&#x2206;" horiz-adv-x="681" 
d="M655 0h-629v75l253 597h123l253 -597v-75zM341 526l-175 -424h350z" />
    <glyph glyph-name="product" unicode="&#x220f;" horiz-adv-x="799" 
d="M217 -208h-133v912h630v-912h-133v810h-364v-810z" />
    <glyph glyph-name="summation" unicode="&#x2211;" horiz-adv-x="634" 
d="M31 -208v79l306 385l-290 369v79h554v-102h-381l245 -316v-60l-261 -332h413v-102h-586z" />
    <glyph glyph-name="minus" unicode="&#x2212;" 
d="M532 234h-488v108h488v-108z" />
    <glyph glyph-name="uni2215" unicode="&#x2215;" horiz-adv-x="192" 
d="M-123 -25l-66 50l504 672l66 -50z" />
    <glyph glyph-name="radical" unicode="&#x221a;" horiz-adv-x="681" 
d="M31 49l-33 101l253 83l97 -290l216 777l105 -27l-251 -901h-131l-106 306z" />
    <glyph glyph-name="infinity" unicode="&#x221e;" horiz-adv-x="799" 
d="M215 492q58 0 100.5 -27t83.5 -90q41 63 83.5 90t100.5 27q83 0 136 -57q52 -56 52 -147q0 -89 -52 -147q-53 -57 -136 -57q-57 0 -100 27t-84 90q-41 -63 -84 -90t-100 -27q-83 0 -135 57q-52 56 -52 147t52 147q52 57 135 57zM145 288q0 -46 24.5 -75t63.5 -29
q33 0 59 24.5t53 79.5q-27 55 -53 79.5t-59 24.5q-39 0 -63.5 -29.5t-24.5 -74.5zM454 288q27 -55 52.5 -79.5t58.5 -24.5q39 0 63.5 29.5t24.5 74.5q0 46 -24.5 75t-63.5 29q-33 0 -58.5 -24.5t-52.5 -79.5z" />
    <glyph glyph-name="integral" unicode="&#x222b;" horiz-adv-x="415" 
d="M68 -205l23 99q27 -9 51 -9q31 0 51 24.5t20 61.5q0 70 -50 204q-31 84 -44 120.5t-30.5 105.5t-17.5 114q0 89 50 145q51 56 131 56q46 0 94 -15l-23 -99q-25 9 -50 9q-31 0 -51 -24t-20 -62q0 -68 49 -204q31 -84 44 -120.5t30.5 -105.5t17.5 -114q0 -89 -51 -145
q-50 -56 -130 -56q-43 0 -94 15z" />
    <glyph glyph-name="approxequal" unicode="&#x2248;" 
d="M81 100l-58 91q76 58 159 58q40 0 111 -24t101 -24q52 0 101 43l58 -91q-74 -59 -159 -59q-40 0 -111 24t-101 24q-52 0 -101 -42zM81 332l-58 91q76 59 159 59q40 0 111 -24t101 -24q52 0 101 42l58 -91q-74 -58 -159 -58q-40 0 -111 24t-101 24q-52 0 -101 -43z" />
    <glyph glyph-name="notequal" unicode="&#x2260;" 
d="M145 123h-101v108h155l57 114h-212v108h266l68 136l97 -47l-45 -89h102v-108h-156l-57 -114h213v-108h-267l-67 -134l-97 47z" />
    <glyph glyph-name="lessequal" unicode="&#x2264;" 
d="M532 0h-488v108h488v-108zM500 145l-456 208v108l456 208l43 -102l-354 -160l354 -159z" />
    <glyph glyph-name="greaterequal" unicode="&#x2265;" 
d="M76 145l-43 103l354 159l-354 160l43 102l456 -208v-108zM532 0h-488v108h488v-108z" />
    <glyph glyph-name="uni22C5" unicode="&#x22c5;" horiz-adv-x="265" 
d="M52 251q0 35 22.5 57.5t57.5 22.5t57.5 -22.5t22.5 -57.5t-22.5 -57.5t-57.5 -22.5q-34 0 -57 23t-23 57z" />
    <glyph glyph-name="lozenge" unicode="&#x25ca;" 
d="M234 0l-211 336l211 336h108l211 -336l-211 -336h-108zM288 554l-136 -218l136 -219l136 219z" />
    <glyph glyph-name="uniE000" unicode="&#xe000;" horiz-adv-x="490" 
d="M490 0h-490v490h490v-490z" />
    <glyph glyph-name="afii10066.locl" unicode="&#xe700;" horiz-adv-x="553" 
d="M28 205q0 71 37.5 129t103.5 91q-77 51 -77 126q0 69 50.5 111t134.5 42h180v-97h-165q-37 0 -57 -15t-20 -41q0 -27 32 -49.5t77.5 -44.5t91 -50.5t77.5 -79t32 -118.5q0 -96 -70 -159q-71 -62 -179 -62q-109 0 -179 61q-69 61 -69 156zM153 213q0 -55 34.5 -90
t88.5 -35q55 0 89.5 35.5t34.5 90.5q0 95 -129 157q-57 -28 -87.5 -69t-30.5 -89z" />
    <glyph glyph-name="afii10068.alt" unicode="&#xe701;" horiz-adv-x="463" 
d="M36 140q0 53 27 86t65 46.5t76.5 22t65.5 22t27 37.5t-20.5 38.5t-55.5 14.5q-61 0 -142 -31l-27 92q93 34 178 34t139 -42t54 -106q0 -52 -27 -84.5t-65.5 -45.5t-77 -21.5t-65.5 -23t-27 -39.5q0 -26 22 -41.5t58 -15.5q70 0 158 35l28 -91q-103 -39 -196 -39
q-87 0 -141 42q-54 44 -54 110z" />
    <glyph glyph-name="afii10069.alt" unicode="&#xe702;" horiz-adv-x="601" 
d="M260 502q101 0 157 -75l16 63h102v-481q0 -99 -75 -164q-74 -65 -189 -65q-98 0 -208 45l35 95q89 -40 163 -40q65 0 105.5 34.5t40.5 89.5v52q-54 -68 -147 -68q-98 0 -161 72t-63 185t63 185t161 72zM166 245q0 -68 35.5 -112t91.5 -44q51 0 84 35t33 88v66
q0 54 -32.5 88.5t-84.5 34.5q-56 0 -91.5 -43.5t-35.5 -112.5z" />
    <glyph glyph-name="afii10081.alt" unicode="&#xe703;" horiz-adv-x="601" 
d="M193 0h-128v490h102l16 -71q58 83 169 83q84 0 137 -53q54 -52 54 -134v-315h-128v295q0 45 -29 73.5t-73 28.5q-52 0 -86 -35.5t-34 -91.5v-270z" />
    <glyph glyph-name="afii10084.alt" unicode="&#xe704;" horiz-adv-x="919" 
d="M193 0h-128v490h102l16 -67q60 79 161 79q53 0 94.5 -24t62.5 -66q69 90 177 90q79 0 131 -50q52 -49 52 -129v-323h-128v303q0 42 -26.5 68t-68.5 26q-49 0 -80 -33.5t-31 -85.5v-278h-128v303q0 42 -26 68t-68 26q-49 0 -80.5 -33.5t-31.5 -85.5v-278z" />
    <glyph glyph-name="commaaccent.alt" unicode="&#xea01;" horiz-adv-x="240" 
d="M49 616q0 108 109 176l33 -45q-48 -39 -59 -84q24 -1 40.5 -18.5t16.5 -40.5q0 -31 -19 -50t-50 -19t-51 23t-20 58z" />
    <glyph glyph-name="caron.alt" unicode="&#xea02;" horiz-adv-x="240" 
d="M147 533l-84 29l64 181l93 -32z" />
    <glyph glyph-name="ringacute" unicode="&#xea03;" horiz-adv-x="240" 
d="M12 627q0 53 48 85l169 114l52 -76l-87 -49q34 -28 34 -74q0 -44 -29.5 -71t-77.5 -27t-78.5 27t-30.5 71zM121 578q29 -3 41.5 23t0 51.5t-42.5 23.5q-21 0 -35 -14t-14 -36q0 -21 14 -34.5t36 -13.5z" />
    <glyph glyph-name="registered.alt" unicode="&#xec00;" horiz-adv-x="512" 
d="M95 303q-63 63 -63 161t63 161t161 63t161 -63t63 -161t-63 -161t-161 -63t-161 63zM126 593q-50 -52 -50 -130q0 -77 50 -129q52 -50 129 -50q78 0 130 50q51 51 51 129q0 79 -51 130t-130 51q-78 0 -129 -51zM218 344h-49v240h100q37 0 60.5 -21.5t23.5 -54.5
q0 -57 -53 -70l63 -94h-55l-55 85h-35v-85zM218 543v-73h44q24 -2 34.5 17.5t0 38.5t-34.5 17h-44z" />
    <glyph glyph-name="apple" unicode="&#xf8ff;" horiz-adv-x="591" 
d="M238 0h-138v659h391v-65h-326v-529h73v-65zM491 202h-261v65h196v66h-196v195h261v-65h-196v-65h196v-196z" />
    <glyph glyph-name="CR.001" horiz-adv-x="333" 
 />
    </font>
</defs>
</svg>
