<?xml version="1.0" standalone="no"?>
<!DOCTYPE svg PUBLIC "-//W3C//DTD SVG 1.1//EN" "http://www.w3.org/Graphics/SVG/1.1/DTD/svg11.dtd" >
<svg xmlns="http://www.w3.org/2000/svg" xmlns:xlink="http://www.w3.org/1999/xlink" version="1.1">
<metadata>
Created by FontForge 20170731 at Thu Feb 20 08:22:58 2014
 By ,,,
Copyright (c) 2012 by Fontsmith Ltd. All rights reserved.
</metadata>
<defs>
<font id="FSElliotPro-Thin" horiz-adv-x="576" >
  <font-face 
    font-family="FS Elliot Pro"
    font-weight="100"
    font-stretch="normal"
    units-per-em="1000"
    panose-1="2 0 5 3 3 0 0 2 0 4"
    ascent="800"
    descent="-200"
    x-height="481"
    cap-height="672"
    bbox="-164 -259 1180 882"
    underline-thickness="50"
    underline-position="-200"
    unicode-range="U+000D-FB04"
  />
<missing-glyph horiz-adv-x="500" 
d="M488 0h-476v672h476v-672zM60 580v-488l162 244zM250 292l-162 -244h324zM412 624h-324l162 -244zM440 580l-162 -244l162 -244v488z" />
    <glyph glyph-name="f_f" unicode="ff" horiz-adv-x="645" 
d="M142 459h-111v22h111v112q0 53 34.5 88t88.5 35q41 0 82 -12l-5 -22q-39 12 -75 12q-44 0 -72.5 -28.5t-28.5 -73.5v-111h267v112q0 53 34.5 88t88.5 35q42 0 82 -12l-5 -22q-41 12 -75 12q-44 0 -72.5 -28.5t-28.5 -73.5v-111h157v-22h-157v-459h-24v459h-267v-459h-24
v459z" />
    <glyph glyph-name="fi" unicode="fi" horiz-adv-x="534" 
d="M142 459h-111v22h111v92q0 63 42 103t106 40q59 0 131 -24l-7 -21q-72 23 -122 23q-54 0 -90 -34.5t-36 -86.5v-92h275v-481h-24v459h-251v-459h-24v459z" />
    <glyph glyph-name="fl" unicode="fl" horiz-adv-x="582" 
d="M142 459h-111v22h111v92q0 64 41.5 103.5t107.5 39.5q53 0 150 -17v-619q0 -32 19 -51t51 -19q17 0 51 8l5 -22q-40 -8 -58 -8q-43 0 -67.5 24.5t-24.5 67.5v600q-76 14 -126 14q-55 0 -90 -33.5t-35 -87.5v-92h157v-22h-157v-459h-24v459z" />
    <glyph glyph-name="f_f_i" unicode="ffi" horiz-adv-x="825" 
d="M142 459h-111v22h111v112q0 53 34.5 88t88.5 35q41 0 82 -12l-5 -22q-39 12 -75 12q-44 0 -72.5 -28.5t-28.5 -73.5v-111h267v92q0 63 42 103t106 40q59 0 131 -24l-7 -21q-72 23 -123 23q-52 0 -89 -35q-36 -35 -36 -86v-92h275v-481h-24v459h-251v-459h-24v459h-267
v-459h-24v459z" />
    <glyph glyph-name="f_f_l" unicode="ffl" horiz-adv-x="873" 
d="M142 459h-111v22h111v112q0 53 34.5 88t88.5 35q41 0 82 -12l-5 -22q-39 12 -75 12q-44 0 -72.5 -28.5t-28.5 -73.5v-111h267v92q0 64 41.5 103.5t106.5 39.5q54 0 151 -17v-619q0 -32 19 -51t51 -19q17 0 51 8l5 -22q-40 -8 -58 -8q-43 0 -67.5 24.5t-24.5 67.5v600
q-76 14 -126 14q-56 0 -90.5 -33t-34.5 -88v-92h157v-22h-157v-459h-24v459h-267v-459h-24v459z" />
    <glyph glyph-name=".notdef" horiz-adv-x="500" 
d="M488 0h-476v672h476v-672zM60 580v-488l162 244zM250 292l-162 -244h324zM412 624h-324l162 -244zM440 580l-162 -244l162 -244v488z" />
    <glyph glyph-name=".null" horiz-adv-x="0" 
 />
    <glyph glyph-name="nonmarkingreturn" horiz-adv-x="333" 
 />
    <glyph glyph-name="NULL" horiz-adv-x="0" 
 />
    <glyph glyph-name="NULL" horiz-adv-x="0" 
 />
    <glyph glyph-name="CR" unicode="&#xd;" horiz-adv-x="240" 
 />
    <glyph glyph-name="space" unicode=" " horiz-adv-x="240" 
 />
    <glyph glyph-name="exclam" unicode="!" horiz-adv-x="243" 
d="M96 18q0 11 7 18.5t18 7.5q26 0 26 -26t-26 -26q-25 0 -25 26zM111 194l-2 478h25l-2 -478h-21z" />
    <glyph glyph-name="quotedbl" unicode="&#x22;" horiz-adv-x="358" 
d="M88 476l-3 196h25l-3 -196h-19zM252 476l-3 196h25l-3 -196h-19z" />
    <glyph glyph-name="numbersign" unicode="#" horiz-adv-x="641" 
d="M163 204h-147v22h152l42 220h-148v22h152l39 206l22 -2l-38 -204h218l40 206l21 -2l-38 -204h147v-22h-151l-42 -220h147v-22h-151l-40 -206l-21 2l38 204h-219l-39 -206l-22 2zM232 446l-42 -220h219l42 220h-219z" />
    <glyph glyph-name="dollar" unicode="$" 
d="M97 80l8 21q105 -44 182 -44q76 0 121.5 34t45.5 93q0 39 -19.5 66.5t-50.5 42.5t-68.5 26.5t-75.5 24t-69 29t-50.5 46.5t-19.5 73q0 63 48 102t128 42v164h22v-164q70 -3 160 -40l-8 -21q-93 39 -162 39q-74 0 -118.5 -33.5t-44.5 -88.5q0 -52 36.5 -83t88 -46
t103.5 -31t88.5 -52.5t36.5 -95.5q0 -64 -49.5 -105t-130.5 -43v-164h-22v164q-78 1 -180 44z" />
    <glyph glyph-name="percent" unicode="%" horiz-adv-x="864" 
d="M55 504q0 80 43 129q44 51 110 51t110 -51q44 -50 44 -129q0 -78 -44 -130q-44 -50 -110 -50t-110 50q-43 49 -43 130zM76 504q0 -72 37 -116t95 -44q59 0 96 44t37 116q0 71 -37 115.5t-96 44.5q-58 0 -95 -44.5t-37 -115.5zM188 -6l-16 12l504 672l16 -12zM502 168
q0 80 43 129q43 51 110 51t111 -51q43 -49 43 -129q0 -81 -43 -130q-44 -50 -111 -50q-66 0 -110 50q-43 50 -43 130zM523 168q0 -72 37 -116t96 -44q58 0 95 44t37 116q0 71 -37 115.5t-95 44.5q-59 0 -96 -44.5t-37 -115.5z" />
    <glyph glyph-name="ampersand" unicode="&#x26;" horiz-adv-x="626" 
d="M54 177q0 113 169 208q-43 44 -69 79q-28 41 -28 86q0 59 41 96.5t107 37.5q60 0 99.5 -35.5t39.5 -90.5q0 -48 -35 -88.5t-120 -88.5l219 -236q49 82 49 176h22q0 -107 -54 -194l118 -127h-30l-102 109q-93 -121 -216 -121q-92 0 -151 53t-59 136zM78 177q0 -75 52 -121
t135 -46q114 0 199 116l-226 244q-160 -88 -160 -193zM149 549q0 -35 21.5 -68t73.5 -84q79 42 112.5 79.5t33.5 80.5q0 46 -32.5 75.5t-83.5 29.5q-56 0 -90.5 -31t-34.5 -82z" />
    <glyph glyph-name="quotesingle" unicode="'" horiz-adv-x="195" 
d="M88 476l-3 196h25l-3 -196h-19z" />
    <glyph glyph-name="parenleft" unicode="(" horiz-adv-x="322" 
d="M94 288q0 249 165 426l17 -14q-159 -167 -159 -412t159 -412l-17 -14q-165 176 -165 426z" />
    <glyph glyph-name="parenright" unicode=")" horiz-adv-x="322" 
d="M63 -138l-17 14q159 167 159 412t-159 412l17 14q165 -177 165 -426t-165 -426z" />
    <glyph glyph-name="asterisk" unicode="*" horiz-adv-x="481" 
d="M224 472l-170 57l6 19l170 -55v179h21v-179l170 55l7 -19l-171 -57l106 -144l-17 -12l-105 145l-105 -145l-17 12z" />
    <glyph glyph-name="plus" unicode="+" 
d="M277 277h-214v22h214v214h22v-214h214v-22h-214v-214h-22v214z" />
    <glyph glyph-name="comma" unicode="," horiz-adv-x="227" 
d="M58 -160l-10 15q78 59 74 139q-15 -4 -26 4t-11 22q0 12 8 20t20 8q34 0 34 -52q0 -98 -89 -156z" />
    <glyph glyph-name="hyphen" unicode="-" horiz-adv-x="320" 
d="M289 235h-258v22h258v-22z" />
    <glyph glyph-name="period" unicode="." horiz-adv-x="227" 
d="M85 20q0 12 8 20t20 8t20 -8t8 -20q0 -13 -8 -20.5t-20 -7.5t-20 7.5t-8 20.5z" />
    <glyph glyph-name="slash" unicode="/" horiz-adv-x="384" 
d="M50 -132l-21 7l305 833l21 -7z" />
    <glyph glyph-name="zero" unicode="0" 
d="M83 153q-29 81 -29 183q0 104 29 183t82 122q52 43 123 43q69 0 122.5 -43t82.5 -122q29 -81 29 -183q0 -104 -29 -183t-82 -122q-52 -43 -123 -43q-69 0 -122.5 43t-82.5 122zM135 572q-57 -88 -57 -237q0 -147 57 -236q59 -89 153 -89q95 0 152 89q58 88 58 236
q0 149 -58 237q-57 90 -152 90q-94 0 -153 -90z" />
    <glyph glyph-name="one" unicode="1" 
d="M135 531l-11 19l211 122h21v-672h-24v645z" />
    <glyph glyph-name="two" unicode="2" 
d="M474 0h-411v17l290 290q89 89 89 187q0 74 -48 121q-47 47 -124 47q-81 0 -181 -62l-12 20q101 64 195 64q84 0 139 -53q55 -52 55 -136q0 -106 -94 -200l-272 -273h374v-22z" />
    <glyph glyph-name="three" unicode="3" 
d="M69 36l10 21q102 -47 192 -47q79 0 129 44q50 45 50 116q0 72 -59 117q-58 46 -152 46h-33v22h33q87 0 140 43q55 43 55 112q0 67 -45.5 109.5t-117.5 42.5q-86 0 -176 -43l-10 21q97 44 187 44q82 0 134 -49q52 -48 52 -124q0 -61 -38.5 -106t-102.5 -60
q72 -17 114.5 -65t42.5 -111q0 -80 -57 -131q-56 -50 -145 -50q-100 0 -203 48z" />
    <glyph glyph-name="four" unicode="4" 
d="M381 174h-342v19l343 479h22v-476h118v-22h-118v-174h-23v174zM381 633l-314 -437h314v437z" />
    <glyph glyph-name="five" unicode="5" 
d="M78 44l11 20q91 -54 182 -54q89 0 142 49t53 130q0 84 -52.5 132t-144.5 48q-65 0 -151 -20v323h347v-22h-324v-275q71 15 131 15q101 0 159 -54t58 -147q0 -89 -60 -145q-61 -56 -158 -56q-95 0 -193 56z" />
    <glyph glyph-name="six" unicode="6" 
d="M77 289q0 190 66.5 292.5t192.5 102.5q77 0 147 -37l-10 -20q-73 35 -137 35q-117 0 -177.5 -98.5t-57.5 -285.5q18 62 74 101q57 39 130 39q94 0 151 -59q58 -58 58 -154q0 -93 -61 -155q-60 -62 -149 -62q-107 0 -167 78t-60 223zM109 224q0 -95 55 -154
q56 -60 140 -60q79 0 133 56q54 57 54 139q0 87 -51 139t-136 52q-80 0 -138 -50q-57 -50 -57 -122z" />
    <glyph glyph-name="seven" unicode="7" 
d="M447 650h-369v22h396v-17l-284 -655h-26z" />
    <glyph glyph-name="eight" unicode="8" 
d="M69 165q0 69 48 117t133 62q-74 13 -119.5 59.5t-45.5 111.5q0 73 57 121q59 48 146 48q88 0 145 -48q58 -48 58 -121q0 -65 -45.5 -111.5t-119.5 -59.5q86 -14 133.5 -62t47.5 -117q0 -79 -61 -128t-158 -49t-158 49t-61 128zM93 166q0 -70 54 -113q55 -43 141 -43
q87 0 141 43.5t54 112.5q0 67 -52 111t-143 56q-91 -12 -143 -56t-52 -111zM109 514q0 -64 48.5 -105.5t130.5 -53.5q82 12 130.5 53.5t48.5 105.5t-51 106t-128 42t-128 -42t-51 -106z" />
    <glyph glyph-name="nine" unicode="9" 
d="M62 467q0 93 60 154q62 63 150 63q107 0 167 -78t60 -223q0 -190 -66.5 -292.5t-192.5 -102.5q-77 0 -147 37l10 20q73 -35 137 -35q117 0 177.5 98.5t57.5 285.5q-18 -62 -75 -101q-56 -39 -129 -39q-94 0 -152 58q-57 58 -57 155zM85 467q0 -87 51.5 -139t135.5 -52
q82 0 138 50q57 50 57 122q0 95 -55 154q-56 60 -140 60q-79 0 -133 -57q-54 -55 -54 -138z" />
    <glyph glyph-name="colon" unicode=":" horiz-adv-x="243" 
d="M93 20q0 12 8 20t20 8q13 0 20.5 -8t7.5 -20q0 -28 -28 -28q-12 0 -20 7.5t-8 20.5zM93 461q0 12 8 20t20 8q13 0 20.5 -8t7.5 -20q0 -28 -28 -28q-12 0 -20 7.5t-8 20.5z" />
    <glyph glyph-name="semicolon" unicode=";" horiz-adv-x="243" 
d="M66 -160l-10 15q78 57 74 139q-15 -4 -26 4t-11 22q0 12 8 20t20 8q34 0 34 -52q0 -46 -23.5 -87t-65.5 -69zM93 461q0 12 8 20t20 8q13 0 20.5 -8t7.5 -20q0 -28 -28 -28q-12 0 -20 7.5t-8 20.5z" />
    <glyph glyph-name="less" unicode="&#x3c;" 
d="M507 69l-444 208v22l444 208l9 -21l-423 -198l423 -198z" />
    <glyph glyph-name="equal" unicode="=" 
d="M513 179h-450v23h450v-23zM513 374h-450v23h450v-23z" />
    <glyph glyph-name="greater" unicode="&#x3e;" 
d="M69 69l-9 21l423 198l-423 198l9 21l444 -208v-22z" />
    <glyph glyph-name="question" unicode="?" horiz-adv-x="449" 
d="M51 604l-12 20q85 60 177 60q79 0 128 -49q51 -48 51 -124q0 -40 -18 -75.5t-44 -62t-52 -52.5t-44 -56.5t-18 -62.5v-8h-21v9q0 35 18 67.5t43 58.5t50.5 52t43.5 59t18 70q0 65 -44 109q-43 43 -112 43q-82 0 -164 -58zM209 44q25 0 25 -26t-25 -26t-25 26t25 26z" />
    <glyph glyph-name="at" unicode="@" horiz-adv-x="961" 
d="M62 240q0 195 121 320t310 125q173 3 290.5 -111.5t115.5 -284.5q0 -120 -47 -194q-46 -73 -124 -73q-42 0 -70 27t-28 69q-46 -96 -154 -96q-80 0 -133 62t-53 156t53 156t133 62q108 0 152 -95l3 85h20v-317q0 -39 21 -63t57 -24q67 0 107 67q41 68 41 177
q2 162 -108 270t-276 105q-177 3 -294 -118.5t-114 -304.5q0 -186 114.5 -304t293.5 -118q115 0 251 73l11 -18q-142 -77 -262 -77q-185 -3 -309.5 125t-121.5 319zM314 240q0 -86 46 -141t118 -55q67 0 108 44q42 45 42 113v78q0 70 -41 114t-109 44q-72 0 -118 -55
t-46 -142z" />
    <glyph glyph-name="A" unicode="A" horiz-adv-x="658" 
d="M64 0h-27l280 672h24l279 -672h-26l-88 212h-354zM329 639l-168 -405h336z" />
    <glyph glyph-name="B" unicode="B" horiz-adv-x="641" 
d="M381 0h-264v672h248q80 0 131 -48q51 -46 51 -121q0 -54 -30.5 -96t-83.5 -61q65 -14 101.5 -59.5t36.5 -109.5q0 -79 -54 -129q-53 -48 -136 -48zM141 333v-311h238q75 0 121 43q47 44 47 113q0 68 -47 112q-46 43 -121 43h-238zM141 650v-295h223q70 0 114.5 41.5
t44.5 105.5q0 66 -45 106q-44 42 -114 42h-223z" />
    <glyph glyph-name="C" unicode="C" horiz-adv-x="641" 
d="M377 684q110 0 210 -70l-12 -20q-94 68 -197 68q-129 0 -210 -91q-81 -90 -81 -235q0 -144 81 -236q81 -90 210 -90q103 0 197 68l12 -20q-100 -70 -210 -70q-139 0 -227 97t-88 251t88 251t227 97z" />
    <glyph glyph-name="D" unicode="D" horiz-adv-x="706" 
d="M307 0h-190v672h190q151 0 244 -93t93 -243q2 -147 -93.5 -242.5t-243.5 -93.5zM142 650v-628h164q138 0 225.5 88t87.5 226t-87.5 226t-225.5 88h-164z" />
    <glyph glyph-name="E" unicode="E" horiz-adv-x="593" 
d="M530 0h-413v672h397v-22h-372v-295h340v-22h-340v-311h388v-22z" />
    <glyph glyph-name="F" unicode="F" horiz-adv-x="577" 
d="M142 0h-25v672h397v-22h-372v-319h340v-22h-340v-309z" />
    <glyph glyph-name="G" unicode="G" horiz-adv-x="690" 
d="M62 336q0 154 89.5 251t233.5 97q106 0 218 -64l-11 -20q-109 62 -206 62q-133 0 -216.5 -91t-83.5 -235q-2 -140 86 -234t221 -92q99 0 195 45v247h-189v22h212v-284q-108 -52 -218 -52q-144 -2 -238.5 97t-92.5 251z" />
    <glyph glyph-name="H" unicode="H" horiz-adv-x="754" 
d="M142 0h-25v672h25v-317h470v317h24v-672h-24v333h-470v-333z" />
    <glyph glyph-name="I" unicode="I" horiz-adv-x="259" 
d="M142 0h-25v672h25v-672z" />
    <glyph glyph-name="J" unicode="J" horiz-adv-x="433" 
d="M31 4l6 22q54 -16 110 -16q64 0 104.5 40.5t40.5 105.5v516h24v-517q0 -74 -47 -121q-46 -46 -120 -46q-53 0 -118 16z" />
    <glyph glyph-name="K" unicode="K" horiz-adv-x="643" 
d="M141 0h-24v672h24v-396l401 396h33l-319 -314l334 -358h-32l-319 341l-98 -96v-245z" />
    <glyph glyph-name="L" unicode="L" horiz-adv-x="529" 
d="M497 0h-380v672h25v-650h355v-22z" />
    <glyph glyph-name="M" unicode="M" horiz-adv-x="842" 
d="M141 0h-24v672h26l278 -375l277 375h26v-672h-23v637l-271 -368h-18l-271 368v-637z" />
    <glyph glyph-name="N" unicode="N" horiz-adv-x="754" 
d="M141 0h-24v672h26l470 -637v637h23v-672h-26l-469 637v-637z" />
    <glyph glyph-name="O" unicode="O" horiz-adv-x="754" 
d="M377 684q136 2 226.5 -97.5t88.5 -250.5q2 -151 -88.5 -250.5t-226.5 -97.5q-139 0 -227 97.5t-88 250.5t88 250.5t227 97.5zM124 504q-37 -73 -37 -168q0 -93 37 -168t103 -117q67 -41 150 -41q84 0 150 41.5t103 115.5t37 169q0 93 -37 168t-103 116q-66 42 -150 42
t-150 -41.5t-103 -116.5z" />
    <glyph glyph-name="P" unicode="P" horiz-adv-x="609" 
d="M141 0h-24v672h228q92 0 151 -56t59 -142q0 -87 -59 -143q-58 -55 -151 -55h-204v-276zM141 650v-351h203q82 0 134 49q53 50 53 126q0 77 -53 127q-52 49 -134 49h-203z" />
    <glyph glyph-name="Q" unicode="Q" horiz-adv-x="754" 
d="M377 684q136 2 226.5 -97.5t88.5 -250.5q0 -106 -44.5 -188t-123.5 -124l183 -135l-14 -18l-192 141q-60 -24 -124 -24q-139 0 -227 97.5t-88 250.5t88 250.5t227 97.5zM124 504q-37 -73 -37 -168q0 -93 37 -168t103 -117q67 -41 150 -41q84 0 150 41.5t103 115.5t37 169
q0 93 -37 168t-103 116q-66 42 -150 42t-150 -41.5t-103 -116.5z" />
    <glyph glyph-name="R" unicode="R" horiz-adv-x="641" 
d="M141 0h-24v672h228q91 0 146 -54q57 -52 57 -136q0 -79 -52 -131q-51 -52 -134 -57l210 -294h-29l-208 292h-194v-292zM141 650v-335h203q80 0 129 46q50 47 50 121t-50 121t-129 47h-203z" />
    <glyph glyph-name="S" unicode="S" horiz-adv-x="569" 
d="M62 40l8 21q130 -51 214 -51q90 0 144.5 41t54.5 107q0 46 -23 78t-60 49.5t-81.5 31.5t-88.5 28t-81 33.5t-60 54.5t-23 85q0 74 60 120q61 46 159 46q89 0 198 -44l-8 -21q-104 43 -190 43q-87 0 -141 -40t-54 -104q0 -51 31 -86t77 -50.5t100.5 -33t100.5 -35.5
t77 -57.5t31 -97.5q0 -77 -61 -123q-62 -47 -161 -47q-100 0 -223 52z" />
    <glyph glyph-name="T" unicode="T" horiz-adv-x="593" 
d="M284 650h-253v22h530v-22h-253v-650h-24v650z" />
    <glyph glyph-name="U" unicode="U" horiz-adv-x="754" 
d="M109 249v423h25v-423q0 -105 69 -172q68 -67 174 -67t174 67q69 67 69 172v423h24v-423q0 -114 -76 -187.5t-191 -73.5q-116 0 -192 73t-76 188z" />
    <glyph glyph-name="V" unicode="V" horiz-adv-x="658" 
d="M317 0l-280 672h27l265 -638l265 638h26l-279 -672h-24z" />
    <glyph glyph-name="W" unicode="W" horiz-adv-x="994" 
d="M266 0l-217 672h26l204 -638l205 638h26l204 -638l205 638h25l-216 -672h-26l-205 638l-205 -638h-26z" />
    <glyph glyph-name="X" unicode="X" horiz-adv-x="666" 
d="M82 0h-29l265 344l-253 328h29l239 -310l239 310h29l-253 -328l265 -344h-29l-251 326z" />
    <glyph glyph-name="Y" unicode="Y" horiz-adv-x="579" 
d="M277 302l-248 370h29l231 -347l232 347h28l-247 -370v-302h-25v302z" />
    <glyph glyph-name="Z" unicode="Z" horiz-adv-x="617" 
d="M555 0h-493v16l448 634h-436v22h469v-17l-447 -633h459v-22z" />
    <glyph glyph-name="bracketleft" unicode="[" horiz-adv-x="322" 
d="M276 -129h-151v834h151v-22h-128v-790h128v-22z" />
    <glyph glyph-name="backslash" unicode="\" horiz-adv-x="384" 
d="M334 -132l-305 833l21 7l305 -833z" />
    <glyph glyph-name="bracketright" unicode="]" horiz-adv-x="322" 
d="M47 -129v22h127v790h-127v22h150v-834h-150z" />
    <glyph glyph-name="asciicircum" unicode="^" 
d="M90 218l-21 9l208 445h22l208 -445l-21 -9l-198 423z" />
    <glyph glyph-name="underscore" unicode="_" horiz-adv-x="480" 
d="M0 -139v22h480v-22h-480z" />
    <glyph glyph-name="grave" unicode="`" horiz-adv-x="240" 
d="M153 571l-155 101l13 19l153 -105z" />
    <glyph glyph-name="a" unicode="a" horiz-adv-x="522" 
d="M55 125q0 75 57 116t159 41q65 0 126 -16v76q0 57 -39.5 93t-101.5 36q-77 0 -162 -35l-8 20q87 37 171 37q72 0 117.5 -42t45.5 -109v-278q0 -25 14.5 -39.5t40.5 -14.5q11 0 28 4l4 -22q-23 -4 -35 -4q-34 0 -54 20.5t-20 54.5v38q-23 -52 -72 -82.5t-110 -30.5
q-68 0 -115 39q-46 40 -46 98zM79 126q0 -49 40 -83t99 -34q80 0 129 51q50 52 50 132v54q-61 16 -125 16q-91 0 -142 -36t-51 -100z" />
    <glyph glyph-name="b" unicode="b" horiz-adv-x="563" 
d="M114 0h-20v704h24v-324q25 54 71 83.5t106 29.5q93 0 153 -71q60 -70 60 -182q0 -110 -60 -181t-153 -71q-60 0 -106.5 29.5t-71.5 83.5zM118 287v-94q0 -82 49 -132q49 -51 126 -51q83 0 137 65t54 165q0 102 -54 166q-54 65 -137 65q-77 0 -126 -52q-49 -50 -49 -132z
" />
    <glyph glyph-name="c" unicode="c" horiz-adv-x="481" 
d="M55 240q0 112 63 182q65 71 163 71q81 0 155 -53l-12 -19q-68 50 -142 50q-89 0 -146 -65q-57 -64 -57 -166t57 -166t146 -64q74 0 142 49l12 -19q-73 -52 -155 -52q-99 0 -163 70q-63 70 -63 182z" />
    <glyph glyph-name="d" unicode="d" horiz-adv-x="563" 
d="M55 240q0 112 60 182q60 71 152 71q61 0 107 -29.5t71 -83.5v324h24v-704h-20l-3 101q-25 -54 -71.5 -83.5t-107.5 -29.5q-92 0 -152 71t-60 181zM79 240q0 -100 54 -165t137 -65q76 0 126 51q49 50 49 132v94q0 82 -49 132q-49 52 -126 52q-83 0 -137 -65
q-54 -64 -54 -166z" />
    <glyph glyph-name="e" unicode="e" horiz-adv-x="522" 
d="M55 240q0 112 61 182q62 71 157 71q90 0 146 -68q57 -67 57 -175q0 -11 -1 -14h-397q3 -102 61 -164q59 -62 151 -62q74 0 151 41l11 -19q-86 -44 -163 -44q-103 0 -169 70q-65 71 -65 182zM78 257h374q-2 96 -51 154q-50 60 -128 60q-83 0 -137 -59q-54 -60 -58 -155z
" />
    <glyph glyph-name="f" unicode="f" horiz-adv-x="354" 
d="M142 459h-111v22h111v112q0 53 34.5 88t88.5 35q41 0 82 -12l-5 -22q-39 12 -75 12q-44 0 -72.5 -28.5t-28.5 -73.5v-111h157v-22h-157v-459h-24v459z" />
    <glyph glyph-name="g" unicode="g" horiz-adv-x="563" 
d="M55 240q0 112 60 182q60 71 152 71q61 0 107.5 -29.5t71.5 -83.5l3 101h20v-510q0 -84 -60 -137q-59 -54 -152 -54q-78 0 -171 40l9 21q90 -39 161 -39q83 0 136 47t53 122v130q-25 -54 -71 -83.5t-107 -29.5q-92 0 -152 71t-60 181zM79 240q0 -100 54 -165t137 -65
q76 0 126 51q49 50 49 132v94q0 82 -49 132q-49 52 -126 52q-83 0 -137 -65q-54 -64 -54 -166z" />
    <glyph glyph-name="h" unicode="h" horiz-adv-x="563" 
d="M118 0h-24v704h24v-332q23 57 71 89t111 32q78 0 127 -49q50 -48 50 -124v-320h-24v318q0 67 -44 109q-43 43 -112 43q-77 0 -128 -54q-51 -52 -51 -137v-279z" />
    <glyph glyph-name="i" unicode="i" horiz-adv-x="212" 
d="M80 639q0 25 26 25t26 -25t-26 -25t-26 25zM118 0h-24v481h24v-481z" />
    <glyph glyph-name="j" unicode="j" horiz-adv-x="220" 
d="M-80 -208l5 22q42 -12 75 -12q45 0 73.5 28.5t28.5 73.5v577h24v-578q0 -54 -34.5 -88.5t-88.5 -34.5q-40 0 -83 12zM88 639q0 25 26 25t26 -25t-26 -25t-26 25z" />
    <glyph glyph-name="k" unicode="k" horiz-adv-x="484" 
d="M117 0h-23v704h23v-500l282 277h32l-229 -225l237 -256h-31l-222 241l-69 -67v-174z" />
    <glyph glyph-name="l" unicode="l" horiz-adv-x="260" 
d="M94 80v624h24v-624q0 -32 19 -51t51 -19q15 0 52 8l4 -22q-38 -8 -58 -8q-43 0 -67.5 24.5t-24.5 67.5z" />
    <glyph glyph-name="m" unicode="m" horiz-adv-x="890" 
d="M118 0h-24v481h20l3 -105q21 55 67.5 86t107.5 31q62 0 106 -34t58 -92q23 60 70 93t109 33q74 0 121 -47q48 -46 48 -118v-328h-24v326q0 63 -41.5 103.5t-106.5 40.5q-74 0 -123 -52q-48 -51 -48 -131v-287h-24v326q0 63 -41.5 103.5t-106.5 40.5q-74 0 -123 -52
q-48 -51 -48 -131v-287z" />
    <glyph glyph-name="n" unicode="n" horiz-adv-x="563" 
d="M118 0h-24v481h20l3 -109q22 57 71 89t112 32q78 0 127 -49q50 -48 50 -124v-320h-24v318q0 67 -44 109q-43 43 -112 43q-77 0 -128 -54q-51 -52 -51 -137v-279z" />
    <glyph glyph-name="o" unicode="o" horiz-adv-x="563" 
d="M55 240q0 112 63 182q65 71 163 71t163 -71q64 -70 64 -182t-64 -182t-163 -70t-163 70q-63 70 -63 182zM79 240q0 -101 56 -166q55 -64 145 -64t147 64q57 65 57 166q0 102 -57 166q-57 65 -147 65q-89 0 -145 -65t-56 -166z" />
    <glyph glyph-name="p" unicode="p" horiz-adv-x="563" 
d="M118 -208h-24v689h20l3 -101q25 54 71.5 83.5t106.5 29.5q93 0 153 -71q60 -70 60 -182q0 -110 -60 -181t-153 -71q-60 0 -106 29.5t-71 83.5v-309zM118 287v-94q0 -82 49 -132q49 -51 126 -51q83 0 137 65t54 165q0 102 -54 166q-54 65 -137 65q-77 0 -126 -52
q-49 -50 -49 -132z" />
    <glyph glyph-name="q" unicode="q" horiz-adv-x="563" 
d="M55 240q0 112 60 182q60 71 152 71q61 0 107.5 -29.5t71.5 -83.5l3 101h20v-689h-24v309q-25 -54 -71 -83.5t-107 -29.5q-92 0 -152 71t-60 181zM79 240q0 -100 54 -165t137 -65q76 0 126 51q49 50 49 132v94q0 82 -49 132q-49 52 -126 52q-83 0 -137 -65
q-54 -64 -54 -166z" />
    <glyph glyph-name="r" unicode="r" horiz-adv-x="363" 
d="M118 0h-24v481h20l3 -110q16 55 58.5 86.5t100.5 31.5q31 0 64 -9l-6 -22q-31 9 -59 9q-69 0 -113 -54q-44 -55 -44 -139v-274z" />
    <glyph glyph-name="s" unicode="s" horiz-adv-x="434" 
d="M55 24l7 21q85 -35 154 -35q63 0 101.5 28.5t38.5 75.5q0 37 -22 62t-55 36t-71.5 24t-71.5 25.5t-55 40.5t-22 69q0 54 44 88t114 34q69 0 147 -32l-8 -21q-72 31 -138 31q-61 0 -98.5 -27.5t-37.5 -72.5q0 -36 22 -60.5t55 -35t72 -23.5t72 -26t55 -41.5t22 -70.5
q0 -56 -45 -91t-118 -35q-75 0 -162 36z" />
    <glyph glyph-name="t" unicode="t" horiz-adv-x="386" 
d="M142 459h-111v22h111v144h24v-144h173v-22h-173v-347q0 -45 28.5 -73.5t72.5 -28.5q35 0 75 12l5 -22q-43 -12 -82 -12q-54 0 -88.5 34.5t-34.5 88.5v348z" />
    <glyph glyph-name="u" unicode="u" horiz-adv-x="563" 
d="M86 161v320h24v-318q0 -66 44 -110q43 -43 112 -43q77 0 128 53q51 54 51 138v280h24v-481h-20l-3 109q-23 -57 -71.5 -89t-111.5 -32q-77 0 -127 48q-50 50 -50 125z" />
    <glyph glyph-name="v" unicode="v" horiz-adv-x="499" 
d="M238 0l-200 481h25l186 -450l187 450h25l-200 -481h-23z" />
    <glyph glyph-name="w" unicode="w" horiz-adv-x="755" 
d="M205 0l-159 481h25l147 -448l147 448h25l147 -448l147 448h25l-159 -481h-25l-148 448l-147 -448h-25z" />
    <glyph glyph-name="x" unicode="x" horiz-adv-x="499" 
d="M74 0h-29l189 246l-181 235h29l167 -217l168 217h29l-181 -235l189 -246h-29l-176 229z" />
    <glyph glyph-name="y" unicode="y" horiz-adv-x="499" 
d="M32 -212l5 22q34 -8 52 -8q40 0 66.5 26t50.5 88l35 86l-203 479h25l190 -450l183 450h25l-234 -574q-28 -70 -58.5 -98.5t-78.5 -28.5q-20 0 -58 8z" />
    <glyph glyph-name="z" unicode="z" horiz-adv-x="466" 
d="M412 0h-357v16l315 443h-307v22h341v-16l-316 -443h324v-22z" />
    <glyph glyph-name="braceleft" unicode="{" horiz-adv-x="322" 
d="M62 277h-16v22h16q42 0 68 28.5t26 73.5q0 22 -8 88q-7 57 -7 92q0 54 33.5 89t82.5 35h19v-22h-16q-42 0 -69 -28.5t-27 -74.5q0 -22 8 -88t8 -92q0 -40 -19 -70t-54 -42q35 -12 54 -42t19 -70q0 -25 -8 -91t-8 -89q0 -46 27 -74.5t69 -28.5h16v-22h-19q-49 0 -82.5 35
t-33.5 89q0 34 7 90q8 66 8 90q0 45 -26 73.5t-68 28.5z" />
    <glyph glyph-name="bar" unicode="|" horiz-adv-x="240" 
d="M131 -224h-22v960h22v-960z" />
    <glyph glyph-name="braceright" unicode="}" horiz-adv-x="322" 
d="M47 -129v22h16q41 0 68 28.5t27 74.5q0 22 -8 88q-7 57 -7 92q0 40 19 70t53 42q-34 12 -53 42t-19 70q0 34 7 91q8 66 8 89q0 46 -27 74.5t-68 28.5h-16v22h18q50 0 83 -35t33 -89q0 -25 -8 -91q-7 -56 -7 -89q0 -45 26 -73.5t68 -28.5h16v-22h-16q-42 0 -68 -28.5
t-26 -73.5q0 -32 7 -89q8 -66 8 -91q0 -54 -33 -89t-83 -35h-18z" />
    <glyph glyph-name="asciitilde" unicode="~" 
d="M75 255l-14 18q56 50 130 50q41 0 98.5 -24t95.5 -24q64 0 116 46l14 -18q-56 -50 -130 -50q-35 0 -99 24t-95 24q-64 0 -116 -46z" />
    <glyph glyph-name="nbspace" unicode="&#xa0;" horiz-adv-x="240" 
 />
    <glyph glyph-name="exclamdown" unicode="&#xa1;" horiz-adv-x="243" 
d="M121 489q25 0 25 -26t-25 -26q-16 0 -22 13t0 26t22 13zM134 -191h-25l2 478h21z" />
    <glyph glyph-name="cent" unicode="&#xa2;" 
d="M309 588v148h22v-148q81 0 152 -52l-12 -19q-67 49 -141 49q-91 0 -148 -64q-56 -65 -56 -166t56 -166q57 -64 148 -64q74 0 141 49l12 -19q-73 -52 -152 -52v-148h-22v148q-92 8 -150 76q-57 70 -57 176t57 175q58 69 150 77z" />
    <glyph glyph-name="sterling" unicode="&#xa3;" 
d="M513 0h-434v22h110v311h-94v22h94v162q0 74 50 121q49 46 129 46q62 0 131 -28l-8 -21q-63 27 -121 27q-70 0 -113.5 -40t-43.5 -105v-162h206v-22h-206v-311h300v-22z" />
    <glyph glyph-name="currency" unicode="&#xa4;" 
d="M91 124l-15 15l82 83q-41 47 -41 114q0 68 40 114l-81 83l15 15l82 -82q47 41 115 41q67 0 114 -41l83 82l15 -15l-82 -83q41 -47 41 -114q0 -65 -41 -114l82 -83l-15 -15l-83 82q-46 -40 -114 -40t-114 40zM139 336q0 -65 42 -106.5t107 -41.5q66 0 107.5 41.5
t41.5 106.5t-41.5 107t-107.5 42q-65 0 -107 -42t-42 -107z" />
    <glyph glyph-name="yen" unicode="&#xa5;" 
d="M268 346l-216 326h28l208 -316l207 316h29l-216 -326h173v-21h-181v-124h181v-21h-181v-180h-24v180h-181v21h181v124h-181v21h173z" />
    <glyph glyph-name="brokenbar" unicode="&#xa6;" horiz-adv-x="240" 
d="M131 -176h-22v384h22v-384zM131 304h-22v384h22v-384z" />
    <glyph glyph-name="section" unicode="&#xa7;" horiz-adv-x="514" 
d="M57 -128l7 21q105 -44 184 -44q78 0 123.5 34t45.5 93q0 39 -19.5 66.5t-51 42.5t-69.5 27l-76 24t-69.5 29t-51 47t-19.5 73q0 44 26 77.5t72 49.5q-82 40 -82 128q0 64 52 104t136 40q79 0 174 -40l-7 -21q-95 39 -166 39q-75 0 -120 -34t-45 -88q0 -26 10 -47
t23.5 -34t39 -25.5t43.5 -18.5t51 -16t49 -16q88 -28 121 -78q20 -32 20 -74q0 -43 -24.5 -76.5t-68.5 -51.5q77 -44 77 -127q1 -68 -53 -108.5t-140 -39.5t-192 44zM85 285q0 -77 88 -115q27 -11 53 -19q76 -21 113 -36q44 14 69 44.5t25 71.5q0 78 -85 115q-25 12 -51 19
q-54 16 -109 34q-48 -12 -75.5 -42t-27.5 -72z" />
    <glyph glyph-name="dieresis" unicode="&#xa8;" horiz-adv-x="240" 
d="M5 621q-11 10 -6.5 24.5t17.5 18.5t25 -7q17 -17 -1 -35t-35 -1zM199 621q-11 10 -6.5 24.5t17.5 18.5t25 -7q17 -17 -1 -35t-35 -1z" />
    <glyph glyph-name="copyright" unicode="&#xa9;" horiz-adv-x="832" 
d="M95 145q-47 85 -47 190q0 107 46.5 190.5t131.5 131.5q85 47 190 47t189.5 -47t131.5 -131q47 -85 47 -191q0 -105 -47 -189t-131 -131q-85 -47 -190 -47t-189.5 46.5t-131.5 130.5zM93 477q-25 -65 -25 -141t25 -141q52 -130 182 -182q65 -25 141 -25t141 25
q132 53 181 182q26 65 26 141t-26 141q-50 131 -181 181q-65 26 -141 26t-141 -26q-129 -49 -182 -181zM428 552q67 0 132 -44l-12 -17q-55 40 -119 40q-79 0 -128 -55q-49 -53 -49 -140q0 -86 49 -141t128 -55q61 0 119 41l12 -17q-65 -44 -132 -44q-88 0 -143 60
q-54 62 -54 156q0 95 54 155q55 61 143 61z" />
    <glyph glyph-name="ordfeminine" unicode="&#xaa;" horiz-adv-x="373" 
d="M342 246h-311v19h311v-19zM45 437q0 49 39 76.5t106 27.5q35 0 82 -10v42q0 39 -25.5 63.5t-66.5 24.5q-54 0 -107 -24l-7 18q57 25 115 25q49 0 80.5 -30t31.5 -77v-176q0 -15 9 -24t24 -9q1 0 4 0.5t8 1t9 0.5l3 -20q-22 -2 -26 -2q-23 0 -37.5 14.5t-14.5 37.5v18
q-36 -70 -118 -70q-48 0 -78.5 26t-30.5 67zM67 437q0 -32 25 -53t63 -21q50 0 83.5 32t33.5 81v37q-49 9 -82 9q-58 0 -90.5 -22t-32.5 -63z" />
    <glyph glyph-name="guillemotleft" unicode="&#xab;" horiz-adv-x="487" 
d="M229 21l-197 218v15l197 218l15 -13l-187 -213l187 -212zM425 21l-197 218v15l197 218l15 -13l-187 -213l187 -212z" />
    <glyph glyph-name="logicalnot" unicode="&#xac;" 
d="M491 277h-428v22h450v-236h-22v214z" />
    <glyph glyph-name="uni00AD" unicode="&#xad;" horiz-adv-x="320" 
d="M320 235h-258v22h258v-22z" />
    <glyph glyph-name="registered" unicode="&#xae;" horiz-adv-x="832" 
d="M95 145q-47 85 -47 190q0 107 46.5 190.5t131.5 131.5q85 47 190 47t189.5 -47t131.5 -131q47 -85 47 -191q0 -105 -47 -189t-131 -131q-85 -47 -190 -47t-189.5 46.5t-131.5 130.5zM93 477q-25 -65 -25 -141t25 -141q52 -130 182 -182q65 -25 141 -25t141 25
q132 53 181 182q26 65 26 141t-26 141q-50 131 -181 181q-65 26 -141 26t-141 -26q-129 -49 -182 -181zM315 128h-22v416h145q56 0 92 -33t36 -86q0 -50 -31 -82t-82 -36l127 -179h-26l-124 178h-115v-178zM315 524v-198h122q48 0 77.5 27t29.5 72q0 44 -29.5 71.5
t-77.5 27.5h-122z" />
    <glyph glyph-name="overscore" unicode="&#xaf;" horiz-adv-x="240" 
d="M257 629h-274v21h274v-21z" />
    <glyph glyph-name="degree" unicode="&#xb0;" horiz-adv-x="321" 
d="M85 498q-30 30 -30 76q0 48 30 76q30 30 76 30q47 0 76 -30q30 -28 30 -76q0 -46 -30 -76q-29 -30 -76 -30q-46 0 -76 30zM99 636q-24 -24 -24 -62t24 -62t62 -24t62 24t24 62t-24 62t-62 24t-62 -24z" />
    <glyph glyph-name="plusminus" unicode="&#xb1;" 
d="M513 0h-450v22h450v-22zM277 330h-214v22h214v214h22v-214h214v-22h-214v-214h-22v214z" />
    <glyph glyph-name="twosuperior" unicode="&#xb2;" horiz-adv-x="338" 
d="M285 384h-257v15l177 178q53 53 53 110q0 45 -27.5 72.5t-73.5 27.5q-52 0 -112 -36l-10 17q64 40 123 40q54 0 88 -33.5t34 -85.5q0 -67 -59 -124l-160 -161h224v-20z" />
    <glyph glyph-name="threesuperior" unicode="&#xb3;" horiz-adv-x="338" 
d="M34 407l10 19q57 -30 113 -30q48 0 77.5 26.5t29.5 67.5q0 44 -34.5 70.5t-90.5 26.5h-22v20h22q51 0 83 25.5t32 66.5q0 40 -26.5 64.5t-70.5 24.5q-54 0 -108 -27l-8 19q56 28 118 28q51 0 84 -30t33 -78q0 -37 -22.5 -65t-60.5 -37q42 -11 67.5 -41t25.5 -68
q0 -51 -35 -82t-92 -31q-64 0 -125 31z" />
    <glyph glyph-name="acute" unicode="&#xb4;" horiz-adv-x="240" 
d="M88 571l-11 15l153 105l13 -19z" />
    <glyph glyph-name="uni00B5" unicode="&#xb5;" horiz-adv-x="587" 
d="M118 -208h-24v689h24v-318q0 -68 43.5 -110.5t112.5 -42.5q77 0 128 53q51 54 51 138v280h24v-416q0 -55 55 -55q11 0 28 4l4 -22q-23 -4 -35 -4q-34 0 -54.5 20t-20.5 55v46q-22 -57 -70 -89t-111 -32q-52 0 -93 24t-62 68v-288z" />
    <glyph glyph-name="paragraph" unicode="&#xb6;" horiz-adv-x="563" 
d="M264 672h181v-832h-22v810h-111v-366h-48q-92 0 -151 55q-59 56 -59 139q0 85 59 139q59 55 151 55z" />
    <glyph glyph-name="middot" unicode="&#xb7;" horiz-adv-x="227" 
d="M85 247q0 12 8 20t20 8t20 -8t8 -20q0 -13 -8 -20.5t-20 -7.5t-20 7.5t-8 20.5z" />
    <glyph glyph-name="cedilla" unicode="&#xb8;" horiz-adv-x="240" 
d="M30 -201l7 19q38 -15 73 -15q30 0 50 15.5t20 39.5t-19.5 39t-50.5 15h-9l16 88h22l-13 -70q33 -2 55 -23t22 -50q0 -32 -26.5 -53t-65.5 -21q-45 0 -81 16z" />
    <glyph glyph-name="onesuperior" unicode="&#xb9;" horiz-adv-x="261" 
d="M36 706l-10 18l131 76h18v-416h-21v391z" />
    <glyph glyph-name="ordmasculine" unicode="&#xba;" horiz-adv-x="396" 
d="M88 391q-43 46 -43 121t43 121q44 47 110 47t110 -47q43 -46 43 -121t-43 -121q-44 -47 -110 -47t-110 47zM349 246h-302v19h302v-19zM67 512q0 -65 37 -106.5t94 -41.5q58 0 94.5 41.5t36.5 106.5q0 66 -36.5 107t-94.5 41t-94.5 -41t-36.5 -107z" />
    <glyph glyph-name="guillemotright" unicode="&#xbb;" horiz-adv-x="487" 
d="M62 21l-15 13l187 212l-187 213l15 13l197 -218v-15zM258 21l-15 13l187 212l-187 213l15 13l197 -218v-15z" />
    <glyph glyph-name="onequarter" unicode="&#xbc;" horiz-adv-x="960" 
d="M97 578l-10 18l131 76h18v-416h-21v391zM236 -6l-16 12l504 672l16 -12zM823 105h-209v15l209 296h20v-292h73v-19h-73v-105h-20v105zM823 382l-182 -258h182v258z" />
    <glyph glyph-name="onehalf" unicode="&#xbd;" horiz-adv-x="960" 
d="M97 578l-10 18l131 76h18v-416h-21v391zM236 -6l-16 12l504 672l16 -12zM884 0h-257v15l177 178q53 53 53 110q0 45 -27.5 72.5t-73.5 27.5q-54 0 -112 -36l-10 17q62 40 123 40q54 0 88 -33.5t34 -85.5q0 -65 -59 -124l-160 -161h224v-20z" />
    <glyph glyph-name="threequarters" unicode="&#xbe;" horiz-adv-x="960" 
d="M57 279l10 19q57 -30 113 -30q48 0 77.5 26t29.5 68q0 43 -34.5 70t-90.5 27h-22v20h22q51 0 83 25.5t32 66.5q0 40 -26.5 64.5t-70.5 24.5q-54 0 -108 -27l-8 19q56 28 118 28q51 0 84 -30.5t33 -77.5q0 -38 -22.5 -65.5t-60.5 -36.5q42 -11 67.5 -41t25.5 -68
q0 -50 -35 -81.5t-92 -31.5q-66 0 -125 31zM236 -6l-16 12l504 672l16 -12zM823 105h-209v15l209 296h20v-292h73v-19h-73v-105h-20v105zM823 382l-182 -258h182v258z" />
    <glyph glyph-name="questiondown" unicode="&#xbf;" horiz-adv-x="385" 
d="M47 -31q0 40 18 76t43.5 62.5t51.5 52t44 56t18 63.5v8h21v-9q0 -65 -61 -126l-21.5 -21.5t-22.5 -23.5t-19.5 -22.5t-19.5 -26.5t-14 -26t-11 -30t-3 -31q0 -67 43.5 -109.5t112.5 -42.5q80 0 164 57l12 -19q-87 -60 -178 -60q-79 0 -128 49q-50 48 -50 123zM233 489
q25 0 25 -26t-25 -26t-25 26t25 26z" />
    <glyph glyph-name="multiply" unicode="&#xd7;" 
d="M113 98l-15 15l174 175l-174 175l15 15l175 -174l175 174l15 -15l-174 -175l174 -175l-15 -15l-175 174z" />
    <glyph glyph-name="germandbls" unicode="&#xdf;" horiz-adv-x="595" 
d="M117 0h-23v535q0 83 49 132t130 49q71 0 118 -41q46 -40 46 -101q0 -34 -15 -64.5t-32.5 -49t-32.5 -45.5t-15 -55q0 -35 21 -60t51.5 -40t61 -31.5t51.5 -45t21 -69.5q0 -57 -42.5 -91.5t-111.5 -34.5q-58 0 -130 32l8 21q63 -31 121 -31q60 0 96 28t36 76
q0 36 -21 61.5t-51.5 41t-61 31.5t-51.5 44t-21 68q0 31 14.5 59.5t32.5 47t32.5 47t14.5 59.5q0 52 -39 86.5t-101 34.5q-71 0 -113.5 -43t-42.5 -116v-535z" />
    <glyph glyph-name="divide" unicode="&#xf7;" 
d="M513 277h-450v22h450v-22zM272 80q-15 15 1 31t31 1t-1 -31t-31 -1zM272 464q-15 15 1 31t31 1t-1 -31t-31 -1z" />
    <glyph glyph-name="florin" unicode="&#x192;" 
d="M110 0l5 22q41 -12 71 -12q36 0 59 23t23 59v304h-110v21h110v163q0 46 29.5 75t74.5 29q34 0 78 -12l-5 -22q-39 12 -70 12q-36 0 -59.5 -23t-23.5 -59v-163h141v-21h-141v-304q0 -47 -29 -75.5t-75 -28.5q-33 0 -78 12z" />
    <glyph glyph-name="circumflex" unicode="&#x2c6;" horiz-adv-x="240" 
d="M3 573l-14 14l121 118h20l121 -118l-14 -14l-117 111z" />
    <glyph glyph-name="caron" unicode="&#x2c7;" horiz-adv-x="240" 
d="M110 574l-121 118l14 13l117 -110l117 110l14 -13l-121 -118h-20z" />
    <glyph glyph-name="breve" unicode="&#x2d8;" horiz-adv-x="240" 
d="M-11 689h21q3 -45 33.5 -73.5t76.5 -28.5t76.5 28.5t33.5 73.5h21q-3 -54 -40 -88.5t-91 -34.5t-91 34.5t-40 88.5z" />
    <glyph glyph-name="dotaccent" unicode="&#x2d9;" horiz-adv-x="240" 
d="M101 621q-11 11 -5.5 25.5t18 18t24.5 -7.5t7.5 -24.5t-18 -17t-26.5 5.5z" />
    <glyph glyph-name="ring" unicode="&#x2da;" horiz-adv-x="240" 
d="M31 639q0 40 24.5 64.5t64.5 24.5t64.5 -24.5t24.5 -64.5q0 -39 -24 -64t-63 -25q-40 0 -65.5 25t-25.5 64zM122 569q31 0 49.5 19t18.5 51q0 31 -19.5 50.5t-50.5 19.5q-32 0 -51 -19.5t-19 -50.5t20 -50.5t52 -19.5z" />
    <glyph glyph-name="ogonek" unicode="&#x2db;" horiz-adv-x="240" 
d="M8 -143q0 74 112 155l12 -12q-102 -80 -102 -142q0 -25 16 -40t41 -15q22 0 47 11l6 -19q-27 -12 -56 -12q-33 0 -54.5 20.5t-21.5 53.5z" />
    <glyph glyph-name="tilde" unicode="&#x2dc;" horiz-adv-x="240" 
d="M9 609l-20 7q7 24 25.5 39t41.5 15q20 0 65 -20q46 -20 62 -20q35 0 48 40l20 -8q-7 -24 -25 -38.5t-42 -14.5q-20 0 -66 20q-45 20 -61 20t-29 -11t-19 -29z" />
    <glyph glyph-name="hungarumlaut" unicode="&#x2dd;" horiz-adv-x="240" 
d="M24 565l-14 14l134 136l16 -16zM188 565l-13 14l133 136l16 -16z" />
    <glyph glyph-name="commaaccent" unicode="&#x326;" horiz-adv-x="240" 
d="M73 -259l-10 14q65 50 64 118q-14 -3 -23 4t-9 20q0 11 7 18.5t18 7.5q31 0 31 -46q0 -85 -78 -136z" />
    <glyph glyph-name="uni0400" unicode="&#x400;" horiz-adv-x="593" 
d="M530 0h-413v672h397v-22h-372v-295h340v-22h-340v-311h388v-22zM337 762l-155 101l13 19l153 -105z" />
    <glyph glyph-name="afii10023" unicode="&#x401;" horiz-adv-x="593" 
d="M530 0h-413v672h397v-22h-372v-295h340v-22h-340v-311h388v-22zM189 812q-11 10 -6.5 24.5t17.5 18.5t25 -7q17 -17 -1 -35t-35 -1zM383 812q-11 10 -6.5 24.5t17.5 18.5t25 -7q17 -17 -1 -35t-35 -1z" />
    <glyph glyph-name="afii10051" unicode="&#x402;" horiz-adv-x="833" 
d="M268 650h-237v22h530v-22h-269v-311q145 32 246 32q113 0 177 -52.5t64 -141.5q0 -87 -60.5 -138t-165.5 -51q-65 0 -129 16l6 22q55 -16 122 -16q95 0 148.5 44.5t53.5 122.5q0 79 -57 125t-161 46q-108 0 -244 -31v-317h-24v650z" />
    <glyph glyph-name="afii10052" unicode="&#x403;" horiz-adv-x="529" 
d="M142 0h-25v672h380v-22h-355v-650zM264 762l-11 15l153 105l13 -19z" />
    <glyph glyph-name="afii10053" unicode="&#x404;" horiz-adv-x="649" 
d="M377 684q110 0 210 -70l-12 -19q-92 67 -197 67q-127 0 -206 -85q-81 -85 -85 -222h403v-22h-403q1 -144 81 -234q81 -89 210 -89q103 0 197 67l12 -19q-100 -70 -210 -70q-139 0 -227 97t-88 251t88 251t227 97z" />
    <glyph glyph-name="afii10054" unicode="&#x405;" horiz-adv-x="569" 
d="M62 40l8 21q130 -51 214 -51q90 0 144.5 41t54.5 107q0 46 -23 78t-60 49.5t-81.5 31.5t-88.5 28t-81 33.5t-60 54.5t-23 85q0 74 60 120q61 46 159 46q89 0 198 -44l-8 -21q-104 43 -190 43q-87 0 -141 -40t-54 -104q0 -51 31 -86t77 -50.5t100.5 -33t100.5 -35.5
t77 -57.5t31 -97.5q0 -77 -61 -123q-62 -47 -161 -47q-100 0 -223 52z" />
    <glyph glyph-name="afii10055" unicode="&#x406;" horiz-adv-x="259" 
d="M142 0h-25v672h25v-672z" />
    <glyph glyph-name="afii10056" unicode="&#x407;" horiz-adv-x="259" 
d="M15 812q-11 10 -6.5 24.5t17.5 18.5t25 -7q17 -17 -1 -35t-35 -1zM142 0h-25v672h25v-672zM209 812q-11 10 -6.5 24.5t17.5 18.5t25 -7q17 -17 -1 -35t-35 -1z" />
    <glyph glyph-name="afii10057" unicode="&#x408;" horiz-adv-x="433" 
d="M31 4l6 22q54 -16 110 -16q64 0 104.5 40.5t40.5 105.5v516h24v-517q0 -74 -47 -121q-46 -46 -120 -46q-53 0 -118 16z" />
    <glyph glyph-name="afii10058" unicode="&#x409;" horiz-adv-x="1121" 
d="M15 -6l4 22q33 -6 53 -6q65 0 99 44t34 126v492h439v-293h221q88 0 145 -54q57 -52 57 -136q0 -83 -57 -136q-58 -53 -145 -53h-244v650h-392v-471q0 -92 -40.5 -141.5t-115.5 -49.5q-23 0 -58 6zM644 357v-335h220q79 0 128 46q51 47 51 121t-50 121t-129 47h-220z" />
    <glyph glyph-name="afii10059" unicode="&#x40a;" horiz-adv-x="1097" 
d="M141 0h-24v672h24v-309h456v309h23v-309h228q86 0 141 -50q54 -49 54 -132q0 -82 -55 -131q-55 -50 -140 -50h-251v341h-456v-341zM620 341v-319h227q77 0 124.5 44t47.5 115t-47.5 115.5t-124.5 44.5h-227z" />
    <glyph glyph-name="afii10060" unicode="&#x40b;" horiz-adv-x="833" 
d="M268 650h-237v22h530v-22h-269v-311q130 32 237 32q103 0 168 -59t65 -151v-161h-24v161q0 82 -59 135q-58 52 -152 52q-108 0 -235 -31v-317h-24v650z" />
    <glyph glyph-name="afii10061" unicode="&#x40c;" horiz-adv-x="643" 
d="M141 0h-24v672h24v-317h114l292 317h31l-301 -328l313 -344h-31l-304 333h-114v-333zM297 762l-11 15l153 105l13 -19z" />
    <glyph glyph-name="uni040D" unicode="&#x40d;" horiz-adv-x="754" 
d="M143 0h-26v672h24v-637l469 637h26v-672h-23v637zM410 762l-155 101l13 19l153 -105z" />
    <glyph glyph-name="afii10062" unicode="&#x40e;" horiz-adv-x="625" 
d="M312 134l-259 538h26l246 -512l237 512h26l-267 -574q-53 -110 -152 -110q-35 0 -82 12l6 22q41 -12 75 -12q84 0 133 102zM190 880h21q3 -45 33.5 -73.5t76.5 -28.5t76.5 28.5t33.5 73.5h21q-3 -54 -40 -88.5t-91 -34.5t-91 34.5t-40 88.5z" />
    <glyph glyph-name="afii10145" unicode="&#x40f;" horiz-adv-x="754" 
d="M365 0h-248v672h25v-650h470v650h24v-672h-247v-176h-24v176z" />
    <glyph glyph-name="afii10017" unicode="&#x410;" horiz-adv-x="658" 
d="M64 0h-27l280 672h24l279 -672h-26l-88 212h-354zM329 639l-168 -405h336z" />
    <glyph glyph-name="afii10018" unicode="&#x411;" horiz-adv-x="626" 
d="M373 0h-256v672h406v-22h-382v-280h232q87 0 142 -52q56 -51 56 -133q0 -80 -56 -133q-55 -52 -142 -52zM141 348v-326h231q76 0 126 45q49 46 49 118t-49 117q-49 46 -126 46h-231z" />
    <glyph glyph-name="afii10019" unicode="&#x412;" horiz-adv-x="641" 
d="M381 0h-264v672h248q80 0 131 -48q51 -46 51 -121q0 -54 -30.5 -96t-83.5 -61q65 -14 101.5 -59.5t36.5 -109.5q0 -79 -54 -129q-53 -48 -136 -48zM141 333v-311h238q75 0 121 43q47 44 47 113q0 68 -47 112q-46 43 -121 43h-238zM141 650v-295h223q70 0 114.5 41.5
t44.5 105.5q0 66 -45 106q-44 42 -114 42h-223z" />
    <glyph glyph-name="afii10020" unicode="&#x413;" horiz-adv-x="529" 
d="M142 0h-25v672h380v-22h-355v-650z" />
    <glyph glyph-name="afii10021" unicode="&#x414;" horiz-adv-x="762" 
d="M39 -176v198h48q87 161 87 364v286h438v-650h96v-198h-24v176h-622v-176h-23zM115 22h473v628h-390v-265q0 -200 -83 -363z" />
    <glyph glyph-name="afii10022" unicode="&#x415;" horiz-adv-x="593" 
d="M530 0h-413v672h397v-22h-372v-295h340v-22h-340v-311h388v-22z" />
    <glyph glyph-name="afii10024" unicode="&#x416;" horiz-adv-x="964" 
d="M86 0h-29l278 344l-266 328h29l257 -317h115v317h24v-317h115l257 317h29l-266 -328l278 -344h-29l-269 333h-115v-333h-24v333h-115z" />
    <glyph glyph-name="afii10025" unicode="&#x417;" horiz-adv-x="529" 
d="M31 36l9 21q114 -47 208 -47q85 0 140 45t55 115q0 73 -60 118t-159 45h-49v22h49q92 0 147.5 43t55.5 112q0 67 -50 109q-49 43 -129 43q-90 0 -192 -43l-9 21q106 44 202 44q89 0 145 -48q57 -48 57 -125q0 -62 -39 -107t-106 -59q74 -16 117.5 -64t43.5 -112
q0 -80 -61 -131q-62 -50 -157 -50q-107 0 -218 48z" />
    <glyph glyph-name="afii10026" unicode="&#x418;" horiz-adv-x="754" 
d="M143 0h-26v672h24v-637l469 637h26v-672h-23v637z" />
    <glyph glyph-name="afii10027" unicode="&#x419;" horiz-adv-x="754" 
d="M143 0h-26v672h24v-637l469 637h26v-672h-23v637zM240 880h21q3 -45 33.5 -73.5t76.5 -28.5t76.5 28.5t33.5 73.5h21q-3 -54 -40 -88.5t-91 -34.5t-91 34.5t-40 88.5z" />
    <glyph glyph-name="afii10028" unicode="&#x41a;" horiz-adv-x="643" 
d="M141 0h-24v672h24v-317h114l292 317h31l-301 -328l313 -344h-31l-304 333h-114v-333z" />
    <glyph glyph-name="afii10029" unicode="&#x41b;" horiz-adv-x="778" 
d="M15 -6l4 22q33 -6 53 -6q65 0 99 44t34 126v492h455v-672h-24v650h-407v-471q0 -92 -40.5 -141.5t-115.5 -49.5q-23 0 -58 6z" />
    <glyph glyph-name="afii10030" unicode="&#x41c;" horiz-adv-x="842" 
d="M141 0h-24v672h26l278 -375l277 375h26v-672h-23v637l-271 -368h-18l-271 368v-637z" />
    <glyph glyph-name="afii10031" unicode="&#x41d;" horiz-adv-x="754" 
d="M142 0h-25v672h25v-317h470v317h24v-672h-24v333h-470v-333z" />
    <glyph glyph-name="afii10032" unicode="&#x41e;" horiz-adv-x="754" 
d="M377 684q136 2 226.5 -97.5t88.5 -250.5q2 -151 -88.5 -250.5t-226.5 -97.5q-139 0 -227 97.5t-88 250.5t88 250.5t227 97.5zM124 504q-37 -73 -37 -168q0 -93 37 -168t103 -117q67 -41 150 -41q84 0 150 41.5t103 115.5t37 169q0 93 -37 168t-103 116q-66 42 -150 42
t-150 -41.5t-103 -116.5z" />
    <glyph glyph-name="afii10033" unicode="&#x41f;" horiz-adv-x="754" 
d="M142 0h-25v672h519v-672h-24v650h-470v-650z" />
    <glyph glyph-name="afii10034" unicode="&#x420;" horiz-adv-x="609" 
d="M141 0h-24v672h228q92 0 151 -56t59 -142q0 -87 -59 -143q-58 -55 -151 -55h-204v-276zM141 650v-351h203q82 0 134 49q53 50 53 126q0 77 -53 127q-52 49 -134 49h-203z" />
    <glyph glyph-name="afii10035" unicode="&#x421;" horiz-adv-x="641" 
d="M377 684q110 0 210 -70l-12 -20q-94 68 -197 68q-129 0 -210 -91q-81 -90 -81 -235q0 -144 81 -236q81 -90 210 -90q103 0 197 68l12 -20q-100 -70 -210 -70q-139 0 -227 97t-88 251t88 251t227 97z" />
    <glyph glyph-name="afii10036" unicode="&#x422;" horiz-adv-x="593" 
d="M284 650h-253v22h530v-22h-253v-650h-24v650z" />
    <glyph glyph-name="afii10037" unicode="&#x423;" horiz-adv-x="625" 
d="M312 134l-259 538h26l246 -512l237 512h26l-267 -574q-53 -110 -152 -110q-35 0 -82 12l6 22q41 -12 75 -12q84 0 133 102z" />
    <glyph glyph-name="afii10038" unicode="&#x424;" horiz-adv-x="755" 
d="M54 344q0 117 87 191q88 74 225 74v95h23v-95q137 0 225 -74q87 -74 87 -191q0 -118 -87 -191q-88 -74 -225 -74v-111h-23v111q-139 0 -225 73q-87 74 -87 192zM366 101v486q-126 0 -208 -68q-80 -68 -80 -175t80 -175q82 -68 208 -68zM389 587v-486q127 0 207.5 68
t80.5 175t-80.5 175t-207.5 68z" />
    <glyph glyph-name="afii10039" unicode="&#x425;" horiz-adv-x="666" 
d="M82 0h-29l265 344l-253 328h29l239 -310l239 310h29l-253 -328l265 -344h-29l-251 326z" />
    <glyph glyph-name="afii10040" unicode="&#x426;" horiz-adv-x="787" 
d="M709 0h-592v672h25v-650h470v650h24v-650h96v-198h-23v176z" />
    <glyph glyph-name="afii10041" unicode="&#x427;" horiz-adv-x="682" 
d="M71 503v169h24v-169q0 -86 58 -141q58 -54 152 -54q112 0 235 31v333h25v-672h-25v317q-133 -32 -237 -32t-168 61t-64 157z" />
    <glyph glyph-name="afii10042" unicode="&#x428;" horiz-adv-x="1089" 
d="M971 0h-854v672h25v-650h390v650h24v-650h391v650h24v-672z" />
    <glyph glyph-name="afii10043" unicode="&#x429;" horiz-adv-x="1121" 
d="M1043 0h-926v672h25v-650h390v650h24v-650h391v650h24v-650h96v-198h-24v176z" />
    <glyph glyph-name="afii10044" unicode="&#x42a;" horiz-adv-x="753" 
d="M245 650h-214v22h238v-293h228q88 0 145 -54q57 -52 57 -136q0 -83 -57 -136q-58 -53 -145 -53h-252v650zM269 357v-335h227q80 0 129 46q50 47 50 121t-50 121t-129 47h-227z" />
    <glyph glyph-name="afii10045" unicode="&#x42b;" horiz-adv-x="885" 
d="M369 0h-252v672h24v-293h228q89 0 145 -54q57 -52 57 -136q0 -83 -57 -136q-56 -53 -145 -53zM141 357v-335h227q80 0 129 46q50 47 50 121t-50 121t-129 47h-227zM767 0h-25v672h25v-672z" />
    <glyph glyph-name="afii10046" unicode="&#x42c;" horiz-adv-x="625" 
d="M369 0h-252v672h24v-293h228q89 0 145 -54q57 -52 57 -136q0 -83 -57 -136q-56 -53 -145 -53zM141 357v-335h227q80 0 129 46q50 47 50 121t-50 121t-129 47h-227z" />
    <glyph glyph-name="afii10047" unicode="&#x42d;" horiz-adv-x="649" 
d="M62 58l12 19q94 -67 197 -67q129 0 209 89t82 234h-403v22h403q-4 136 -86 222q-79 85 -205 85q-105 0 -197 -67l-12 19q100 70 210 70q139 0 227 -97t88 -251t-88 -251t-227 -97q-110 0 -210 70z" />
    <glyph glyph-name="afii10048" unicode="&#x42e;" horiz-adv-x="1005" 
d="M142 0h-25v672h25v-317h180q3 143 92 237.5t218 91.5q134 2 223.5 -97.5t87.5 -250.5q2 -151 -87 -250.5t-224 -97.5q-133 -3 -222 96t-88 249h-180v-333zM382 504q-36 -74 -36 -168t36.5 -168.5t101.5 -116.5q65 -41 147 -41q83 0 149 41.5t102 115.5q37 74 37 169
q0 94 -36.5 168.5t-102.5 115.5q-66 42 -149 42q-82 0 -147 -41.5t-102 -116.5z" />
    <glyph glyph-name="afii10049" unicode="&#x42f;" horiz-adv-x="641" 
d="M98 0h-29l210 294q-83 5 -134 57q-51 53 -51 131q0 84 57 136q57 54 145 54h228v-672h-24v292h-193zM118 482q0 -74 50 -121q49 -46 129 -46h203v335h-203q-79 0 -129 -47t-50 -121z" />
    <glyph glyph-name="afii10065" unicode="&#x430;" horiz-adv-x="530" 
d="M55 125q0 75 57 116t159 41q65 0 126 -16v76q0 57 -39.5 93t-101.5 36q-77 0 -162 -35l-8 20q87 37 171 37q72 0 117.5 -42t45.5 -109v-278q0 -25 14.5 -39.5t40.5 -14.5q11 0 28 4l4 -22q-23 -4 -35 -4q-34 0 -54 20.5t-20 54.5v38q-23 -52 -72 -82.5t-110 -30.5
q-68 0 -115 39q-46 40 -46 98zM79 126q0 -49 40 -83t99 -34q80 0 129 51q50 52 50 132v54q-61 16 -125 16q-91 0 -142 -36t-51 -100z" />
    <glyph glyph-name="afii10066" unicode="&#x431;" horiz-adv-x="563" 
d="M63 274q0 164 56 260.5t171 131.5l154 47l8 -21l-157 -48q-90 -28 -140 -96.5t-65 -182.5q26 61 79 94.5t123 33.5q94 0 155 -69q61 -68 61 -175q0 -115 -63 -188q-61 -73 -159 -73q-100 0 -162 77q-61 76 -61 209zM86 256q0 -108 56 -178q56 -68 144 -68t143 66
q56 68 56 172q0 99 -55 160q-56 63 -141 63q-89 0 -146 -60t-57 -155z" />
    <glyph glyph-name="afii10067" unicode="&#x432;" horiz-adv-x="482" 
d="M289 0h-195v481h187q57 0 93 -35t36 -89q0 -79 -78 -109q45 -11 70.5 -43.5t25.5 -76.5q0 -57 -39 -92.5t-100 -35.5zM117 236v-215h171q52 0 84 30t32 78t-32 77.5t-84 29.5h-171zM117 460v-204h163q48 0 77 27.5t29 72.5q0 46 -29 75t-77 29h-163z" />
    <glyph glyph-name="afii10068" unicode="&#x433;" horiz-adv-x="425" 
d="M118 0h-24v481h292v-22h-268v-459z" />
    <glyph glyph-name="afii10069" unicode="&#x434;" horiz-adv-x="563" 
d="M39 -160v182h32q55 106 55 252v207h326v-459h64v-182h-23v160h-431v-160h-23zM97 22h332v437h-280v-186q0 -147 -52 -251z" />
    <glyph glyph-name="afii10070" unicode="&#x435;" horiz-adv-x="522" 
d="M55 240q0 112 61 182q62 71 157 71q90 0 146 -68q57 -67 57 -175q0 -11 -1 -14h-397q3 -102 61 -164q59 -62 151 -62q74 0 151 41l11 -19q-86 -44 -163 -44q-103 0 -169 70q-65 71 -65 182zM78 257h374q-2 96 -51 154q-50 60 -128 60q-83 0 -137 -59q-54 -60 -58 -155z
" />
    <glyph glyph-name="afii10072" unicode="&#x436;" horiz-adv-x="724" 
d="M82 0h-29l198 247l-190 234h29l181 -224h80v224h23v-224h79l181 224h29l-190 -234l198 -247h-28l-190 235h-79v-235h-23v235h-80z" />
    <glyph glyph-name="afii10073" unicode="&#x437;" horiz-adv-x="418" 
d="M31 28l9 21q76 -39 156 -39q64 0 104 30.5t40 79.5q0 51 -43.5 83.5t-112.5 32.5h-40v21h40q65 0 104 30t39 78t-35.5 77t-94.5 29q-67 0 -145 -35l-9 20q81 37 155 37q69 0 111 -35t42 -92q0 -44 -28.5 -76t-76.5 -43q54 -12 86 -47.5t32 -80.5q0 -58 -46 -94.5
t-120 -36.5q-83 0 -167 40z" />
    <glyph glyph-name="afii10074" unicode="&#x438;" horiz-adv-x="563" 
d="M119 0h-25v481h23v-448l327 448h25v-481h-23v447z" />
    <glyph glyph-name="afii10075" unicode="&#x439;" horiz-adv-x="563" 
d="M119 0h-25v481h23v-448l327 448h25v-481h-23v447zM145 689h21q3 -45 33.5 -73.5t76.5 -28.5t76.5 28.5t33.5 73.5h21q-3 -54 -40 -88.5t-91 -34.5t-91 34.5t-40 88.5z" />
    <glyph glyph-name="afii10076" unicode="&#x43a;" horiz-adv-x="484" 
d="M117 0h-23v481h23v-224h79l204 224h30l-213 -234l221 -247h-30l-211 235h-80v-235z" />
    <glyph glyph-name="afii10077" unicode="&#x43b;" horiz-adv-x="579" 
d="M23 -8l4 22q20 -4 37 -4q93 0 93 121v350h328v-481h-24v459h-280v-328q0 -69 -30.5 -106t-85.5 -37q-21 0 -42 4z" />
    <glyph glyph-name="afii10078" unicode="&#x43c;" horiz-adv-x="627" 
d="M117 0h-23v481h24l194 -262l197 262h24v-481h-22v446l-193 -253h-14l-187 254v-447z" />
    <glyph glyph-name="afii10079" unicode="&#x43d;" horiz-adv-x="563" 
d="M118 0h-24v481h24v-224h327v224h24v-481h-24v235h-327v-235z" />
    <glyph glyph-name="afii10080" unicode="&#x43e;" horiz-adv-x="563" 
d="M55 240q0 112 63 182q65 71 163 71t163 -71q64 -70 64 -182t-64 -182t-163 -70t-163 70q-63 70 -63 182zM79 240q0 -101 56 -166q55 -64 145 -64t147 64q57 65 57 166q0 102 -57 166q-57 65 -147 65q-89 0 -145 -65t-56 -166z" />
    <glyph glyph-name="afii10081" unicode="&#x43f;" horiz-adv-x="563" 
d="M118 0h-24v481h375v-481h-24v459h-327v-459z" />
    <glyph glyph-name="afii10082" unicode="&#x440;" horiz-adv-x="563" 
d="M118 -208h-24v689h20l3 -101q25 54 71.5 83.5t106.5 29.5q93 0 153 -71q60 -70 60 -182q0 -110 -60 -181t-153 -71q-60 0 -106 29.5t-71 83.5v-309zM118 287v-94q0 -82 49 -132q49 -51 126 -51q83 0 137 65t54 165q0 102 -54 166q-54 65 -137 65q-77 0 -126 -52
q-49 -50 -49 -132z" />
    <glyph glyph-name="afii10083" unicode="&#x441;" horiz-adv-x="481" 
d="M55 240q0 112 63 182q65 71 163 71q81 0 155 -53l-12 -19q-68 50 -142 50q-89 0 -146 -65q-57 -64 -57 -166t57 -166t146 -64q74 0 142 49l12 -19q-73 -52 -155 -52q-99 0 -163 70q-63 70 -63 182z" />
    <glyph glyph-name="afii10084" unicode="&#x442;" horiz-adv-x="449" 
d="M213 459h-182v22h387v-22h-181v-459h-24v459z" />
    <glyph glyph-name="afii10085" unicode="&#x443;" horiz-adv-x="499" 
d="M32 -212l5 22q34 -8 52 -8q40 0 66.5 26t50.5 88l35 86l-203 479h25l190 -450l183 450h25l-234 -574q-28 -70 -58.5 -98.5t-78.5 -28.5q-20 0 -58 8z" />
    <glyph glyph-name="afii10086" unicode="&#x444;" horiz-adv-x="660" 
d="M55 240q0 108 73 178q74 71 190 74v212h23v-212q118 -5 190 -74q74 -71 74 -178t-74 -178q-72 -69 -190 -74v-196h-23v196q-116 3 -189.5 74t-73.5 178zM78 240q0 -99 66 -163q67 -64 174 -67v460q-107 -3 -174 -67q-66 -65 -66 -163zM341 470v-460q106 3 173 67
q68 65 68 163q0 97 -68 162t-173 68z" />
    <glyph glyph-name="afii10087" unicode="&#x445;" horiz-adv-x="499" 
d="M74 0h-29l189 246l-181 235h29l167 -217l168 217h29l-181 -235l189 -246h-29l-176 229z" />
    <glyph glyph-name="afii10088" unicode="&#x446;" horiz-adv-x="580" 
d="M510 0h-416v481h24v-459h327v459h24v-459h64v-182h-23v160z" />
    <glyph glyph-name="afii10089" unicode="&#x447;" horiz-adv-x="515" 
d="M63 359v122h23v-121q0 -60 40.5 -98t103.5 -38q88 0 167 19v238h24v-481h-24v221q-86 -19 -169 -19q-72 0 -119 44q-46 43 -46 113z" />
    <glyph glyph-name="afii10090" unicode="&#x448;" horiz-adv-x="834" 
d="M740 0h-646v481h24v-459h287v459h24v-459h287v459h24v-481z" />
    <glyph glyph-name="afii10091" unicode="&#x449;" horiz-adv-x="851" 
d="M781 0h-687v481h24v-459h287v459h24v-459h287v459h24v-459h64v-182h-23v160z" />
    <glyph glyph-name="afii10092" unicode="&#x44a;" horiz-adv-x="563" 
d="M175 460h-144v21h167v-206h172q64 0 105 -38t41 -99q0 -62 -40.5 -100t-104.5 -38h-196v460zM198 254v-233h171q56 0 90 32.5t34 84.5t-34.5 84t-90.5 32h-170z" />
    <glyph glyph-name="afii10093" unicode="&#x44b;" horiz-adv-x="693" 
d="M291 0h-197v481h23v-206h173q64 0 105 -38t41 -99t-41 -99.5t-104 -38.5zM117 254v-233h171q56 0 90 32.5t34 84.5t-34.5 84t-90.5 32h-170zM600 0h-24v481h24v-481z" />
    <glyph glyph-name="afii10094" unicode="&#x44c;" horiz-adv-x="482" 
d="M291 0h-197v481h23v-206h173q64 0 105 -38t41 -99t-41 -99.5t-104 -38.5zM117 254v-233h171q56 0 90 32.5t34 84.5t-34.5 84t-90.5 32h-170z" />
    <glyph glyph-name="afii10095" unicode="&#x44d;" horiz-adv-x="490" 
d="M54 40l12 18q64 -48 141 -48q88 0 145 63q57 62 59 163h-284v21h284q-4 93 -62 154q-57 60 -142 60q-73 0 -141 -48l-12 17q74 53 155 53q97 0 162 -71q64 -70 64 -182q0 -111 -64 -181q-65 -71 -162 -71q-82 0 -155 52z" />
    <glyph glyph-name="afii10096" unicode="&#x44e;" horiz-adv-x="758" 
d="M118 0h-24v481h24v-224h149q5 105 65 170q62 66 153 66q95 0 157 -71t62 -182t-62 -182q-61 -70 -157 -70q-95 0 -156 69q-61 70 -62 178h-149v-235zM290 240q0 -102 54 -166q55 -64 140 -64q86 0 141 64t55 166t-55 166q-56 65 -141 65q-84 0 -140 -65q-54 -64 -54 -166
z" />
    <glyph glyph-name="afii10097" unicode="&#x44f;" horiz-adv-x="484" 
d="M75 0h-28l146 207q-57 4 -93.5 42.5t-36.5 93.5q0 60 41 99t105 39h181v-481h-23v205h-147zM87 343q0 -52 34 -84.5t90 -32.5h156v233h-156q-56 0 -90 -32t-34 -84z" />
    <glyph glyph-name="uni0450" unicode="&#x450;" horiz-adv-x="522" 
d="M55 240q0 112 61 182q62 71 157 71q90 0 146 -68q57 -67 57 -175q0 -11 -1 -14h-397q3 -102 61 -164q59 -62 151 -62q74 0 151 41l11 -19q-86 -44 -163 -44q-103 0 -169 70q-65 71 -65 182zM78 257h374q-2 96 -51 154q-50 60 -128 60q-83 0 -137 -59q-54 -60 -58 -155z
M306 571l-155 101l13 19l153 -105z" />
    <glyph glyph-name="afii10071" unicode="&#x451;" horiz-adv-x="522" 
d="M55 240q0 112 61 182q62 71 157 71q90 0 146 -68q57 -67 57 -175q0 -11 -1 -14h-397q3 -102 61 -164q59 -62 151 -62q74 0 151 41l11 -19q-86 -44 -163 -44q-103 0 -169 70q-65 71 -65 182zM78 257h374q-2 96 -51 154q-50 60 -128 60q-83 0 -137 -59q-54 -60 -58 -155z
M158 621q-11 10 -6.5 24.5t17.5 18.5t25 -7q17 -17 -1 -35t-35 -1zM352 621q-11 10 -6.5 24.5t17.5 18.5t25 -7q17 -17 -1 -35t-35 -1z" />
    <glyph glyph-name="afii10099" unicode="&#x452;" horiz-adv-x="563" 
d="M94 589h-79v21h79v94h24v-94h190v-21h-190v-217q23 57 71 89t111 32q77 0 127 -50t50 -127v-413q0 -54 -34.5 -88.5t-88.5 -34.5q-37 0 -82 12l5 22q41 -12 75 -12q44 0 72.5 28.5t28.5 73.5v410q0 69 -43.5 112.5t-112.5 43.5q-79 0 -129 -53t-50 -134v-283h-24v589z
" />
    <glyph glyph-name="afii10100" unicode="&#x453;" horiz-adv-x="425" 
d="M118 0h-24v481h292v-22h-268v-459zM185 571l-11 15l153 105l13 -19z" />
    <glyph glyph-name="afii10101" unicode="&#x454;" horiz-adv-x="490" 
d="M55 240q0 112 64 182q65 71 162 71q81 0 155 -53l-12 -17q-67 48 -142 48q-85 0 -142 -60q-56 -59 -61 -154h284v-21h-284q2 -101 58 -163q57 -63 145 -63q76 0 142 48l12 -18q-73 -52 -155 -52q-97 0 -162 71q-64 70 -64 181z" />
    <glyph glyph-name="afii10102" unicode="&#x455;" horiz-adv-x="434" 
d="M55 24l7 21q85 -35 154 -35q63 0 101.5 28.5t38.5 75.5q0 37 -22 62t-55 36t-71.5 24t-71.5 25.5t-55 40.5t-22 69q0 54 44 88t114 34q69 0 147 -32l-8 -21q-72 31 -138 31q-61 0 -98.5 -27.5t-37.5 -72.5q0 -36 22 -60.5t55 -35t72 -23.5t72 -26t55 -41.5t22 -70.5
q0 -56 -45 -91t-118 -35q-75 0 -162 36z" />
    <glyph glyph-name="afii10103" unicode="&#x456;" horiz-adv-x="212" 
d="M80 639q0 25 26 25t26 -25t-26 -25t-26 25zM118 0h-24v481h24v-481z" />
    <glyph glyph-name="afii10104" unicode="&#x457;" horiz-adv-x="212" 
d="M-9 621q-11 10 -6.5 24.5t17.5 18.5t25 -7q17 -17 -1 -35t-35 -1zM118 0h-24v481h24v-481zM185 621q-11 10 -6.5 24.5t17.5 18.5t25 -7q17 -17 -1 -35t-35 -1z" />
    <glyph glyph-name="afii10105" unicode="&#x458;" horiz-adv-x="220" 
d="M-80 -208l5 22q42 -12 75 -12q45 0 73.5 28.5t28.5 73.5v577h24v-578q0 -54 -34.5 -88.5t-88.5 -34.5q-40 0 -83 12zM88 639q0 25 26 25t26 -25t-26 -25t-26 25z" />
    <glyph glyph-name="afii10106" unicode="&#x459;" horiz-adv-x="834" 
d="M23 -8l4 22q20 -4 37 -4q93 0 93 121v350h320v-206h164q64 0 105 -38t41 -99t-40.5 -99.5t-104.5 -38.5h-189v459h-272v-328q0 -69 -30.5 -106t-85.5 -37q-21 0 -42 4zM477 254v-233h163q55 0 89.5 32.5t34.5 84.5t-34.5 84t-90.5 32h-162z" />
    <glyph glyph-name="afii10107" unicode="&#x45a;" horiz-adv-x="818" 
d="M117 0h-23v481h23v-214h320v214h24v-214h168q63 0 102.5 -37t39.5 -97t-39 -96.5t-102 -36.5h-193v245h-320v-245zM461 246v-225h167q53 0 86.5 31t33.5 81q0 51 -33.5 82t-87.5 31h-166z" />
    <glyph glyph-name="afii10108" unicode="&#x45b;" horiz-adv-x="563" 
d="M94 589h-79v21h79v94h24v-94h190v-21h-190v-217q23 57 71 89t111 32q78 0 127 -49q50 -48 50 -124v-320h-24v318q0 67 -44 109q-43 43 -112 43q-77 0 -128 -54q-51 -52 -51 -137v-279h-24v589z" />
    <glyph glyph-name="afii10109" unicode="&#x45c;" horiz-adv-x="484" 
d="M117 0h-23v481h23v-224h79l204 224h30l-213 -234l221 -247h-30l-211 235h-80v-235zM210 571l-11 15l153 105l13 -19z" />
    <glyph glyph-name="uni045D" unicode="&#x45d;" horiz-adv-x="563" 
d="M119 0h-25v481h23v-448l327 448h25v-481h-23v447zM314 571l-155 101l13 19l153 -105z" />
    <glyph glyph-name="afii10110" unicode="&#x45e;" horiz-adv-x="499" 
d="M32 -212l5 22q34 -8 52 -8q40 0 66.5 26t50.5 88l35 86l-203 479h25l190 -450l183 450h25l-234 -574q-28 -70 -58.5 -98.5t-78.5 -28.5q-20 0 -58 8zM118 689h21q3 -45 33.5 -73.5t76.5 -28.5t76.5 28.5t33.5 73.5h21q-3 -54 -40 -88.5t-91 -34.5t-91 34.5t-40 88.5z" />
    <glyph glyph-name="afii10193" unicode="&#x45f;" horiz-adv-x="563" 
d="M270 0h-176v481h24v-459h327v459h24v-481h-176v-160h-23v160z" />
    <glyph glyph-name="afii10050" unicode="&#x490;" horiz-adv-x="529" 
d="M142 0h-25v672h357v160h23v-182h-355v-650z" />
    <glyph glyph-name="afii10098" unicode="&#x491;" horiz-adv-x="425" 
d="M118 0h-24v481h269v160h23v-182h-268v-459z" />
    <glyph glyph-name="uni0492" unicode="&#x492;" horiz-adv-x="545" 
d="M133 309h-102v22h102v341h380v-22h-355v-319h213v-22h-213v-309h-25v309z" />
    <glyph glyph-name="uni0493" unicode="&#x493;" horiz-adv-x="433" 
d="M102 217h-86v22h86v242h292v-21h-268v-221h149v-22h-149v-217h-24v217z" />
    <glyph glyph-name="uni049A" unicode="&#x49a;" horiz-adv-x="683" 
d="M141 0h-24v672h24v-317h114l291 317h32l-301 -328l294 -322h74v-198h-24v176h-62l-304 333h-114v-333z" />
    <glyph glyph-name="uni049B" unicode="&#x49b;" horiz-adv-x="516" 
d="M117 0h-23v481h23v-224h79l204 224h30l-213 -234l203 -225h57v-182h-23v160h-46l-211 235h-80v-235z" />
    <glyph glyph-name="uni04A2" unicode="&#x4a2;" horiz-adv-x="787" 
d="M142 0h-25v672h25v-317h470v317h24v-650h96v-198h-23v176h-97v333h-470v-333z" />
    <glyph glyph-name="uni04A3" unicode="&#x4a3;" horiz-adv-x="580" 
d="M118 0h-24v481h24v-224h327v224h24v-459h64v-182h-23v160h-65v235h-327v-235z" />
    <glyph glyph-name="uni04AE" unicode="&#x4ae;" horiz-adv-x="579" 
d="M277 302l-248 370h29l231 -347l232 347h28l-247 -370v-302h-25v302z" />
    <glyph glyph-name="uni04AF" unicode="&#x4af;" horiz-adv-x="499" 
d="M237 1l-199 480h25l186 -450l187 450h25l-200 -480v-209h-24v209z" />
    <glyph glyph-name="uni04B0" unicode="&#x4b0;" horiz-adv-x="579" 
d="M269 313l-240 359h29l231 -347l232 347h28l-240 -359h159v-22h-166v-291h-25v291h-166v22h158z" />
    <glyph glyph-name="uni04B1" unicode="&#x4b1;" horiz-adv-x="499" 
d="M231 16l-193 465h25l186 -450l187 450h25l-194 -465h145v-21h-151v-203h-24v203h-150v21h144z" />
    <glyph glyph-name="uni04BA" unicode="&#x4ba;" horiz-adv-x="682" 
d="M142 0h-25v672h25v-317q134 32 237 32t167 -61q66 -62 66 -157v-169h-25v169q0 86 -58 140q-58 55 -152 55q-112 0 -235 -31v-333z" />
    <glyph glyph-name="uni04BB" unicode="&#x4bb;" horiz-adv-x="563" 
d="M118 0h-24v704h24v-332q23 57 71 89t111 32q78 0 127 -49q50 -48 50 -124v-320h-24v318q0 67 -44 109q-43 43 -112 43q-77 0 -128 -54q-51 -52 -51 -137v-279z" />
    <glyph glyph-name="uni04D8" unicode="&#x4d8;" horiz-adv-x="697" 
d="M50 320v19h561q-2 141 -87 232t-216 91q-104 0 -211 -58l-11 20q113 60 223 60q142 0 234 -98t92 -250q2 -151 -85 -250.5t-217 -97.5q-124 0 -204 92q-79 92 -79 240zM611 317h-537q2 -134 74.5 -220.5t184.5 -86.5q119 0 195 84q75 84 83 223z" />
    <glyph glyph-name="afii10846" unicode="&#x4d9;" horiz-adv-x="522" 
d="M47 230v15h397q-3 99 -62 163q-58 63 -150 63q-73 0 -151 -42l-10 19q83 45 162 45q103 0 169 -71t66 -182q0 -112 -61 -182t-158 -70q-89 0 -146 67q-56 68 -56 175zM444 224h-374q2 -96 50 -155q50 -59 129 -59q83 0 136 59t59 155z" />
    <glyph glyph-name="uni04E8" unicode="&#x4e8;" horiz-adv-x="754" 
d="M85 195q-23 65 -23 141t23 140q48 130 165 182q59 26 127 26t127 -26q118 -52 164 -182q24 -64 24 -140t-24 -141q-47 -129 -164 -181q-59 -26 -127 -26t-127 26q-116 52 -165 181zM668 333h-582q-1 -139 82.5 -232t207.5 -91q126 -2 209.5 90.5t82.5 232.5zM86 355h581
q-4 135 -86 221q-81 86 -204 86q-122 0 -205 -86q-82 -86 -86 -221z" />
    <glyph glyph-name="uni04E9" unicode="&#x4e9;" horiz-adv-x="563" 
d="M55 240q0 112 63 182q65 71 163 71t163 -71q64 -70 64 -182t-64 -182t-163 -70t-163 70q-63 70 -63 182zM485 234h-407q1 -99 58 -163q57 -62 145 -62t144 62q57 63 60 163zM78 255h407q-4 95 -62 156q-55 60 -142 60t-142 -60q-57 -61 -61 -156z" />
    <glyph glyph-name="uni2010" unicode="&#x2010;" horiz-adv-x="320" 
d="M289 235h-258v22h258v-22z" />
    <glyph glyph-name="uni2011" unicode="&#x2011;" horiz-adv-x="320" 
d="M289 235h-258v22h258v-22z" />
    <glyph glyph-name="endash" unicode="&#x2013;" horiz-adv-x="480" 
d="M449 235h-418v22h418v-22z" />
    <glyph glyph-name="emdash" unicode="&#x2014;" horiz-adv-x="960" 
d="M929 235h-898v22h898v-22z" />
    <glyph glyph-name="afii00208" unicode="&#x2015;" horiz-adv-x="960" 
d="M929 235h-898v22h898v-22z" />
    <glyph glyph-name="quoteleft" unicode="&#x2018;" horiz-adv-x="227" 
d="M80 525q0 98 89 156l10 -15q-78 -59 -74 -139q14 4 25 -4t11 -22q0 -12 -8 -20t-20 -8q-33 0 -33 52z" />
    <glyph glyph-name="quoteright" unicode="&#x2019;" horiz-adv-x="227" 
d="M58 473l-10 15q78 57 74 139q-15 -4 -26 4t-11 22q0 12 8 20t20 8q34 0 34 -52q0 -98 -89 -156z" />
    <glyph glyph-name="quotesinglbase" unicode="&#x201a;" horiz-adv-x="195" 
d="M58 -160l-10 15q78 59 74 139q-15 -4 -26 4t-11 22q0 12 8 20t20 8q34 0 34 -52q0 -98 -89 -156z" />
    <glyph glyph-name="quotedblleft" unicode="&#x201c;" horiz-adv-x="391" 
d="M80 525q0 98 89 156l10 -15q-78 -59 -74 -139q14 4 25 -4t11 -22q0 -12 -8 -20t-20 -8q-33 0 -33 52zM244 525q0 46 23.5 87t65.5 69l10 -15q-78 -57 -74 -139q14 4 25 -4t11 -22q0 -12 -7.5 -20t-20.5 -8q-33 0 -33 52z" />
    <glyph glyph-name="quotedblright" unicode="&#x201d;" horiz-adv-x="391" 
d="M58 473l-10 15q78 57 74 139q-15 -4 -26 4t-11 22q0 12 8 20t20 8q34 0 34 -52q0 -98 -89 -156zM222 473l-10 15q79 56 74 139q-15 -4 -26 4t-11 22q0 12 8 20t20 8q34 0 34 -52q0 -98 -89 -156z" />
    <glyph glyph-name="quotedblbase" unicode="&#x201e;" horiz-adv-x="391" 
d="M58 -160l-10 15q78 59 74 139q-15 -4 -26 4t-11 22q0 12 8 20t20 8q34 0 34 -52q0 -98 -89 -156zM222 -160l-10 15q79 58 74 139q-15 -4 -26 4t-11 22q0 12 8 20t20 8q34 0 34 -52q0 -98 -89 -156z" />
    <glyph glyph-name="dagger" unicode="&#x2020;" horiz-adv-x="481" 
d="M230 468h-183v21h183v183h22v-183h182v-21h-182v-468h-22v468z" />
    <glyph glyph-name="daggerdbl" unicode="&#x2021;" horiz-adv-x="481" 
d="M230 183h-183v21h183v264h-183v21h183v183h22v-183h182v-21h-182v-264h182v-21h-182v-183h-22v183z" />
    <glyph glyph-name="bullet" unicode="&#x2022;" horiz-adv-x="480" 
d="M138 186q-42 42 -42 102t42 102t102 42t102 -42t42 -102t-42 -102t-102 -42t-102 42z" />
    <glyph glyph-name="ellipsis" unicode="&#x2026;" horiz-adv-x="960" 
d="M132 20q0 12 8 20t20 8q13 0 20.5 -8t7.5 -20q0 -28 -28 -28q-12 0 -20 7.5t-8 20.5zM452 20q0 12 8 20t20 8q13 0 20.5 -8t7.5 -20q0 -28 -28 -28q-12 0 -20 7.5t-8 20.5zM772 20q0 12 8 20t20 8q13 0 20.5 -8t7.5 -20q0 -28 -28 -28q-12 0 -20 7.5t-8 20.5z" />
    <glyph glyph-name="perthousand" unicode="&#x2030;" horiz-adv-x="1234" 
d="M55 504q0 80 43 129q44 51 110 51t110 -51q44 -50 44 -129q0 -78 -44 -130q-44 -50 -110 -50t-110 50q-43 49 -43 130zM76 504q0 -72 37 -116t95 -44q59 0 96 44t37 116q0 71 -37 115.5t-96 44.5q-58 0 -95 -44.5t-37 -115.5zM188 -6l-16 12l504 672l16 -12zM502 168
q0 80 43 129q43 51 110 51t111 -51q43 -49 43 -129q0 -81 -43 -130q-44 -50 -111 -50q-66 0 -110 50q-43 50 -43 130zM523 168q0 -72 37 -116t96 -44q58 0 95 44t37 116q0 71 -37 115.5t-95 44.5q-59 0 -96 -44.5t-37 -115.5zM872 168q0 80 43 129q43 51 110 51t111 -51
q44 -50 44 -129q0 -78 -44 -130q-44 -50 -111 -50q-66 0 -110 50q-43 50 -43 130zM894 168q0 -72 36.5 -116t94.5 -44q59 0 96 44t37 116q0 71 -37 115.5t-96 44.5q-58 0 -94.5 -44.5t-36.5 -115.5z" />
    <glyph glyph-name="guilsinglleft" unicode="&#x2039;" horiz-adv-x="291" 
d="M229 21l-197 218v15l197 218l15 -13l-187 -213l187 -212z" />
    <glyph glyph-name="guilsinglright" unicode="&#x203a;" horiz-adv-x="291" 
d="M62 21l-15 13l187 212l-187 213l15 13l197 -218v-15z" />
    <glyph glyph-name="fraction" unicode="&#x2044;" horiz-adv-x="192" 
d="M-148 -6l-16 12l504 672l16 -12z" />
    <glyph glyph-name="Euro" unicode="&#x20ac;" 
d="M122 262h-83v20h82q-3 26 -3 54q0 43 4 70h-83v20h87q19 116 89 187q71 71 169 71q82 0 162 -44l-12 -19q-77 41 -149 41q-90 0 -153 -65q-62 -64 -82 -171h276v-20h-281q-4 -27 -4 -70q0 -28 3 -54h282v-20h-280q16 -115 81 -184q65 -68 158 -68q72 0 149 41l12 -19
q-82 -44 -162 -44q-102 0 -173 75q-71 76 -89 199z" />
    <glyph glyph-name="afii61248" unicode="&#x2105;" horiz-adv-x="833" 
d="M200 680q50 0 102 -34l-11 -18q-43 32 -91 32q-58 0 -95.5 -41.5t-37.5 -106.5q0 -66 37.5 -107t95.5 -41q48 0 91 31l11 -17q-50 -34 -102 -34q-67 0 -111 47q-44 49 -44 121q0 73 44 120q43 48 111 48zM178 -6l-16 12l504 672l16 -12zM635 328q66 0 110 -47t44 -121
t-44 -121t-110 -47t-110 47q-43 46 -43 121t43 121q44 47 110 47zM504 160q0 -65 37 -106.5t94 -41.5q58 0 95 41.5t37 106.5q0 66 -37 107t-95 41t-94.5 -41t-36.5 -107z" />
    <glyph glyph-name="litre" unicode="&#x2113;" horiz-adv-x="356" 
d="M94 111v463q0 63 32 102.5t83 39.5q50 0 82.5 -40t32.5 -102q0 -81 -55 -161t-152 -143v-159q0 -45 28.5 -73t73.5 -28q33 0 75 12l5 -22q-43 -12 -82 -12q-54 0 -88.5 34.5t-34.5 88.5zM117 573v-277q89 59 137.5 131t48.5 146q0 52 -26.5 86.5t-66.5 34.5
q-41 0 -67 -34t-26 -87z" />
    <glyph glyph-name="numero" unicode="&#x2116;" horiz-adv-x="1150" 
d="M141 0h-24v672h26l470 -637v637h23v-672h-26l-469 637v-637zM842 391q-43 46 -43 121t43 121q44 47 110 47t110 -47q43 -46 43 -121t-43 -121q-44 -47 -110 -47t-110 47zM1102 246h-301v19h301v-19zM820 512q0 -65 37 -106.5t95 -41.5t94.5 41.5t36.5 106.5
q0 66 -36.5 107t-94.5 41t-95 -41t-37 -107z" />
    <glyph glyph-name="uni2117" unicode="&#x2117;" horiz-adv-x="832" 
d="M95 145q-47 85 -47 190q0 107 46.5 190.5t131.5 131.5q85 47 190 47t189.5 -47t131.5 -131q47 -85 47 -191q0 -105 -47 -189t-131 -131q-85 -47 -190 -47t-189.5 46.5t-131.5 130.5zM93 477q-25 -65 -25 -141t25 -141q52 -130 182 -182q65 -25 141 -25t141 25
q132 53 181 182q26 65 26 141t-26 141q-50 131 -181 181q-65 26 -141 26t-141 -26q-129 -49 -182 -181zM323 128h-21v416h144q58 0 95 -34.5t37 -90.5t-37 -90.5t-95 -34.5h-123v-166zM323 524v-210h122q50 0 80.5 29t30.5 76t-30.5 76t-80.5 29h-122z" />
    <glyph glyph-name="uni2120" unicode="&#x2120;" horiz-adv-x="914" 
d="M47 279l8 19q69 -30 131 -30q53 0 85.5 24t32.5 63q0 36 -26 58.5t-63 33.5t-74.5 22.5t-63.5 37.5t-26 68q0 46 37.5 75.5t97.5 29.5t128 -27l-8 -19q-99 39 -165.5 19.5t-67.5 -78.5q0 -35 26 -57t63.5 -33t74.5 -23t63 -38.5t26 -68.5q0 -47 -38.5 -77t-101.5 -30
q-70 0 -139 31zM474 256h-21v416h24l167 -225l167 225h23v-416h-21v384l-162 -218h-15l-162 218v-384z" />
    <glyph glyph-name="trademark" unicode="&#x2122;" horiz-adv-x="930" 
d="M183 652h-155v20h333v-20h-156v-396h-22v396zM490 256h-21v416h23l167 -225l167 225h23v-416h-21v384l-161 -218h-15l-162 218v-384z" />
    <glyph glyph-name="uni2126" unicode="&#x2126;" horiz-adv-x="770" 
d="M315 0h-252v22h211q-195 123 -195 338q-2 140 85.5 233t220.5 91q133 2 220.5 -91t85.5 -233q0 -215 -195 -338h212v-22h-252v19q211 127 211 341q2 130 -78.5 217t-203.5 85q-123 2 -203.5 -85t-78.5 -217q0 -213 212 -341v-19z" />
    <glyph glyph-name="estimated" unicode="&#x212e;" horiz-adv-x="960" 
d="M864 336q0 -13 -1 -16h-623v-196q95 -108 240 -108q148 0 243 112h66q-55 -67 -136 -105.5t-173 -38.5q-117 0 -212.5 59.5t-141.5 155.5q-46 98 -21.5 206.5t103.5 179.5q77 73 195.5 95.5t225.5 -20.5q105 -41 170 -128.5t65 -195.5zM240 548v-196h480v196
q-97 108 -240 108t-240 -108z" />
    <glyph glyph-name="uni215F" unicode="&#x215f;" 
d="M97 578l-10 18l131 76h18v-416h-21v391zM236 -6l-16 12l504 672l16 -12z" />
    <glyph glyph-name="arrowleft" unicode="&#x2190;" horiz-adv-x="960" 
d="M338 -18l-306 306l306 306l17 -17l-282 -277h855v-24h-855l282 -277z" />
    <glyph glyph-name="arrowup" unicode="&#x2191;" horiz-adv-x="960" 
d="M191 413l-17 17l306 306l306 -306l-17 -17l-277 281v-854h-24v854z" />
    <glyph glyph-name="arrowright" unicode="&#x2192;" horiz-adv-x="960" 
d="M886 276h-854v24h854l-281 277l17 17l306 -306l-306 -306l-17 17z" />
    <glyph glyph-name="arrowdown" unicode="&#x2193;" horiz-adv-x="960" 
d="M480 -160l-306 306l17 17l277 -281v854h24v-854l277 281l17 -17z" />
    <glyph glyph-name="uni2196" unicode="&#x2196;" horiz-adv-x="960" 
d="M187 172h-24v433h433v-24l-395 2l604 -603l-17 -17l-603 604z" />
    <glyph glyph-name="uni2197" unicode="&#x2197;" horiz-adv-x="960" 
d="M172 -37l-17 17l605 604l-396 -3v24h433v-433h-24l3 396z" />
    <glyph glyph-name="uni2198" unicode="&#x2198;" horiz-adv-x="960" 
d="M760 -8l-605 604l17 17l604 -605l-3 396h24v-433h-433v24z" />
    <glyph glyph-name="uni2199" unicode="&#x2199;" horiz-adv-x="960" 
d="M596 -29h-433v433h24l-3 -396l604 605l17 -17l-605 -604l396 3v-24z" />
    <glyph glyph-name="partialdiff" unicode="&#x2202;" horiz-adv-x="563" 
d="M55 249q0 105 62 175q61 69 158 69q69 0 121.5 -33.5t77.5 -94.5q-12 329 -217 329q-70 0 -144 -38l-10 20q79 40 154 40q120 0 181.5 -99t61.5 -318q0 -145 -61 -228q-62 -83 -162 -83q-99 0 -160 73q-62 74 -62 188zM78 248q0 -105 55 -172q55 -66 144 -66q87 0 143 74
q56 76 56 195q0 80 -56 136q-55 55 -143 55t-144 -62q-55 -61 -55 -160z" />
    <glyph glyph-name="uni2206" unicode="&#x2206;" horiz-adv-x="658" 
d="M615 0h-572v15l274 657h24l274 -657v-15zM329 639l-258 -617h516z" />
    <glyph glyph-name="product" unicode="&#x220f;" horiz-adv-x="770" 
d="M142 -208h-25v912h536v-912h-25v890h-486v-890z" />
    <glyph glyph-name="summation" unicode="&#x2211;" horiz-adv-x="625" 
d="M54 -208v18l349 446l-333 430v18h508v-22h-474l323 -418v-16l-339 -434h506v-22h-540z" />
    <glyph glyph-name="minus" unicode="&#x2212;" 
d="M513 277h-450v22h450v-22z" />
    <glyph glyph-name="uni2215" unicode="&#x2215;" horiz-adv-x="192" 
d="M-148 -6l-16 12l504 672l16 -12z" />
    <glyph glyph-name="radical" unicode="&#x221a;" horiz-adv-x="643" 
d="M13 111l-6 22l197 62l125 -370l261 882l22 -6l-269 -909h-26l-128 375z" />
    <glyph glyph-name="infinity" unicode="&#x221e;" horiz-adv-x="770" 
d="M47 288q0 79 42.5 128.5t111.5 49.5q57 0 99 -36.5t85 -120.5q42 84 84.5 120.5t99.5 36.5q69 0 112 -50t43 -128q0 -79 -43 -128.5t-112 -49.5q-57 0 -99 37t-85 120q-44 -84 -85.5 -120.5t-98.5 -36.5q-69 0 -111.5 49.5t-42.5 128.5zM70 288q0 -69 36 -112.5t96 -43.5
q51 0 89 36t81 120q-43 85 -81 120.5t-89 35.5q-59 0 -95.5 -43.5t-36.5 -112.5zM398 288q43 -84 81 -120t89 -36q59 0 95.5 43.5t36.5 112.5t-36 112.5t-96 43.5q-51 0 -89 -35.5t-81 -120.5z" />
    <glyph glyph-name="integral" unicode="&#x222b;" horiz-adv-x="386" 
d="M101 -208l9 21q27 -11 54 -11q39 0 64 34t25 88q0 93 -51 255l-42 135q-51 162 -51 258q0 63 31 103.5t80 40.5q32 0 65 -12l-8 -21q-28 11 -55 11q-39 0 -64 -34.5t-25 -87.5q0 -94 51 -256q4 -13 17.5 -55.5t19 -61t16.5 -56.5t16.5 -61t12 -54t9 -56t2.5 -48
q0 -63 -31 -103.5t-80 -40.5q-30 0 -65 12z" />
    <glyph glyph-name="approxequal" unicode="&#x2248;" 
d="M75 158l-14 17q55 51 130 51q35 0 99 -24t95 -24q64 0 116 46l14 -18q-57 -51 -130 -51q-51 0 -99 24t-95 24q-63 0 -116 -45zM75 352l-14 18q57 51 130 51q35 0 99 -24t95 -24q65 0 116 45l14 -17q-55 -51 -130 -51q-35 0 -99 24t-95 24q-64 0 -116 -46z" />
    <glyph glyph-name="notequal" unicode="&#x2260;" 
d="M221 180h-158v22h169l86 172h-255v22h267l77 155l20 -10l-73 -145h159v-22h-170l-85 -172h255v-22h-267l-77 -155l-20 10z" />
    <glyph glyph-name="lessequal" unicode="&#x2264;" 
d="M513 0h-450v22h450v-22zM507 122l-444 208v22l444 208l9 -21l-423 -198l423 -198z" />
    <glyph glyph-name="greaterequal" unicode="&#x2265;" 
d="M69 122l-9 21l423 198l-423 198l9 21l444 -208v-22zM513 0h-450v22h450v-22z" />
    <glyph glyph-name="uni22C5" unicode="&#x22c5;" horiz-adv-x="227" 
d="M85 247q0 12 8 20t20 8t20 -8t8 -20q0 -13 -8 -20.5t-20 -7.5t-20 7.5t-8 20.5z" />
    <glyph glyph-name="lozenge" unicode="&#x25ca;" 
d="M277 0l-216 336l216 336h22l216 -336l-216 -336h-22zM288 648l-200 -312l200 -314l200 314z" />
    <glyph glyph-name="uniE000" unicode="&#xe000;" horiz-adv-x="480" 
d="M480 0h-480v480h480v-480z" />
    <glyph glyph-name="afii10066.locl" unicode="&#xe700;" horiz-adv-x="515" 
d="M47 200q0 79 49.5 147t138.5 107q-110 60 -110 135q0 53 40 84t107 31h147v-22h-146q-58 0 -91 -25t-33 -68q0 -38 33 -69t79.5 -57t93.5 -56.5t80 -82.5t33 -120q0 -94 -60 -156q-58 -60 -151 -60q-92 0 -151 59q-59 61 -59 153zM70 201q0 -85 52 -138q53 -53 135 -53
q83 0 135 54q53 56 53 141q0 55 -22 96q-21 41 -59.5 72.5t-106.5 68.5q-89 -39 -138 -102.5t-49 -138.5z" />
    <glyph glyph-name="afii10068.alt" unicode="&#xe701;" horiz-adv-x="434" 
d="M55 114q0 42 22 70.5t55 41.5t71.5 26t71.5 23.5t55 35t22 60.5q0 45 -37.5 72.5t-98.5 27.5q-66 0 -138 -31l-7 21q76 32 146 32q71 0 115 -34t44 -88q0 -41 -22 -69t-55 -40.5t-72 -25.5l-72 -24t-55 -36t-22 -62q0 -47 38.5 -75.5t101.5 -28.5q69 0 154 35l8 -21
q-88 -36 -163 -36q-72 0 -117 35t-45 91z" />
    <glyph glyph-name="afii10069.alt" unicode="&#xe702;" horiz-adv-x="563" 
d="M55 240q0 112 60 182q60 71 152 71q61 0 107.5 -29.5t71.5 -83.5l3 101h20v-510q0 -84 -60 -137q-59 -54 -152 -54q-78 0 -171 40l9 21q90 -39 161 -39q83 0 136 47t53 122v130q-25 -54 -71 -83.5t-107 -29.5q-92 0 -152 71t-60 181zM79 240q0 -100 54 -165t137 -65
q76 0 126 51q49 50 49 132v94q0 82 -49 132q-49 52 -126 52q-83 0 -137 -65q-54 -64 -54 -166z" />
    <glyph glyph-name="afii10081.alt" unicode="&#xe703;" horiz-adv-x="563" 
d="M118 0h-24v481h20l3 -109q22 57 71 89t112 32q78 0 127 -49q50 -48 50 -124v-320h-24v318q0 67 -44 109q-43 43 -112 43q-77 0 -128 -54q-51 -52 -51 -137v-279z" />
    <glyph glyph-name="afii10084.alt" unicode="&#xe704;" horiz-adv-x="890" 
d="M118 0h-24v481h20l3 -105q21 55 67.5 86t107.5 31q62 0 106 -34t58 -92q23 60 70 93t109 33q74 0 121 -47q48 -46 48 -118v-328h-24v326q0 63 -41.5 103.5t-106.5 40.5q-74 0 -123 -52q-48 -51 -48 -131v-287h-24v326q0 63 -41.5 103.5t-106.5 40.5q-74 0 -123 -52
q-48 -51 -48 -131v-287z" />
    <glyph glyph-name="commaaccent.alt" unicode="&#xea01;" horiz-adv-x="240" 
d="M89 604q0 86 78 136l10 -14q-65 -49 -64 -118q13 3 22.5 -4t9.5 -20q0 -11 -7 -18.5t-18 -7.5q-31 0 -31 46z" />
    <glyph glyph-name="caron.alt" unicode="&#xea02;" horiz-adv-x="240" 
d="M119 558l-18 7l63 157l23 -8z" />
    <glyph glyph-name="ringacute" unicode="&#xea03;" horiz-adv-x="240" 
d="M31 632q0 47 44 79l155 106l13 -19l-120 -78q38 -1 62 -25.5t24 -62.5q0 -40 -23.5 -64.5t-63.5 -24.5t-65.5 24.5t-25.5 64.5zM122 561q31 0 49.5 19.5t18.5 51.5q0 31 -19.5 50.5t-50.5 19.5t-50.5 -19.5t-19.5 -50.5t20 -51t52 -20z" />
    <glyph glyph-name="registered.alt" unicode="&#xec00;" horiz-adv-x="512" 
d="M95 303q-63 63 -63 161t63 161t161 63t161 -63t63 -161t-63 -161t-161 -63t-161 63zM107 612q-57 -57 -57 -148q0 -90 57 -149q59 -57 149 -57q91 0 148 57q58 58 58 149t-58 148q-57 58 -148 58t-149 -58zM201 344h-18v240h85q33 0 55 -19.5t22 -49.5q0 -28 -17.5 -47
t-46.5 -22l72 -102h-23l-69 100h-60v-100zM201 568v-107h67q25 0 41.5 15t16.5 38q0 24 -16 39t-42 15h-67z" />
    <glyph glyph-name="apple" unicode="&#xf8ff;" horiz-adv-x="591" 
d="M238 0h-138v659h391v-65h-326v-529h73v-65zM491 202h-261v65h196v66h-196v195h261v-65h-196v-65h196v-196z" />
    <glyph glyph-name="CR.001" horiz-adv-x="333" 
 />
    </font>
</defs>
</svg>
