<?xml version="1.0" standalone="no"?>
<!DOCTYPE svg PUBLIC "-//W3C//DTD SVG 1.1//EN" "http://www.w3.org/Graphics/SVG/1.1/DTD/svg11.dtd" >
<svg xmlns="http://www.w3.org/2000/svg" xmlns:xlink="http://www.w3.org/1999/xlink" version="1.1">
<metadata>
Created by FontForge 20170731 at Thu Feb 20 08:22:57 2014
 By ,,,
Copyright (c) 2012 by Fontsmith Ltd. All rights reserved.
</metadata>
<defs>
<font id="FSElliotPro-ThinItalic" horiz-adv-x="576" >
  <font-face 
    font-family="FS Elliot Pro"
    font-weight="100"
    font-style="italic"
    font-stretch="normal"
    units-per-em="1000"
    panose-1="2 0 5 3 3 0 0 9 0 4"
    ascent="800"
    descent="-200"
    x-height="481"
    cap-height="672"
    bbox="-205 -275 1171 882"
    underline-thickness="50"
    underline-position="-200"
    slope="-12"
    unicode-range="U+000D-FB04"
  />
<missing-glyph horiz-adv-x="500" 
d="M504 0h-476v672h476v-672zM76 580v-488l162 244zM266 292l-162 -244h324zM428 624h-324l162 -244zM456 580l-162 -244l162 -244v488z" />
    <glyph glyph-name="f_f" unicode="ff" horiz-adv-x="645" 
d="M180 459h-111l4 22h111l22 124q9 50 43.5 80.5t83.5 30.5q43 0 94 -22l-8 -21q-49 21 -85 21q-41 0 -69 -24t-35 -66l-22 -123h267l22 124q9 50 43.5 80.5t83.5 30.5q40 0 94 -22l-8 -21q-51 21 -85 21q-41 0 -69 -24t-35 -66l-22 -123h157l-4 -22h-157l-80 -459h-24
l80 459h-267l-80 -459h-24z" />
    <glyph glyph-name="fi" unicode="fi" horiz-adv-x="534" 
d="M180 459h-111l4 22h111l19 108q11 59 53 93t104 34q66 0 141 -37l-11 -20q-75 35 -130 35q-51 0 -87.5 -29t-45.5 -77l-19 -107h275l-84 -481h-24l80 459h-251l-80 -459h-24z" />
    <glyph glyph-name="fl" unicode="fl" horiz-adv-x="582" 
d="M180 459h-111l4 22h111l19 108q11 59 52.5 93t104.5 34q66 0 159 -33l-105 -589q-3 -17 -3 -29q0 -25 17 -40t44 -15q7 0 23 3t19 3l4 -22q-34 -6 -49 -6q-36 0 -59 20.5t-23 54.5q0 13 3 31l103 574q-86 26 -133 26q-52 0 -88 -28.5t-45 -77.5l-19 -107h157l-4 -22h-157
l-80 -459h-24z" />
    <glyph glyph-name="f_f_i" unicode="ffi" horiz-adv-x="825" 
d="M180 459h-111l4 22h111l22 124q9 50 43.5 80.5t83.5 30.5q43 0 94 -22l-8 -21q-49 21 -85 21q-41 0 -69 -24t-35 -66l-22 -123h267l19 108q11 59 53 93t104 34q66 0 141 -37l-11 -20q-75 35 -130 35q-51 0 -87.5 -29t-45.5 -77l-19 -107h275l-85 -481h-23l80 459h-251
l-80 -459h-24l80 459h-267l-80 -459h-24z" />
    <glyph glyph-name="f_f_l" unicode="ffl" horiz-adv-x="873" 
d="M180 459h-111l4 22h111l22 124q9 50 43.5 80.5t83.5 30.5q43 0 94 -22l-8 -21q-49 21 -85 21q-41 0 -69 -24t-35 -66l-22 -123h267l19 108q11 59 52.5 93t104.5 34q66 0 159 -33l-105 -589q-3 -16 -3 -29q0 -25 17 -40t44 -15q7 0 23 3t19 3l4 -22q-37 -6 -49 -6
q-37 0 -59.5 20.5t-22.5 54.5q0 13 3 31l103 574q-86 26 -133 26q-52 0 -88 -28.5t-45 -77.5l-19 -107h157l-4 -22h-157l-80 -459h-24l80 459h-267l-80 -459h-24z" />
    <glyph glyph-name=".notdef" horiz-adv-x="500" 
d="M504 0h-476v672h476v-672zM76 580v-488l162 244zM266 292l-162 -244h324zM428 624h-324l162 -244zM456 580l-162 -244l162 -244v488z" />
    <glyph glyph-name=".null" horiz-adv-x="0" 
 />
    <glyph glyph-name="nonmarkingreturn" horiz-adv-x="333" 
 />
    <glyph glyph-name="NULL" horiz-adv-x="0" 
 />
    <glyph glyph-name="NULL" horiz-adv-x="0" 
 />
    <glyph glyph-name="CR" unicode="&#xd;" horiz-adv-x="240" 
 />
    <glyph glyph-name="space" unicode=" " horiz-adv-x="240" 
 />
    <glyph glyph-name="exclam" unicode="!" horiz-adv-x="243" 
d="M54 16q0 14 9 23t23 9q24 0 24 -25q0 -13 -9 -22t-23 -9q-24 0 -24 24zM121 194h-21l81 478h26z" />
    <glyph glyph-name="quotedbl" unicode="&#x22;" horiz-adv-x="358" 
d="M149 476h-20l32 196h25zM313 476h-20l32 196h25z" />
    <glyph glyph-name="numbersign" unicode="#" horiz-adv-x="641" 
d="M157 204h-148l4 22h152l80 220h-147l4 22h151l76 207l22 -4l-75 -203h220l76 207l21 -4l-74 -203h147l-4 -22h-152l-80 -220h147l-4 -22h-151l-76 -207l-21 4l74 203h-220l-75 -207l-22 4zM268 446l-80 -220h219l81 220h-220z" />
    <glyph glyph-name="dollar" unicode="$" 
d="M72 88l9 21q101 -51 195 -51q73 0 119 37t46 99q0 44 -30 73.5t-73 47t-86 35.5t-73 51t-30 81q0 70 54.5 111.5t143.5 42.5l29 164h22l-29 -165q75 -7 156 -44l-9 -21q-93 44 -183 44q-69 0 -115 -38q-45 -38 -45 -94q0 -43 30 -71.5t73 -45.5t86 -35.5t73 -52t30 -83.5
q0 -73 -55 -115t-147 -43l-29 -164h-22l29 165q-91 10 -169 51z" />
    <glyph glyph-name="percent" unicode="%" horiz-adv-x="864" 
d="M97 464q0 96 52 157q52 63 131 63q58 0 95 -39t37 -101q0 -96 -52 -158q-53 -62 -132 -62q-59 0 -95 38.5t-36 101.5zM118 465q0 -54 31 -87.5t80 -33.5q69 0 115 57q46 56 46 142q0 54 -30.5 87.5t-79.5 33.5q-70 0 -117 -57q-45 -55 -45 -142zM146 -9l-15 16l621 674
l15 -16zM486 128q0 96 52 157q52 63 131 63q59 0 95.5 -38.5t36.5 -101.5q0 -96 -52 -158q-53 -62 -131 -62q-59 0 -95.5 38.5t-36.5 101.5zM507 129q0 -54 31 -87.5t80 -33.5q69 0 116 56q46 56 46 143q0 54 -31 87.5t-80 33.5q-69 0 -116 -57q-46 -56 -46 -142z" />
    <glyph glyph-name="ampersand" unicode="&#x26;" horiz-adv-x="610" 
d="M40 152q0 68 53.5 130t148.5 104q-63 80 -63 147q0 66 44 108q44 43 112 43q55 0 87.5 -29.5t32.5 -80.5q0 -106 -180 -194l174 -237q59 87 75 178h22q-18 -101 -84 -196l92 -125h-28l-79 107q-50 -56 -110 -87.5t-115 -31.5q-83 0 -132.5 45.5t-49.5 118.5zM64 154
q0 -65 43 -104.5t116 -39.5q51 0 107 30.5t104 84.5l-179 244q-90 -40 -140.5 -97t-50.5 -118zM202 534q0 -63 61 -137q169 81 169 176q0 42 -26 65.5t-71 23.5q-58 0 -95.5 -36t-37.5 -92z" />
    <glyph glyph-name="quotesingle" unicode="'" horiz-adv-x="195" 
d="M149 476h-20l32 196h25z" />
    <glyph glyph-name="parenleft" unicode="(" horiz-adv-x="322" 
d="M96 208q5 146 67 277t174 230l17 -16q-108 -93 -168.5 -220t-66.5 -271q-7 -196 92 -333l-18 -13q-103 142 -97 346z" />
    <glyph glyph-name="parenright" unicode=")" horiz-adv-x="322" 
d="M3 -138l-16 16q108 92 168.5 219.5t65.5 271.5q8 197 -92 332l19 14q102 -144 96 -346q-4 -146 -66.5 -277t-174.5 -230z" />
    <glyph glyph-name="asterisk" unicode="*" horiz-adv-x="481" 
d="M132 357l-12 17l144 105l-144 104l12 17l144 -104l57 170l19 -7l-55 -170h179v-21h-179l55 -170l-19 -7l-57 171z" />
    <glyph glyph-name="plus" unicode="+" 
d="M285 277h-230v22h230v230h22v-230h230v-22h-230v-230h-22v230z" />
    <glyph glyph-name="comma" unicode="," horiz-adv-x="227" 
d="M-10 -160l-10 15q93 60 99 139q-13 -3 -23 3.5t-10 18.5q0 14 9 23t23 9q28 0 28 -36q0 -48 -31.5 -95t-84.5 -77z" />
    <glyph glyph-name="hyphen" unicode="-" horiz-adv-x="320" 
d="M288 235h-257l4 22h257z" />
    <glyph glyph-name="period" unicode="." horiz-adv-x="227" 
d="M46 16q0 14 9 23t23 9q24 0 24 -25q0 -13 -9.5 -22t-22.5 -9q-24 0 -24 24z" />
    <glyph glyph-name="slash" unicode="/" horiz-adv-x="384" 
d="M-19 -132l-20 8l448 832l20 -8z" />
    <glyph glyph-name="zero" unicode="0" 
d="M64 229q0 127 37 231t104.5 164t150.5 60q92 0 141 -63t49 -178q0 -127 -37 -231t-104.5 -164t-150.5 -60q-92 0 -141 63t-49 178zM87 229q0 -105 43 -162t125 -57q114 -2 191.5 125t75.5 308q0 105 -42.5 162t-124.5 57q-115 2 -192.5 -125t-75.5 -308z" />
    <glyph glyph-name="one" unicode="1" 
d="M187 529l-9 21l231 122h23l-118 -672h-24l112 644z" />
    <glyph glyph-name="two" unicode="2" 
d="M432 0h-411l3 18l342 287q123 101 123 204q0 72 -41 112.5t-115 40.5q-78 0 -178 -54l-10 20q104 56 191 56q82 0 129.5 -46.5t47.5 -126.5q0 -54 -33.5 -111.5t-95.5 -108.5l-322 -269h374z" />
    <glyph glyph-name="three" unicode="3" 
d="M34 44l12 21q101 -55 194 -55q84 0 140 50q57 50 57 125q0 69 -49 108.5t-136 39.5h-29l4 22h35q96 0 157 48q63 49 63 123q0 60 -41 98t-107 38q-80 0 -171 -35l-8 21q94 36 181 36q76 0 123 -43.5t47 -113.5q0 -72 -50 -122t-122 -63q59 -11 93 -53.5t34 -103.5
q0 -84 -64 -141q-65 -56 -157 -56q-99 0 -206 56z" />
    <glyph glyph-name="four" unicode="4" 
d="M369 174h-342l3 20l427 478h23l-84 -476h117l-3 -22h-117l-31 -174h-23zM450 633l-390 -437h312z" />
    <glyph glyph-name="five" unicode="5" 
d="M44 52l12 20q92 -62 185 -62t154 57q62 57 62 142q0 74 -51 117t-139 43q-61 0 -128 -12l55 315h347l-4 -22h-324l-47 -268q64 8 105 8q97 0 153.5 -49t56.5 -132q0 -93 -69 -158q-69 -63 -171 -63q-100 0 -197 64z" />
    <glyph glyph-name="six" unicode="6" 
d="M83 217q-1 126 41.5 234.5t116.5 171.5t161 61q79 0 154 -45l-11 -19q-73 42 -144 42q-109 3 -192.5 -105.5t-98.5 -277.5q34 66 92.5 102.5t132.5 36.5q81 0 130 -51q50 -52 50 -134q0 -103 -69 -174q-68 -71 -165 -71q-94 0 -146 60t-52 169zM110 193q0 -81 47 -133
q48 -50 125 -50q88 0 148 64q61 64 61 158q0 75 -43.5 119.5t-115.5 44.5q-92 0 -156 -61q-65 -60 -66 -142z" />
    <glyph glyph-name="seven" unicode="7" 
d="M150 0h-28l396 650h-368l4 22h396l-3 -19z" />
    <glyph glyph-name="eight" unicode="8" 
d="M264 345q-60 13 -95.5 55t-35.5 99q0 79 62 132q64 53 159 53q84 0 134 -41.5t50 -111.5q0 -73 -50.5 -123t-139.5 -65q70 -18 107.5 -60t37.5 -102q0 -82 -68 -138q-67 -55 -169 -55q-93 0 -146.5 43t-53.5 118t54 126t154 70zM80 150q0 -66 47 -103t130 -37
q92 0 151 49q61 49 61 122q0 120 -165 152q-105 -14 -164.5 -62.5t-59.5 -120.5zM157 499q0 -56 39.5 -93.5t110.5 -50.5q98 11 153 57.5t55 117.5q0 60 -44 96t-118 36q-84 0 -140 -47t-56 -116z" />
    <glyph glyph-name="nine" unicode="9" 
d="M60 33l11 19q72 -42 143 -42q111 0 193 106t99 277q-36 -66 -94 -102.5t-132 -36.5q-80 0 -130 51q-49 50 -49 134q-2 99 68.5 173t164.5 72q94 0 146 -60t52 -169q0 -128 -42.5 -235.5t-115.5 -169.5t-160 -62q-80 0 -154 45zM124 440q0 -75 43.5 -119.5t115.5 -44.5
q91 0 156 60q64 60 66 143q1 82 -47 132q-46 51 -124 51q-87 0 -149 -65q-61 -64 -61 -157z" />
    <glyph glyph-name="colon" unicode=":" horiz-adv-x="243" 
d="M54 16q0 14 9 23t23 9q24 0 24 -25q0 -13 -9 -22t-23 -9q-24 0 -24 24zM133 457q0 14 9 23t23 9q24 0 24 -25q0 -13 -9 -22t-23 -9q-24 0 -24 24z" />
    <glyph glyph-name="semicolon" unicode=";" horiz-adv-x="243" 
d="M-2 -160l-10 15q93 60 99 139q-13 -3 -23 3.5t-10 18.5q0 14 9 23t23 9q28 0 28 -36q0 -48 -31.5 -95t-84.5 -77zM133 457q0 14 9 23t23 9q24 0 24 -25q0 -13 -9 -22t-23 -9q-24 0 -24 24z" />
    <glyph glyph-name="less" unicode="&#x3c;" 
d="M530 61l-475 216v22l475 216l9 -21l-453 -206l453 -206z" />
    <glyph glyph-name="equal" unicode="=" 
d="M537 179h-482v23h482v-23zM537 374h-482v23h482v-23z" />
    <glyph glyph-name="greater" unicode="&#x3e;" 
d="M62 61l-9 21l453 206l-453 206l9 21l475 -216v-22z" />
    <glyph glyph-name="question" unicode="?" horiz-adv-x="449" 
d="M117 610l-11 20q84 54 176 54q72 0 116 -43t44 -114q0 -42 -22 -80t-54.5 -67t-66 -55.5t-60 -58t-31.5 -62.5l-2 -10h-20l2 13q5 33 31 65.5t59 60t65 56t53.5 64t21.5 73.5q0 60 -38.5 98t-99.5 38q-80 0 -163 -52zM147 14q0 13 8.5 21.5t21.5 8.5q22 0 22 -23
q0 -12 -8.5 -20.5t-20.5 -8.5q-23 0 -23 22z" />
    <glyph glyph-name="at" unicode="@" horiz-adv-x="945" 
d="M56 153q0 228 139.5 380t347.5 152q163 0 257 -91q95 -90 95 -242q1 -137 -61 -234.5t-148 -95.5q-43 0 -67.5 24.5t-25.5 62.5q-57 -87 -157 -87q-67 0 -108.5 45t-41.5 118q0 116 60.5 194.5t151.5 78.5q50 0 87 -27.5t48 -74.5l19 92h20l-55 -316q-2 -16 -2 -20
q0 -32 20 -50t53 -18q76 -2 131 89.5t54 217.5q0 143 -89 227q-88 85 -242 85q-199 0 -331 -145t-132 -364q0 -154 94 -245t254 -91q138 0 254 65l8 -19q-125 -68 -263 -68q-169 0 -270 98q-100 97 -100 259zM310 186q0 -64 35.5 -103t93.5 -39q62 0 107.5 39.5t56.5 103.5
l16 88q3 35 3 37q0 55 -34.5 90t-87.5 35q-82 0 -136 -72t-54 -179z" />
    <glyph glyph-name="A" unicode="A" horiz-adv-x="650" 
d="M23 0h-28l394 672h24l155 -672h-24l-49 212h-348zM397 640l-238 -406h331z" />
    <glyph glyph-name="B" unicode="B" horiz-adv-x="633" 
d="M343 0h-268l118 672h230q75 0 118.5 -40.5t43.5 -108.5q0 -67 -35.5 -114.5t-98.5 -64.5q47 -12 74 -52t27 -95q0 -86 -59 -142q-58 -55 -150 -55zM158 333l-55 -311h239q82 0 134 49t52 126q0 63 -37 99.5t-106 36.5h-227zM213 650l-51 -295h224q79 0 126 46
q49 46 49 121q0 60 -37 94t-103 34h-208z" />
    <glyph glyph-name="C" unicode="C" horiz-adv-x="633" 
d="M74 256q0 186 99 307t260 121q114 0 207 -68l-13 -19q-92 65 -193 65q-148 1 -242.5 -115t-92.5 -290q0 -111 67 -179q68 -68 174 -68q108 0 197 57l11 -18q-94 -61 -209 -61q-117 0 -191 74q-74 76 -74 194z" />
    <glyph glyph-name="D" unicode="D" horiz-adv-x="690" 
d="M272 0h-197l118 672h167q139 0 214.5 -70.5t75.5 -198.5q0 -179 -105.5 -291t-272.5 -112zM214 650l-110 -628h168q154 -3 254.5 105t98.5 276q0 118 -69.5 182.5t-197.5 64.5h-144z" />
    <glyph glyph-name="E" unicode="E" horiz-adv-x="585" 
d="M480 0h-405l118 672h389l-4 -22h-364l-52 -295h333l-4 -22h-333l-54 -311h380z" />
    <glyph glyph-name="F" unicode="F" horiz-adv-x="569" 
d="M100 0h-25l118 672h389l-4 -22h-364l-56 -319h333l-5 -22h-332z" />
    <glyph glyph-name="G" unicode="G" horiz-adv-x="674" 
d="M74 257q-2 183 101.5 306.5t262.5 120.5q108 0 215 -62l-12 -20q-103 60 -202 60q-153 0 -247 -114t-94 -290q0 -112 71 -180t187 -68q94 0 181 38l45 254h-181l4 22h205l-52 -292q-103 -44 -204 -44q-124 0 -203 74q-77 74 -77 195z" />
    <glyph glyph-name="H" unicode="H" horiz-adv-x="730" 
d="M100 0h-25l118 672h25l-56 -317h446l56 317h24l-118 -672h-24l58 333h-446z" />
    <glyph glyph-name="I" unicode="I" horiz-adv-x="259" 
d="M100 0h-25l118 672h25z" />
    <glyph glyph-name="J" unicode="J" horiz-adv-x="433" 
d="M-3 16l8 21q71 -27 120 -27q59 0 99 35t50 95l94 532h24l-94 -533q-12 -70 -58.5 -110.5t-113.5 -40.5q-57 0 -129 28z" />
    <glyph glyph-name="K" unicode="K" horiz-adv-x="635" 
d="M99 0h-24l118 672h24l-68 -386l461 386h35l-373 -312l268 -360h-29l-257 345l-110 -92z" />
    <glyph glyph-name="L" unicode="L" horiz-adv-x="521" 
d="M447 0h-372l118 672h25l-114 -650h347z" />
    <glyph glyph-name="M" unicode="M" horiz-adv-x="818" 
d="M99 0h-24l118 672h26l198 -375l333 375h26l-118 -672h-23l112 636l-324 -367h-17l-195 369z" />
    <glyph glyph-name="N" unicode="N" horiz-adv-x="730" 
d="M99 0h-24l118 672h24l336 -635l112 635h23l-118 -672h-24l-335 635z" />
    <glyph glyph-name="O" unicode="O" horiz-adv-x="730" 
d="M74 256q-3 181 101 306t255 122q115 0 187 -74q73 -73 73 -194q3 -181 -101 -306t-255 -122q-115 0 -188 73q-72 73 -72 195zM99 257q0 -112 65 -180q64 -67 171 -67q140 -3 236 115t94 290q0 111 -66 179q-65 68 -170 68q-140 3 -236 -115t-94 -290z" />
    <glyph glyph-name="P" unicode="P" horiz-adv-x="601" 
d="M99 0h-24l118 672h210q85 0 135.5 -48t50.5 -129q0 -97 -66 -158q-65 -61 -169 -61h-206zM213 650l-61 -351h202q94 0 152 54q59 56 59 141q0 72 -44 114t-121 42h-187z" />
    <glyph glyph-name="Q" unicode="Q" horiz-adv-x="730" 
d="M74 256q-3 181 101 306t255 122q115 0 187 -74q73 -73 73 -194q0 -135 -56 -239q-55 -103 -151 -153l162 -136l-15 -17l-170 143q-64 -26 -126 -26q-115 0 -188 73q-72 73 -72 195zM99 257q0 -112 65 -180q64 -67 171 -67q140 -3 236 115t94 290q0 111 -66 179
q-65 68 -170 68q-140 3 -236 -115t-94 -290z" />
    <glyph glyph-name="R" unicode="R" horiz-adv-x="633" 
d="M99 0h-24l118 672h220q81 0 128.5 -45.5t47.5 -123.5q0 -91 -61 -149q-63 -60 -156 -61l158 -293h-27l-157 292h-195zM213 650l-58 -335h209q90 0 145 52q56 53 56 135q0 68 -41 108t-113 40h-198z" />
    <glyph glyph-name="S" unicode="S" horiz-adv-x="561" 
d="M28 48l10 21q120 -59 228 -59q86 0 139.5 43.5t53.5 114.5q0 51 -35 86.5t-85.5 56t-100.5 42.5t-85 60.5t-35 94.5q0 76 60 125q62 51 153 51q107 0 222 -54l-10 -21q-114 53 -212 53q-81 0 -136 -44q-53 -44 -53 -110q0 -43 25.5 -74.5t63 -49t82 -37.5t82 -39t63 -55
t25.5 -85q0 -81 -61 -130q-61 -50 -155 -50q-122 0 -239 60z" />
    <glyph glyph-name="T" unicode="T" horiz-adv-x="585" 
d="M352 650h-249l4 22h522l-4 -22h-249l-114 -650h-24z" />
    <glyph glyph-name="U" unicode="U" horiz-adv-x="730" 
d="M108 201q0 19 5 56l72 415h25l-73 -415q-5 -32 -5 -55q0 -86 56 -139t148 -53q100 0 171 63q71 64 89 168l76 431h24l-76 -432q-19 -114 -97 -184q-77 -68 -188 -68q-101 0 -165 59q-62 59 -62 154z" />
    <glyph glyph-name="V" unicode="V" horiz-adv-x="650" 
d="M271 0l-156 672h25l147 -639l374 639h27l-393 -672h-24z" />
    <glyph glyph-name="W" unicode="W" horiz-adv-x="978" 
d="M226 0l-99 672h24l93 -636l307 636h25l96 -636l306 636h26l-325 -672h-25l-96 636l-306 -636h-26z" />
    <glyph glyph-name="X" unicode="X" horiz-adv-x="650" 
d="M44 0h-34l319 346l-191 326h28l181 -309l281 309h33l-303 -330l201 -342h-28l-191 325z" />
    <glyph glyph-name="Y" unicode="Y" horiz-adv-x="571" 
d="M284 304l-190 368h27l178 -345l277 345h30l-298 -371l-53 -301h-24z" />
    <glyph glyph-name="Z" unicode="Z" horiz-adv-x="609" 
d="M505 0h-485l3 17l549 633h-426l4 22h461l-3 -17l-549 -633h450z" />
    <glyph glyph-name="bracketleft" unicode="[" horiz-adv-x="322" 
d="M211 -129h-150l146 834h151l-4 -22h-128l-138 -790h127z" />
    <glyph glyph-name="backslash" unicode="\" horiz-adv-x="384" 
d="M267 -131l-156 834l22 4l156 -834z" />
    <glyph glyph-name="bracketright" unicode="]" horiz-adv-x="322" 
d="M133 -129h-151l4 22h128l138 790h-127l4 22h150z" />
    <glyph glyph-name="asciicircum" unicode="^" 
d="M128 218l-22 9l208 445h23l208 -445l-21 -9l-198 423z" />
    <glyph glyph-name="underscore" unicode="_" horiz-adv-x="480" 
d="M413 -139h-480l4 22h480z" />
    <glyph glyph-name="grave" unicode="`" horiz-adv-x="240" 
d="M214 571l-146 101l13 19l144 -105z" />
    <glyph glyph-name="a" unicode="a" horiz-adv-x="514" 
d="M36 121q0 74 61 117.5t165 43.5q66 0 131 -16l12 69q3 17 3 32q0 46 -33.5 75t-89.5 29q-75 0 -156 -28l-5 21q87 29 163 29q66 0 105 -34t39 -91q0 -18 -3 -34l-47 -270q0 -3 -0.5 -5.5t-1 -4.5t-0.5 -3.5v-2.5q0 -18 13 -28t34 -10q11 0 28 4l3 -22q-23 -4 -34 -4
q-31 0 -49 15.5t-18 42.5q0 3 2 17l6 29q-65 -104 -182 -104q-67 0 -106.5 36.5t-39.5 96.5zM60 122q0 -51 34 -82t91 -31q75 0 127 48q54 49 67 127l11 62q-65 16 -128 16q-93 0 -147.5 -38t-54.5 -102z" />
    <glyph glyph-name="b" unicode="b" horiz-adv-x="547" 
d="M72 0h-20l124 704h24l-56 -312q68 101 179 101q77 0 125 -52t48 -137q2 -132 -70 -225t-175 -91q-60 0 -102 32.5t-54 88.5zM106 158q0 -65 40.5 -106.5t103.5 -41.5q94 -3 159 84t63 209q0 75 -42 121t-110 46q-70 0 -125 -48q-53 -46 -67 -119l-17 -102q-5 -25 -5 -43z
" />
    <glyph glyph-name="c" unicode="c" horiz-adv-x="473" 
d="M51 185q-2 129 74 219.5t188 88.5q79 0 146 -47l-13 -18q-62 43 -133 43q-102 1 -171 -82t-67 -203q0 -78 47 -128q46 -48 121 -48q73 0 141 41l12 -18q-75 -45 -155 -45q-83 0 -137 55q-53 56 -53 142z" />
    <glyph glyph-name="d" unicode="d" horiz-adv-x="547" 
d="M51 177q-2 132 69.5 225t174.5 91q60 0 102.5 -32.5t55.5 -88.5l58 332h24l-124 -704h-20l13 90q-71 -102 -181 -102q-77 0 -125 52q-47 53 -47 137zM75 178q0 -75 42 -121.5t110 -46.5q69 0 124 47q54 47 68 121l17 101q5 28 5 43q0 66 -40.5 107t-103.5 41
q-94 2 -159 -83.5t-63 -208.5z" />
    <glyph glyph-name="e" unicode="e" horiz-adv-x="514" 
d="M51 185q-2 128 71.5 219t178.5 89q76 0 123.5 -52t47.5 -137q0 -23 -8 -68h-386q-4 -20 -4 -52q1 -78 48.5 -126t124.5 -48q73 0 151 45l10 -19q-87 -48 -163 -48q-86 0 -140 54q-54 56 -54 143zM82 256h362q4 21 4 49q0 75 -40.5 120.5t-107.5 45.5q-80 0 -141 -60
q-60 -59 -77 -155z" />
    <glyph glyph-name="f" unicode="f" horiz-adv-x="354" 
d="M180 459h-111l4 22h111l22 124q9 50 43.5 80.5t83.5 30.5q43 0 94 -22l-8 -21q-49 21 -85 21q-41 0 -69 -24t-35 -66l-22 -123h157l-4 -22h-157l-80 -459h-24z" />
    <glyph glyph-name="g" unicode="g" horiz-adv-x="547" 
d="M12 -176l9 21q87 -43 162 -43q79 0 131.5 40.5t65.5 112.5l23 134q-69 -101 -180 -101q-77 0 -125 52q-47 53 -47 137q-2 132 69.5 225t174.5 91q59 0 101.5 -32.5t55.5 -88.5l23 109h20l-92 -526q-15 -83 -73 -129t-146 -46q-79 0 -172 44zM75 178q0 -75 42 -121.5
t110 -46.5q70 0 125 47q53 46 67 121l17 101q5 28 5 43q0 66 -40.5 107t-103.5 41q-94 2 -159 -83.5t-63 -208.5z" />
    <glyph glyph-name="h" unicode="h" horiz-adv-x="547" 
d="M76 0h-24l124 704h24l-58 -324q29 52 79.5 82.5t106.5 30.5q66 0 107.5 -39t41.5 -102q0 -20 -5 -53l-53 -299h-24l53 299q5 32 5 51q0 55 -35.5 87.5t-93.5 32.5q-73 0 -128 -52q-55 -51 -69 -131z" />
    <glyph glyph-name="i" unicode="i" horiz-adv-x="212" 
d="M76 0h-24l84 481h24zM148 636q0 12 8.5 20.5t20.5 8.5q22 0 22 -22q0 -13 -8 -21.5t-21 -8.5q-10 0 -16 6.5t-6 16.5z" />
    <glyph glyph-name="j" unicode="j" horiz-adv-x="220" 
d="M-157 -200l8 21q54 -19 85 -19q42 0 69.5 24t34.5 66l104 589h24l-104 -590q-8 -50 -43 -80.5t-84 -30.5q-36 0 -94 20zM156 636q0 12 8.5 20.5t20.5 8.5q22 0 22 -22q0 -13 -8 -21.5t-21 -8.5q-10 0 -16 6.5t-6 16.5z" />
    <glyph glyph-name="k" unicode="k" horiz-adv-x="476" 
d="M75 0h-23l124 704h23l-87 -494l319 271h34l-265 -225l189 -256h-29l-178 241l-75 -63z" />
    <glyph glyph-name="l" unicode="l" horiz-adv-x="260" 
d="M64 63q0 13 3 31l109 610h24l-109 -610q-3 -16 -3 -29q0 -25 17 -40t44 -15q6 0 22.5 3t20.5 3l3 -22q-35 -6 -49 -6q-36 0 -59 20.5t-23 54.5z" />
    <glyph glyph-name="m" unicode="m" horiz-adv-x="858" 
d="M76 0h-24l84 481h20l-15 -98q67 110 179 110q59 0 98.5 -33.5t42.5 -88.5q31 58 80 90t106 32q63 0 102.5 -37t39.5 -97q0 -28 -4 -48l-55 -311h-24l55 311q4 17 4 47q0 50 -33.5 81t-87.5 31q-70 0 -123 -50q-54 -51 -67 -129l-51 -291h-24l55 311q4 17 4 47
q0 51 -34 81.5t-88 30.5q-69 0 -122 -50q-54 -51 -67 -129z" />
    <glyph glyph-name="n" unicode="n" horiz-adv-x="547" 
d="M76 0h-24l84 481h20l-15 -102q29 53 79.5 83.5t107.5 30.5q66 0 107.5 -39t41.5 -102q0 -20 -5 -53l-53 -299h-24l53 299q5 32 5 51q0 55 -35.5 87.5t-93.5 32.5q-73 0 -128 -52q-55 -51 -69 -131z" />
    <glyph glyph-name="o" unicode="o" horiz-adv-x="547" 
d="M51 185q-2 130 73.5 220t184.5 88q83 0 135 -55q52 -53 52 -142q0 -133 -73.5 -220.5t-185.5 -87.5q-83 0 -135 54q-51 55 -51 143zM75 185q0 -78 45 -126.5t118 -48.5q101 0 167.5 81t66.5 204q0 79 -45 127.5t-118 48.5q-101 0 -167.5 -81t-66.5 -205z" />
    <glyph glyph-name="p" unicode="p" horiz-adv-x="547" 
d="M39 -208h-24l121 689h20l-13 -90q71 102 180 102q77 0 125 -52t48 -137q2 -132 -70 -225t-175 -91q-59 0 -101.5 32.5t-55.5 87.5zM106 158q0 -65 40.5 -106.5t103.5 -41.5q94 -3 159 84t63 209q0 75 -42 121t-110 46q-70 0 -125 -48q-53 -46 -67 -119l-17 -102
q-5 -25 -5 -43z" />
    <glyph glyph-name="q" unicode="q" horiz-adv-x="547" 
d="M51 177q-2 132 69.5 225t174.5 91q59 0 101.5 -32.5t55.5 -88.5l23 109h20l-121 -689h-24l53 297q-69 -101 -180 -101q-77 0 -125 52q-47 53 -47 137zM75 178q0 -75 42 -121.5t110 -46.5q70 0 125 47q53 46 67 121l17 101q5 28 5 43q0 66 -40.5 107t-103.5 41
q-94 2 -159 -83.5t-63 -208.5z" />
    <glyph glyph-name="r" unicode="r" horiz-adv-x="363" 
d="M76 0h-24l84 481h20l-14 -94q27 49 70.5 75.5t95.5 26.5q36 0 72 -14l-9 -21q-27 13 -65 13q-68 0 -117.5 -49t-63.5 -131z" />
    <glyph glyph-name="s" unicode="s" horiz-adv-x="426" 
d="M17 32l10 20q85 -42 163 -42q61 0 97.5 31t36.5 81q0 36 -25 61t-60.5 39.5t-71 30t-60.5 43t-25 67.5q0 56 43 93t110 37q80 0 158 -39l-10 -19q-77 36 -147 36q-58 0 -94 -30t-36 -78q0 -35 25 -59t60.5 -38.5t71 -30t60.5 -44t25 -69.5q0 -59 -43.5 -96.5
t-113.5 -37.5q-83 0 -174 44z" />
    <glyph glyph-name="t" unicode="t" horiz-adv-x="386" 
d="M180 459h-111l4 22h111l26 144h24l-26 -144h173l-4 -22h-173l-59 -336q-4 -20 -4 -35q0 -35 24 -56.5t63 -21.5q25 0 71 8l3 -22q-40 -8 -77 -8q-48 0 -78 27t-30 72q0 15 4 36z" />
    <glyph glyph-name="u" unicode="u" horiz-adv-x="547" 
d="M70 129q0 15 5 52l53 300h24l-53 -299q-5 -33 -5 -51q0 -55 35.5 -88t93.5 -33q71 0 127 51q57 54 70 132l51 288h24l-84 -481h-20l15 101q-30 -52 -80.5 -82.5t-106.5 -30.5q-66 0 -107.5 39t-41.5 102z" />
    <glyph glyph-name="v" unicode="v" horiz-adv-x="491" 
d="M192 0l-112 481h23l105 -448l261 448h26l-280 -481h-23z" />
    <glyph glyph-name="w" unicode="w" horiz-adv-x="747" 
d="M161 0l-73 481h23l68 -446l223 446h25l67 -446l223 446h26l-241 -481h-25l-68 445l-223 -445h-25z" />
    <glyph glyph-name="x" unicode="x" horiz-adv-x="491" 
d="M34 0h-31l229 249l-137 232h28l126 -217l200 217h31l-219 -237l143 -244h-28l-132 229z" />
    <glyph glyph-name="y" unicode="y" horiz-adv-x="491" 
d="M-38 -212l6 22q29 -8 48 -8q34 0 62.5 24.5t60.5 81.5l55 96l-114 477h23l108 -448l258 448h26l-336 -583q-36 -64 -68.5 -91t-74.5 -27q-20 0 -54 8z" />
    <glyph glyph-name="z" unicode="z" horiz-adv-x="458" 
d="M362 0h-350l3 16l385 443h-299l4 22h333l-3 -17l-384 -442h315z" />
    <glyph glyph-name="braceleft" unicode="{" horiz-adv-x="322" 
d="M69 277h-17l4 22h14q45 0 76 24t38 66q4 27 3 102q0 75 6 104q10 51 47.5 80.5t91.5 29.5h26l-4 -22h-22q-43 0 -75 -24.5t-41 -66.5q-8 -30 -6 -101q1 -66 -2 -103q-12 -76 -92 -102q56 -23 56 -94q0 -40 -28 -112q-27 -74 -27 -108q0 -36 23 -57.5t64 -21.5h10l-4 -22
h-8q-50 0 -79.5 28t-29.5 71q0 39 28 111t28 110t-22.5 62t-57.5 24z" />
    <glyph glyph-name="bar" unicode="|" horiz-adv-x="240" 
d="M131 -224h-22v960h22v-960z" />
    <glyph glyph-name="braceright" unicode="}" horiz-adv-x="322" 
d="M7 -129h-26l4 22h22q43 0 75 24.5t41 66.5q7 26 5 100q-2 71 3 104q12 78 92 102q-56 23 -56 94q0 38 27 111q28 72 28 109q0 36 -23 57.5t-64 21.5h-10l4 22h8q50 0 79.5 -28t29.5 -71q1 -38 -27.5 -112t-28.5 -109q0 -38 22.5 -62t57.5 -24h17l-4 -22h-14
q-45 0 -76 -24t-38 -66q-5 -31 -4 -102q1 -73 -5 -104q-10 -50 -48 -80t-91 -30z" />
    <glyph glyph-name="asciitilde" unicode="~" 
d="M83 255l-14 18q56 50 130 50q41 0 98.5 -24t95.5 -24q64 0 116 46l14 -18q-56 -50 -130 -50q-35 0 -99 24t-95 24q-64 0 -116 -46z" />
    <glyph glyph-name="nbspace" unicode="&#xa0;" horiz-adv-x="240" 
 />
    <glyph glyph-name="exclamdown" unicode="&#xa1;" horiz-adv-x="243" 
d="M54 -191h-25l86 478h20zM126 457q0 14 9.5 23t22.5 9q24 0 24 -24q0 -14 -9 -23t-23 -9q-24 0 -24 24z" />
    <glyph glyph-name="cent" unicode="&#xa2;" 
d="M111 280q0 129 73.5 218t185.5 90l26 148h22l-26 -149q70 -5 128 -45l-13 -19q-62 43 -133 43q-101 2 -171 -82t-68 -203q0 -76 47 -126q48 -49 122 -49q73 0 141 40l11 -18q-74 -44 -153 -44l-26 -148h-22l26 148q-77 8 -123 61q-47 55 -47 135z" />
    <glyph glyph-name="sterling" unicode="&#xa3;" 
d="M471 0h-435l5 22h110l55 311h-94l4 22h94l32 178q12 70 60.5 110.5t119.5 40.5q63 0 149 -40l-10 -21q-83 39 -138 39q-63 0 -105 -35t-52 -95l-31 -177h205l-4 -22h-205l-56 -311h300z" />
    <glyph glyph-name="currency" unicode="&#xa4;" 
d="M107 124l-15 15l82 83q-41 47 -41 114q0 68 40 114l-81 83l15 15l82 -82q47 41 115 41q67 0 114 -41l83 82l15 -15l-82 -83q40 -43 40 -114q0 -68 -40 -114l82 -83l-15 -15l-83 82q-46 -40 -114 -40t-114 40zM453 336q0 65 -42 107t-107 42t-107 -42t-42 -107t42 -107
q43 -41 107 -41q66 0 107.5 41.5t41.5 106.5z" />
    <glyph glyph-name="yen" unicode="&#xa5;" 
d="M265 180h-181l4 21h181l21 124h-181l4 21h176l-167 326h27l158 -314l253 314h30l-264 -326h174l-4 -21h-181l-22 -124h182l-4 -21h-182l-31 -180h-24z" />
    <glyph glyph-name="brokenbar" unicode="&#xa6;" horiz-adv-x="240" 
d="M131 -176h-22v384h22v-384zM131 304h-22v384h22v-384z" />
    <glyph glyph-name="section" unicode="&#xa7;" horiz-adv-x="506" 
d="M-5 -120l9 21q100 -51 194 -51q74 0 119.5 37.5t45.5 98.5q0 44 -30 73.5t-72.5 47.5t-85.5 36t-73 50.5t-30 80.5q0 53 33 93t90 54q-61 39 -61 109q0 67 52 110q53 44 132 44q98 0 192 -45l-10 -21q-93 44 -182 44q-69 0 -115 -38q-45 -38 -45 -94q0 -43 30 -71.5
t73 -46t86 -35.5t73 -52t30 -83q0 -53 -32.5 -93t-87.5 -56q58 -40 58 -107q0 -69 -53 -113q-53 -45 -136 -45q-104 0 -204 52zM96 275q0 -37 18.5 -60t54.5 -44l44 -21q63 -25 93 -41q55 12 87 47t32 85q0 67 -71 103q-22 14 -42 21q-59 24 -91 40q-56 -9 -90.5 -45
t-34.5 -85z" />
    <glyph glyph-name="dieresis" unicode="&#xa8;" horiz-adv-x="240" 
d="M65 636q0 12 8.5 20.5t20.5 8.5q10 0 16 -6.5t6 -15.5q0 -12 -8.5 -20.5t-20.5 -8.5q-9 0 -15.5 6t-6.5 16zM260 636q0 12 8 20.5t20 8.5q10 0 16 -6.5t6 -15.5q0 -12 -8.5 -20.5t-20.5 -8.5q-21 0 -21 22z" />
    <glyph glyph-name="copyright" unicode="&#xa9;" horiz-adv-x="832" 
d="M111 145q-47 85 -47 190q0 107 46.5 190.5t131.5 131.5q85 47 190 47q107 0 191 -47t130 -131q47 -85 47 -191q0 -105 -46.5 -189t-130.5 -131q-85 -47 -191 -47q-105 0 -189.5 46.5t-131.5 130.5zM432 -12q154 0 251 97t97 251t-97 251t-251 97t-251 -97t-97 -251
t97 -251t251 -97zM444 552q67 0 132 -44l-12 -17q-55 40 -119 40q-79 0 -128 -55q-49 -53 -49 -140q0 -86 49 -141t128 -55q61 0 119 41l12 -17q-65 -44 -132 -44q-88 0 -143 60q-54 60 -54 156t54 156q55 60 143 60z" />
    <glyph glyph-name="ordfeminine" unicode="&#xaa;" horiz-adv-x="363" 
d="M339 246h-303l3 19h303zM80 432q0 51 41 80t110 29q36 0 87 -10l7 43q2 16 2 19q0 30 -22 49t-58 19q-50 0 -103 -19l-5 19q56 19 109 19q46 0 73 -23.5t27 -62.5q0 -3 -2 -21l-30 -175q-1 -3 -1 -11q0 -24 29 -24q4 0 18 2l2 -19q-16 -2 -22 -2q-22 0 -35.5 11.5
t-12.5 30.5q0 8 1 11l2 11q-37 -64 -118 -64q-44 0 -71.5 24.5t-27.5 63.5zM102 433q0 -31 22 -50.5t57 -19.5q52 0 85 33t43 91l5 26q-44 9 -82 9q-60 0 -95 -24t-35 -65z" />
    <glyph glyph-name="guillemotleft" unicode="&#xab;" horiz-adv-x="487" 
d="M190 20l-159 220l3 15l235 217l14 -14l-225 -213l149 -213zM386 20l-159 220l3 15l235 217l14 -14l-225 -213l149 -213z" />
    <glyph glyph-name="logicalnot" unicode="&#xac;" 
d="M514 277h-459v22h482v-252h-23v230z" />
    <glyph glyph-name="uni00AD" unicode="&#xad;" horiz-adv-x="320" 
d="M288 235h-257l4 22h257z" />
    <glyph glyph-name="registered" unicode="&#xae;" horiz-adv-x="832" 
d="M111 145q-47 85 -47 190q0 107 46.5 190.5t131.5 131.5q85 47 190 47q107 0 191 -47t130 -131q47 -85 47 -191q0 -105 -46.5 -189t-130.5 -131q-85 -47 -191 -47q-105 0 -189.5 46.5t-131.5 130.5zM432 -12q154 0 251 97t97 251t-97 251t-251 97t-251 -97t-97 -251
t97 -251t251 -97zM331 128h-22v416h145q56 0 92 -33t36 -86q0 -50 -31 -82t-82 -36l127 -179h-26l-124 178h-115v-178zM331 524v-198h122q48 0 77.5 27t29.5 72q0 44 -29.5 71.5t-77.5 27.5h-122z" />
    <glyph glyph-name="overscore" unicode="&#xaf;" horiz-adv-x="240" 
d="M324 629h-275l4 21h275z" />
    <glyph glyph-name="degree" unicode="&#xb0;" horiz-adv-x="321" 
d="M114 559q0 52 35 86.5t87 34.5q40 0 65 -25t25 -66q0 -52 -34.5 -86.5t-86.5 -34.5q-40 0 -65.5 25.5t-25.5 65.5zM134 562q0 -34 20.5 -54t53.5 -20q42 0 70 28.5t28 70.5q0 34 -20 53.5t-53 19.5q-42 0 -70.5 -28t-28.5 -70z" />
    <glyph glyph-name="plusminus" unicode="&#xb1;" 
d="M537 0h-482v22h482v-22zM285 330h-230v22h230v230h22v-230h230v-22h-230v-230h-22v230z" />
    <glyph glyph-name="twosuperior" unicode="&#xb2;" horiz-adv-x="338" 
d="M310 384h-258l3 16l208 176q75 63 75 122q0 43 -24 66t-68 23q-47 0 -109 -31l-9 18q64 34 120 34q52 0 81.5 -29t29.5 -80q0 -68 -80 -136l-188 -159h223z" />
    <glyph glyph-name="threesuperior" unicode="&#xb3;" horiz-adv-x="338" 
d="M62 411l9 19q64 -34 120 -34q50 0 83.5 29.5t33.5 73.5q0 40 -30 64t-81 24h-19l3 20h23q58 0 95 28.5t37 72.5q0 37 -24.5 58.5t-64.5 21.5q-51 0 -104 -22l-7 19q63 23 113 23q47 0 77.5 -27.5t30.5 -70.5t-30 -74.5t-75 -39.5q36 -7 57 -33.5t21 -63.5q0 -54 -40 -88
q-41 -35 -99 -35q-62 0 -129 35z" />
    <glyph glyph-name="acute" unicode="&#xb4;" horiz-adv-x="240" 
d="M149 571l-10 16l164 103l12 -20z" />
    <glyph glyph-name="uni00B5" unicode="&#xb5;" horiz-adv-x="571" 
d="M39 -208h-24l121 689h24l-53 -299q-5 -33 -5 -51q0 -55 35.5 -87.5t93.5 -32.5q73 0 128 51t69 131l51 288h24l-72 -411q-2 -18 -2 -20q0 -18 12 -28.5t33 -10.5q14 0 29 3l3 -22q-17 -4 -35 -4q-29 0 -47 16.5t-18 44.5q0 1 0.5 3.5t1 7t0.5 9.5l6 33q-29 -52 -79 -83
t-106 -31q-52 0 -89 24.5t-50 67.5z" />
    <glyph glyph-name="paragraph" unicode="&#xb6;" horiz-adv-x="555" 
d="M92 454q0 92 70 155t172 63h179l-147 -832h-22l143 810h-112l-64 -366h-33q-85 0 -135.5 46.5t-50.5 123.5z" />
    <glyph glyph-name="middot" unicode="&#xb7;" horiz-adv-x="227" 
d="M85 243q0 14 9.5 23t22.5 9q24 0 24 -25q0 -13 -9 -22t-23 -9q-24 0 -24 24z" />
    <glyph glyph-name="cedilla" unicode="&#xb8;" horiz-adv-x="240" 
d="M-44 -195l9 18q43 -20 76 -20q31 0 52 16.5t21 41.5q0 23 -17.5 37t-44.5 14h-7l30 88h21l-23 -71q30 -3 47 -22t17 -46q0 -34 -27 -56t-69 -22q-41 0 -85 22z" />
    <glyph glyph-name="onesuperior" unicode="&#xb9;" horiz-adv-x="261" 
d="M118 707l-7 17l143 76h19l-73 -416h-20l68 392z" />
    <glyph glyph-name="ordmasculine" unicode="&#xba;" horiz-adv-x="386" 
d="M343 246h-291l3 19h292zM91 475q0 89 48 147q49 58 125 58q57 0 92 -36.5t35 -94.5q0 -89 -49 -147t-124 -58q-57 0 -92 36.5t-35 94.5zM113 477q0 -50 29 -82t76 -32q66 0 108 52q43 52 43 132q0 51 -29 82.5t-77 31.5q-65 0 -108 -52q-42 -53 -42 -132z" />
    <glyph glyph-name="guillemotright" unicode="&#xbb;" horiz-adv-x="487" 
d="M24 20l-14 14l225 214l-149 213l17 11l159 -219l-3 -15zM220 20l-14 14l225 214l-149 213l17 11l159 -219l-3 -15z" />
    <glyph glyph-name="onequarter" unicode="&#xbc;" horiz-adv-x="960" 
d="M156 579l-7 17l143 76h19l-73 -416h-20l68 392zM194 -9l-15 16l621 674l15 -16zM800 105h-210l3 18l261 293h21l-51 -292h70l-3 -19h-71l-18 -105h-21zM850 384l-231 -260h184z" />
    <glyph glyph-name="onehalf" unicode="&#xbd;" horiz-adv-x="960" 
d="M156 579l-7 17l143 76h19l-73 -416h-20l68 392zM194 -9l-15 16l621 674l15 -16zM841 0h-258l3 16l208 176q75 63 75 122q0 42 -24 65.5t-68 23.5q-48 0 -109 -31l-9 18q64 34 120 34q52 0 81.5 -29t29.5 -80q0 -68 -80 -136l-188 -159h223z" />
    <glyph glyph-name="threequarters" unicode="&#xbe;" horiz-adv-x="960" 
d="M62 283l9 19q64 -34 120 -34q50 0 83.5 29t33.5 74q0 40 -30 64t-81 24h-19l3 20h23q58 0 95 28.5t37 72.5q0 37 -24.5 58.5t-64.5 21.5q-51 0 -104 -22l-7 19q63 23 113 23q47 0 77.5 -27.5t30.5 -70.5t-30 -74.5t-75 -39.5q36 -8 57 -34t21 -63q0 -54 -40 -88
q-41 -35 -99 -35q-62 0 -129 35zM194 -9l-15 16l621 674l15 -16zM800 105h-210l3 18l261 293h21l-51 -292h70l-3 -19h-71l-18 -105h-21zM850 384l-231 -260h184z" />
    <glyph glyph-name="questiondown" unicode="&#xbf;" horiz-adv-x="385" 
d="M-1 -47q0 43 22 81t54.5 67t66 55.5t60 57.5t31.5 63l2 10h21l-2 -13q-5 -33 -31 -65.5t-59 -60t-65 -56t-54 -64t-22 -73.5q0 -61 38.5 -98.5t99.5 -37.5q79 0 163 51l11 -19q-84 -54 -176 -54q-71 0 -115.5 43t-44.5 113zM242 459q0 13 8.5 21.5t21.5 8.5q22 0 22 -22
q0 -13 -8.5 -21.5t-20.5 -8.5q-23 0 -23 22z" />
    <glyph glyph-name="multiply" unicode="&#xd7;" 
d="M100 77l-15 15l195 196l-195 196l15 15l196 -195l196 195l15 -15l-196 -196l196 -196l-15 -15l-196 195z" />
    <glyph glyph-name="germandbls" unicode="&#xdf;" horiz-adv-x="587" 
d="M75 0h-23l97 551q14 78 63 121.5t123 43.5q73 0 114 -36t41 -98q0 -37 -22 -71.5t-48.5 -57.5t-48.5 -54t-22 -62q0 -30 17.5 -52.5t42 -37t49 -29.5t42 -41t17.5 -62q0 -53 -45 -91q-45 -36 -113 -36q-74 0 -142 36l10 21q62 -35 132 -35q58 0 96 29.5t38 74.5
q0 32 -17.5 55t-42 37.5t-49 29.5t-42 40t-17.5 60q0 28 14.5 54.5t35.5 47.5t41.5 42t35 47t14.5 54q0 53 -35 83t-97 30q-64 0 -107 -38.5t-55 -105.5z" />
    <glyph glyph-name="divide" unicode="&#xf7;" 
d="M521 277h-451v22h451v-22zM280 80q-10 9 -5.5 21.5t15.5 15.5t21 -5q15 -15 0 -31t-31 -1zM280 464q-10 9 -5.5 21.5t15.5 15.5t21 -5q15 -15 0 -31t-31 -1z" />
    <glyph glyph-name="florin" unicode="&#x192;" 
d="M68 6l8 21q60 -26 107.5 -10.5t57.5 67.5l54 312h-110l4 21h110l30 172q8 44 38.5 69.5t74.5 25.5q36 0 84 -18l-8 -21q-40 17 -75 17t-59.5 -20.5t-30.5 -54.5l-30 -170h142l-4 -21h-142l-54 -313q-8 -44 -38.5 -69.5t-74.5 -25.5q-36 0 -84 18z" />
    <glyph glyph-name="circumflex" unicode="&#x2c6;" horiz-adv-x="240" 
d="M56 573l-11 15l142 117h20l98 -120l-14 -12l-96 110z" />
    <glyph glyph-name="caron" unicode="&#x2c7;" horiz-adv-x="240" 
d="M168 574l-99 119l15 12l95 -109l139 110l12 -15l-142 -117h-20z" />
    <glyph glyph-name="breve" unicode="&#x2d8;" horiz-adv-x="240" 
d="M67 665q0 8 2 24h21q-7 -45 18.5 -73.5t73.5 -28.5q47 0 81.5 28t44.5 74h21q-11 -56 -51 -89.5t-96 -33.5q-52 0 -83.5 27.5t-31.5 71.5z" />
    <glyph glyph-name="dotaccent" unicode="&#x2d9;" horiz-adv-x="240" 
d="M162 636q0 12 8.5 20.5t20.5 8.5q10 0 16.5 -6t6.5 -16q0 -13 -8.5 -21t-21.5 -8q-22 0 -22 22z" />
    <glyph glyph-name="ring" unicode="&#x2da;" horiz-adv-x="240" 
d="M98 626q0 43 30 72.5t73 29.5q34 0 55 -21t21 -55q0 -43 -29.5 -72.5t-72.5 -29.5q-34 0 -55.5 21.5t-21.5 54.5zM118 629q0 -28 15.5 -44t43.5 -16q34 0 57.5 23t23.5 58q0 27 -16 43t-43 16q-34 0 -57.5 -23t-23.5 -57z" />
    <glyph glyph-name="ogonek" unicode="&#x2db;" horiz-adv-x="240" 
d="M-58 -151q0 37 34.5 79t97.5 82l16 -10q-126 -82 -126 -150q0 -21 13.5 -34t35.5 -13t47 9l6 -19q-26 -10 -56 -10q-31 0 -49.5 18.5t-18.5 47.5z" />
    <glyph glyph-name="tilde" unicode="&#x2dc;" horiz-adv-x="240" 
d="M73 609l-19 7q9 24 29 39t42 15q23 0 65 -20t61 -20q39 0 53 40l19 -8q-22 -53 -72 -53q-23 0 -65 20t-61 20q-34 0 -52 -40z" />
    <glyph glyph-name="hungarumlaut" unicode="&#x2dd;" horiz-adv-x="240" 
d="M85 569l-13 15l146 129l15 -17zM249 569l-12 15l146 129l14 -17z" />
    <glyph glyph-name="commaaccent" unicode="&#x326;" horiz-adv-x="240" 
d="M-16 -275l-9 15q79 50 87 117q-12 -3 -20.5 2.5t-8.5 17.5q-1 21 20 26q23 6 32 -14q3 -8 2 -18q0 -38 -28.5 -78.5t-74.5 -67.5z" />
    <glyph glyph-name="uni0400" unicode="&#x400;" horiz-adv-x="585" 
d="M480 0h-405l118 672h389l-4 -22h-364l-52 -295h333l-4 -22h-333l-54 -311h380zM428 762l-146 101l13 19l144 -105z" />
    <glyph glyph-name="afii10023" unicode="&#x401;" horiz-adv-x="585" 
d="M480 0h-405l118 672h389l-4 -22h-364l-52 -295h333l-4 -22h-333l-54 -311h380zM279 827q0 12 8.5 20.5t20.5 8.5q10 0 16 -6.5t6 -15.5q0 -12 -8.5 -20.5t-20.5 -8.5q-9 0 -15.5 6t-6.5 16zM474 827q0 12 8 20.5t20 8.5q10 0 16 -6.5t6 -15.5q0 -12 -8 -20.5t-21 -8.5
q-9 0 -15 6t-6 16z" />
    <glyph glyph-name="afii10051" unicode="&#x402;" horiz-adv-x="825" 
d="M336 650h-233l4 22h522l-4 -22h-265l-53 -307q128 28 233 28q104 0 163 -46.5t59 -126.5q0 -88 -71 -150q-70 -60 -176 -60q-64 0 -140 24l8 21q63 -23 132 -23q93 0 158 53q64 54 64 134q0 71 -52.5 111t-146.5 40q-103 0 -235 -27l-57 -321h-24z" />
    <glyph glyph-name="afii10052" unicode="&#x403;" horiz-adv-x="521" 
d="M100 0h-25l118 672h372l-4 -22h-347zM355 762l-10 16l164 103l12 -20z" />
    <glyph glyph-name="afii10053" unicode="&#x404;" horiz-adv-x="641" 
d="M74 256q0 186 99 307t260 121q114 0 207 -68l-13 -19q-92 65 -193 65q-128 0 -217 -84q-88 -85 -110 -223h395l-4 -22h-395q-5 -45 -5 -77q2 -112 68 -178q68 -68 174 -68q108 0 197 57l11 -18q-94 -61 -209 -61q-117 0 -191 74q-74 76 -74 194z" />
    <glyph glyph-name="afii10054" unicode="&#x405;" horiz-adv-x="561" 
d="M28 48l10 21q120 -59 228 -59q86 0 139.5 43.5t53.5 114.5q0 51 -35 86.5t-85.5 56t-100.5 42.5t-85 60.5t-35 94.5q0 76 60 125q62 51 153 51q107 0 222 -54l-10 -21q-114 53 -212 53q-81 0 -136 -44q-53 -44 -53 -110q0 -43 25.5 -74.5t63 -49t82 -37.5t82 -39t63 -55
t25.5 -85q0 -81 -61 -130q-61 -50 -155 -50q-122 0 -239 60z" />
    <glyph glyph-name="afii10055" unicode="&#x406;" horiz-adv-x="259" 
d="M100 0h-25l118 672h25z" />
    <glyph glyph-name="afii10056" unicode="&#x407;" horiz-adv-x="259" 
d="M100 0h-25l118 672h25zM108 827q0 12 8.5 20.5t20.5 8.5q10 0 16 -6.5t6 -15.5q0 -12 -8.5 -20.5t-20.5 -8.5q-9 0 -15.5 6t-6.5 16zM303 827q0 12 8 20.5t20 8.5q10 0 16 -6.5t6 -15.5q0 -12 -8 -20.5t-21 -8.5q-9 0 -15 6t-6 16z" />
    <glyph glyph-name="afii10057" unicode="&#x408;" horiz-adv-x="433" 
d="M-3 16l8 21q71 -27 120 -27q59 0 99 35t50 95l94 532h24l-94 -533q-12 -70 -58.5 -110.5t-113.5 -40.5q-57 0 -129 28z" />
    <glyph glyph-name="afii10058" unicode="&#x409;" horiz-adv-x="1105" 
d="M-29 -2l7 22q34 -10 64 -10q120 0 149 150l90 512h431l-51 -293h204q83 0 130.5 -45.5t47.5 -123.5q0 -93 -64 -151q-64 -59 -162 -59h-246l114 650h-384l-86 -492q-15 -82 -59 -126t-113 -44q-36 0 -72 10zM657 357l-59 -335h218q91 0 146 52q57 52 57 135
q0 69 -41.5 108.5t-114.5 39.5h-206z" />
    <glyph glyph-name="afii10059" unicode="&#x40a;" horiz-adv-x="1081" 
d="M99 0h-24l118 672h24l-54 -309h447l55 309h23l-54 -309h213q79 0 124.5 -43.5t45.5 -117.5q0 -89 -61 -146q-62 -56 -157 -56h-252l59 341h-447zM630 341l-56 -319h224q85 0 140 50q55 49 55 129q0 66 -39.5 103t-108.5 37h-215z" />
    <glyph glyph-name="afii10060" unicode="&#x40b;" horiz-adv-x="825" 
d="M336 650h-233l4 22h522l-4 -22h-265l-52 -305q136 26 241 26q88 0 141.5 -48.5t53.5 -129.5q0 -13 -6 -48l-26 -145h-24l25 144q6 42 6 47q0 71 -47 114t-126 43q-108 0 -242 -25l-58 -323h-24z" />
    <glyph glyph-name="afii10061" unicode="&#x40c;" horiz-adv-x="635" 
d="M99 0h-24l118 672h24l-55 -317h109l336 317h31l-348 -329l246 -343h-28l-241 333h-109zM388 762l-10 16l164 103l12 -20z" />
    <glyph glyph-name="uni040D" unicode="&#x40d;" horiz-adv-x="730" 
d="M104 0h-29l118 672h24l-112 -636l555 636h28l-118 -672h-23l111 636zM493 762l-146 101l13 19l144 -105z" />
    <glyph glyph-name="afii10062" unicode="&#x40e;" horiz-adv-x="617" 
d="M41 4l8 22q49 -16 82 -16q41 0 74 23.5t69 78.5l14 22l-160 538h24l154 -511l323 511h29l-365 -574q-70 -110 -162 -110q-42 0 -90 16zM290 856q0 8 2 24h21q-7 -46 18 -74t74 -28q46 0 81 28t45 74h21q-11 -56 -51.5 -89.5t-95.5 -33.5q-52 0 -83.5 27.5t-31.5 71.5z
" />
    <glyph glyph-name="afii10145" unicode="&#x40f;" horiz-adv-x="730" 
d="M311 0h-236l118 672h25l-114 -650h446l114 650h24l-118 -672h-235l-31 -176h-24z" />
    <glyph glyph-name="afii10017" unicode="&#x410;" horiz-adv-x="650" 
d="M23 0h-28l394 672h24l155 -672h-24l-49 212h-348zM397 640l-238 -406h331z" />
    <glyph glyph-name="afii10018" unicode="&#x411;" horiz-adv-x="618" 
d="M334 0h-259l118 672h397l-4 -22h-373l-49 -280h216q80 0 127 -44.5t47 -120.5q0 -89 -62 -148q-62 -57 -158 -57zM161 348l-59 -326h231q88 0 142 51q55 51 55 132q0 66 -40.5 104.5t-112.5 38.5h-216z" />
    <glyph glyph-name="afii10019" unicode="&#x412;" horiz-adv-x="633" 
d="M343 0h-268l118 672h230q75 0 118.5 -40.5t43.5 -108.5q0 -67 -35.5 -114.5t-98.5 -64.5q47 -12 74 -52t27 -95q0 -86 -59 -142q-58 -55 -150 -55zM158 333l-55 -311h239q82 0 134 49t52 126q0 63 -37 99.5t-106 36.5h-227zM213 650l-51 -295h224q79 0 126 46
q49 46 49 121q0 60 -37 94t-103 34h-208z" />
    <glyph glyph-name="afii10020" unicode="&#x413;" horiz-adv-x="521" 
d="M100 0h-25l118 672h372l-4 -22h-347z" />
    <glyph glyph-name="afii10021" unicode="&#x414;" horiz-adv-x="746" 
d="M-12 -176h-23l35 198h56q97 132 136 340l58 310h422l-115 -650h96l-35 -198h-24l32 176h-606zM85 22h448l111 628h-374l-54 -289q-40 -207 -131 -339z" />
    <glyph glyph-name="afii10022" unicode="&#x415;" horiz-adv-x="585" 
d="M480 0h-405l118 672h389l-4 -22h-364l-52 -295h333l-4 -22h-333l-54 -311h380z" />
    <glyph glyph-name="afii10024" unicode="&#x416;" horiz-adv-x="948" 
d="M53 0h-34l335 347l-206 325h29l200 -316h106l58 316h23l-56 -316h108l305 316h36l-320 -330l214 -342h-29l-209 332h-109l-57 -332h-24l56 332h-104z" />
    <glyph glyph-name="afii10025" unicode="&#x417;" horiz-adv-x="521" 
d="M-5 44l12 21q114 -55 214 -55q86 0 144 50q57 50 57 125q0 69 -49.5 108.5t-138.5 39.5h-46l4 22h50q100 0 162 48q63 48 63 123q0 60 -41.5 98t-108.5 38q-91 0 -193 -35l-8 21q106 36 203 36q77 0 124.5 -43.5t47.5 -113.5q0 -72 -50 -122q-49 -49 -126 -63
q61 -11 96 -53t35 -104q0 -84 -65 -141q-65 -56 -160 -56q-106 0 -226 56z" />
    <glyph glyph-name="afii10026" unicode="&#x418;" horiz-adv-x="730" 
d="M104 0h-29l118 672h24l-112 -636l555 636h28l-118 -672h-23l111 636z" />
    <glyph glyph-name="afii10027" unicode="&#x419;" horiz-adv-x="730" 
d="M104 0h-29l118 672h24l-112 -636l555 636h28l-118 -672h-23l111 636zM346 856q0 8 2 24h21q-7 -46 18.5 -74t73.5 -28q46 0 81 28t45 74h21q-11 -56 -51 -89.5t-96 -33.5q-52 0 -83.5 27.5t-31.5 71.5z" />
    <glyph glyph-name="afii10028" unicode="&#x41a;" horiz-adv-x="635" 
d="M99 0h-24l118 672h24l-55 -317h109l336 317h31l-348 -329l246 -343h-28l-241 333h-109z" />
    <glyph glyph-name="afii10029" unicode="&#x41b;" horiz-adv-x="778" 
d="M-29 -2l7 22q34 -10 64 -10q120 0 149 150l90 512h447l-118 -672h-24l114 650h-399l-86 -492q-15 -82 -59 -126t-113 -44q-36 0 -72 10z" />
    <glyph glyph-name="afii10030" unicode="&#x41c;" horiz-adv-x="818" 
d="M99 0h-24l118 672h26l198 -375l333 375h26l-118 -672h-23l112 636l-324 -367h-17l-195 369z" />
    <glyph glyph-name="afii10031" unicode="&#x41d;" horiz-adv-x="730" 
d="M100 0h-25l118 672h25l-56 -317h446l56 317h24l-118 -672h-24l58 333h-446z" />
    <glyph glyph-name="afii10032" unicode="&#x41e;" horiz-adv-x="730" 
d="M74 256q-3 181 101 306t255 122q115 0 187 -74q73 -73 73 -194q3 -181 -101 -306t-255 -122q-115 0 -188 73q-72 73 -72 195zM99 257q0 -112 65 -180q64 -67 171 -67q140 -3 236 115t94 290q0 111 -66 179q-65 68 -170 68q-140 3 -236 -115t-94 -290z" />
    <glyph glyph-name="afii10033" unicode="&#x41f;" horiz-adv-x="730" 
d="M100 0h-25l118 672h495l-118 -672h-24l114 650h-446z" />
    <glyph glyph-name="afii10034" unicode="&#x420;" horiz-adv-x="601" 
d="M99 0h-24l118 672h210q85 0 135.5 -48t50.5 -129q0 -97 -66 -158q-65 -61 -169 -61h-206zM213 650l-61 -351h202q94 0 152 54q59 56 59 141q0 72 -44 114t-121 42h-187z" />
    <glyph glyph-name="afii10035" unicode="&#x421;" horiz-adv-x="633" 
d="M74 256q0 186 99 307t260 121q114 0 207 -68l-13 -19q-92 65 -193 65q-148 1 -242.5 -115t-92.5 -290q0 -111 67 -179q68 -68 174 -68q108 0 197 57l11 -18q-94 -61 -209 -61q-117 0 -191 74q-74 76 -74 194z" />
    <glyph glyph-name="afii10036" unicode="&#x422;" horiz-adv-x="585" 
d="M352 650h-249l4 22h522l-4 -22h-249l-114 -650h-24z" />
    <glyph glyph-name="afii10037" unicode="&#x423;" horiz-adv-x="617" 
d="M41 4l8 22q49 -16 82 -16q41 0 74 23.5t69 78.5l14 22l-160 538h24l154 -511l323 511h29l-365 -574q-70 -110 -162 -110q-42 0 -90 16z" />
    <glyph glyph-name="afii10038" unicode="&#x424;" horiz-adv-x="739" 
d="M71 308q-3 127 99 215t253 87l17 94h23l-17 -96q123 -4 190.5 -63.5t67.5 -164.5q3 -127 -98.5 -215t-252.5 -87l-20 -110h-23l19 112q-123 4 -190.5 64t-67.5 164zM95 309q0 -95 61.5 -149t176.5 -58l86 485q-139 1 -233 -80t-91 -198zM442 586l-85 -486
q139 -1 233 80.5t91 198.5q0 95 -62 149t-177 58z" />
    <glyph glyph-name="afii10039" unicode="&#x425;" horiz-adv-x="650" 
d="M44 0h-34l319 346l-191 326h28l181 -309l281 309h33l-303 -330l201 -342h-28l-191 325z" />
    <glyph glyph-name="afii10040" unicode="&#x426;" horiz-adv-x="763" 
d="M643 0h-568l118 672h25l-114 -650h446l114 650h24l-114 -650h96l-35 -198h-23z" />
    <glyph glyph-name="afii10041" unicode="&#x427;" horiz-adv-x="674" 
d="M118 475q0 22 5 55l23 142h24l-23 -141q-5 -35 -5 -55q0 -76 50 -122t132 -46q104 0 224 24l60 340h25l-118 -672h-25l54 309q-122 -24 -224 -24q-90 0 -146 53t-56 137z" />
    <glyph glyph-name="afii10042" unicode="&#x428;" horiz-adv-x="1073" 
d="M913 0h-838l118 672h25l-114 -650h382l114 650h24l-114 -650h383l114 650h24z" />
    <glyph glyph-name="afii10043" unicode="&#x429;" horiz-adv-x="1105" 
d="M978 0h-903l118 672h25l-114 -650h382l114 650h24l-114 -650h383l114 650h24l-114 -650h89l-35 -198h-24z" />
    <glyph glyph-name="afii10044" unicode="&#x42a;" horiz-adv-x="745" 
d="M317 650h-214l4 22h238l-51 -293h212q82 0 129.5 -45.5t47.5 -123.5q0 -92 -63 -151q-64 -59 -163 -59h-254zM290 357l-59 -335h226q91 0 146 52q56 53 56 135q0 69 -41.5 108.5t-114.5 39.5h-213z" />
    <glyph glyph-name="afii10045" unicode="&#x42b;" horiz-adv-x="877" 
d="M329 0h-254l118 672h24l-51 -293h212q82 0 129.5 -45.5t47.5 -123.5q0 -92 -63 -151q-64 -59 -163 -59zM162 357l-59 -335h226q91 0 146 52q56 53 56 135q0 69 -41.5 108.5t-114.5 39.5h-213zM717 0h-25l118 672h25z" />
    <glyph glyph-name="afii10046" unicode="&#x42c;" horiz-adv-x="625" 
d="M329 0h-254l118 672h24l-51 -293h212q82 0 129.5 -45.5t47.5 -123.5q0 -92 -63 -151q-64 -59 -163 -59zM162 357l-59 -335h226q91 0 146 52q56 53 56 135q0 69 -41.5 108.5t-114.5 39.5h-213z" />
    <glyph glyph-name="afii10047" unicode="&#x42d;" horiz-adv-x="641" 
d="M34 56l14 19q92 -65 193 -65q129 0 215.5 84.5t111.5 223.5h-396l5 22h394q5 52 5 77q0 109 -68 177t-174 68q-108 0 -196 -57l-11 18q94 61 209 61q117 0 190 -75q74 -74 74 -193q2 -184 -99 -307t-260 -121q-109 0 -207 68z" />
    <glyph glyph-name="afii10048" unicode="&#x42e;" horiz-adv-x="981" 
d="M100 0h-25l118 672h25l-56 -317h180q26 145 120 237q95 92 223 92q113 0 184 -74q72 -73 72 -194q2 -182 -100.5 -306.5t-251.5 -121.5q-113 0 -183 72t-72 192q0 49 4 81h-180zM358 257q0 -113 64 -180t168 -67q139 -3 233.5 115t92.5 290q0 112 -64 179q-65 68 -168 68
q-139 3 -233.5 -115t-92.5 -290z" />
    <glyph glyph-name="afii10049" unicode="&#x42f;" horiz-adv-x="633" 
d="M63 0h-30l255 295q-70 6 -110.5 50.5t-40.5 116.5q0 93 64 151q65 59 162 59h229l-118 -672h-24l51 292h-185zM162 463q0 -69 41.5 -108.5t113.5 -39.5h189l59 335h-201q-90 0 -146 -53t-56 -134z" />
    <glyph glyph-name="afii10065" unicode="&#x430;" horiz-adv-x="514" 
d="M36 121q0 74 61 117.5t165 43.5q66 0 131 -16l12 69q3 17 3 32q0 46 -33.5 75t-89.5 29q-75 0 -156 -28l-5 21q87 29 163 29q66 0 105 -34t39 -91q0 -18 -3 -34l-47 -270q0 -3 -0.5 -5.5t-1 -4.5t-0.5 -3.5v-2.5q0 -18 13 -28t34 -10q11 0 28 4l3 -22q-23 -4 -34 -4
q-31 0 -49 15.5t-18 42.5q0 3 2 17l6 29q-65 -104 -182 -104q-67 0 -106.5 36.5t-39.5 96.5zM60 122q0 -51 34 -82t91 -31q75 0 127 48q54 49 67 127l11 62q-65 16 -128 16q-93 0 -147.5 -38t-54.5 -102z" />
    <glyph glyph-name="afii10066" unicode="&#x431;" horiz-adv-x="547" 
d="M61 218q0 159 79 281.5t216 162.5l159 47l6 -22l-160 -47q-94 -27 -161 -101.5t-94 -176.5q73 131 214 131q78 0 127 -52t49 -137q2 -135 -71 -226.5t-181 -89.5q-80 0 -132 63q-51 63 -51 167zM84 201q0 -79 46 -135q47 -56 114 -56q100 0 164.5 82.5t64.5 210.5
q0 75 -43.5 121.5t-112.5 46.5q-102 0 -168 -77q-65 -77 -65 -193z" />
    <glyph glyph-name="afii10067" unicode="&#x432;" horiz-adv-x="474" 
d="M245 0h-193l84 481h173q52 0 82.5 -29.5t30.5 -79.5q0 -44 -25.5 -78.5t-67.5 -47.5q33 -13 52 -41t19 -64q0 -60 -44 -101q-43 -40 -111 -40zM117 236l-38 -215h165q58 0 95 34t37 86q0 44 -27.5 69.5t-73.5 25.5h-158zM155 460l-35 -204h156q54 0 88 32.5t34 82.5
q0 42 -24 65.5t-67 23.5h-152z" />
    <glyph glyph-name="afii10068" unicode="&#x433;" horiz-adv-x="417" 
d="M76 0h-24l84 481h284l-4 -22h-260z" />
    <glyph glyph-name="afii10069" unicode="&#x434;" horiz-adv-x="555" 
d="M-9 -160h-23l32 182h40q63 94 89 236l39 223h318l-81 -459h64l-32 -182h-23l29 160h-423zM67 22h315l77 437h-272l-36 -202q-26 -144 -84 -235z" />
    <glyph glyph-name="afii10070" unicode="&#x435;" horiz-adv-x="514" 
d="M51 185q-2 128 71.5 219t178.5 89q76 0 123.5 -52t47.5 -137q0 -23 -8 -68h-386q-4 -20 -4 -52q1 -78 48.5 -126t124.5 -48q73 0 151 45l10 -19q-87 -48 -163 -48q-86 0 -140 54q-54 56 -54 143zM82 256h362q4 21 4 49q0 75 -40.5 120.5t-107.5 45.5q-80 0 -141 -60
q-60 -59 -77 -155z" />
    <glyph glyph-name="afii10072" unicode="&#x436;" horiz-adv-x="708" 
d="M42 0h-32l238 249l-145 232h27l140 -224h75l40 224h23l-40 -224h74l217 224h30l-227 -236l151 -245h-26l-147 235h-76l-40 -235h-24l41 235h-73z" />
    <glyph glyph-name="afii10073" unicode="&#x437;" horiz-adv-x="410" 
d="M-7 32l10 21q83 -43 160 -43q66 0 106.5 33.5t40.5 89.5q0 44 -37.5 73.5t-94.5 29.5h-36l4 21h41q66 0 110.5 33t44.5 84q0 45 -29.5 71t-79.5 26q-67 0 -145 -31l-7 20q82 33 154 33q61 0 96 -31.5t35 -85.5q0 -48 -36 -85q-36 -39 -87 -46q42 -12 66.5 -42.5
t24.5 -69.5q0 -65 -47.5 -105t-123.5 -40q-77 0 -170 44z" />
    <glyph glyph-name="afii10074" unicode="&#x438;" horiz-adv-x="547" 
d="M76 0h-24l84 481h23l-78 -444l390 444h24l-84 -481h-23l78 443z" />
    <glyph glyph-name="afii10075" unicode="&#x439;" horiz-adv-x="547" 
d="M76 0h-24l84 481h23l-78 -444l390 444h24l-84 -481h-23l78 443zM220 665q0 8 2 24h21q-7 -45 18.5 -73.5t73.5 -28.5q46 0 81 28t45 74h21q-11 -56 -51 -89.5t-96 -33.5q-52 0 -83.5 27.5t-31.5 71.5z" />
    <glyph glyph-name="afii10076" unicode="&#x43a;" horiz-adv-x="476" 
d="M75 0h-23l84 481h23l-39 -224h75l237 224h33l-251 -237l174 -244h-28l-167 235h-77z" />
    <glyph glyph-name="afii10077" unicode="&#x43b;" horiz-adv-x="571" 
d="M-21 -4l7 22q30 -8 44 -8q86 0 105 105l65 366h319l-84 -481h-24l81 459h-273l-61 -345q-23 -126 -127 -126q-18 0 -52 8z" />
    <glyph glyph-name="afii10078" unicode="&#x43c;" horiz-adv-x="611" 
d="M75 0h-23l84 481h25l139 -262l233 262h26l-84 -481h-22l77 444l-223 -251h-19l-135 254z" />
    <glyph glyph-name="afii10079" unicode="&#x43d;" horiz-adv-x="547" 
d="M76 0h-24l84 481h24l-40 -224h312l39 224h24l-84 -481h-24l41 235h-312z" />
    <glyph glyph-name="afii10080" unicode="&#x43e;" horiz-adv-x="547" 
d="M51 185q-2 130 73.5 220t184.5 88q83 0 135 -55q52 -53 52 -142q0 -133 -73.5 -220.5t-185.5 -87.5q-83 0 -135 54q-51 55 -51 143zM75 185q0 -78 45 -126.5t118 -48.5q101 0 167.5 81t66.5 204q0 79 -45 127.5t-118 48.5q-101 0 -167.5 -81t-66.5 -205z" />
    <glyph glyph-name="afii10081" unicode="&#x43f;" horiz-adv-x="547" 
d="M76 0h-24l84 481h359l-84 -481h-24l80 459h-311z" />
    <glyph glyph-name="afii10082" unicode="&#x440;" horiz-adv-x="547" 
d="M39 -208h-24l121 689h20l-13 -90q71 102 180 102q77 0 125 -52t48 -137q2 -132 -70 -225t-175 -91q-59 0 -101.5 32.5t-55.5 87.5zM106 158q0 -65 40.5 -106.5t103.5 -41.5q94 -3 159 84t63 209q0 75 -42 121t-110 46q-70 0 -125 -48q-53 -46 -67 -119l-17 -102
q-5 -25 -5 -43z" />
    <glyph glyph-name="afii10083" unicode="&#x441;" horiz-adv-x="473" 
d="M51 185q-2 129 74 219.5t188 88.5q79 0 146 -47l-13 -18q-62 43 -133 43q-102 1 -171 -82t-67 -203q0 -78 47 -128q46 -48 121 -48q73 0 141 41l12 -18q-75 -45 -155 -45q-83 0 -137 55q-53 56 -53 142z" />
    <glyph glyph-name="afii10084" unicode="&#x442;" horiz-adv-x="441" 
d="M247 459h-178l4 22h379l-4 -22h-177l-80 -459h-24z" />
    <glyph glyph-name="afii10085" unicode="&#x443;" horiz-adv-x="491" 
d="M-38 -212l6 22q29 -8 48 -8q34 0 62.5 24.5t60.5 81.5l55 96l-114 477h23l108 -448l258 448h26l-336 -583q-36 -64 -68.5 -91t-74.5 -27q-20 0 -54 8z" />
    <glyph glyph-name="afii10086" unicode="&#x444;" horiz-adv-x="652" 
d="M51 201q0 128 84 209q85 82 220 82l37 212h23l-38 -213q99 -4 162 -64q62 -59 62 -147q2 -125 -88.5 -209.5t-223.5 -82.5l-35 -196h-22l35 197q-99 6 -157.5 64t-58.5 148zM74 202q0 -80 53.5 -132t143.5 -59l80 460q-122 0 -199.5 -76t-77.5 -193zM373 469l-80 -459
q125 2 204 76q81 76 81 193q0 79 -57 132q-55 52 -148 58z" />
    <glyph glyph-name="afii10087" unicode="&#x445;" horiz-adv-x="491" 
d="M34 0h-31l229 249l-137 232h28l126 -217l200 217h31l-219 -237l143 -244h-28l-132 229z" />
    <glyph glyph-name="afii10088" unicode="&#x446;" horiz-adv-x="564" 
d="M452 0h-400l84 481h24l-80 -459h311l80 459h24l-80 -459h64l-32 -182h-23z" />
    <glyph glyph-name="afii10089" unicode="&#x447;" horiz-adv-x="507" 
d="M82 339q0 17 4 40l18 102h24l-18 -102q-4 -23 -4 -38q0 -52 35 -84.5t91 -32.5q80 0 158 15l41 242h24l-84 -481h-24l39 218q-77 -16 -157 -16q-65 0 -106 38t-41 99z" />
    <glyph glyph-name="afii10090" unicode="&#x448;" horiz-adv-x="818" 
d="M682 0h-630l84 481h24l-80 -459h279l80 459h24l-80 -459h279l80 459h24z" />
    <glyph glyph-name="afii10091" unicode="&#x449;" horiz-adv-x="835" 
d="M723 0h-671l84 481h24l-80 -459h279l80 459h24l-80 -459h279l80 459h24l-80 -459h64l-32 -182h-23z" />
    <glyph glyph-name="afii10092" unicode="&#x44a;" horiz-adv-x="555" 
d="M213 460h-144l4 21h167l-36 -206h157q60 0 95 -32.5t35 -88.5q0 -68 -46 -111t-117 -43h-196zM200 254l-40 -233h168q61 0 100 36.5t39 95.5q0 47 -29 74t-79 27h-159z" />
    <glyph glyph-name="afii10093" unicode="&#x44b;" horiz-adv-x="686" 
d="M248 0h-196l84 481h23l-35 -206h156q60 0 95 -32.5t35 -88.5q0 -68 -46 -111q-44 -43 -116 -43zM120 254l-41 -233h168q61 0 100 36.5t39 95.5q0 47 -29 74t-79 27h-158zM550 0h-24l84 481h24z" />
    <glyph glyph-name="afii10094" unicode="&#x44c;" horiz-adv-x="474" 
d="M248 0h-196l84 481h23l-35 -206h156q60 0 95 -32.5t35 -88.5q0 -68 -46 -111q-44 -43 -116 -43zM120 254l-41 -233h168q61 0 100 36.5t39 95.5q0 47 -29 74t-79 27h-158z" />
    <glyph glyph-name="afii10095" unicode="&#x44d;" horiz-adv-x="482" 
d="M22 38l14 18q61 -46 133 -46q87 0 152 62q64 61 82 164h-274l4 21h272q2 22 2 40q0 77 -48 125q-46 49 -120 49t-142 -41l-11 18q75 45 155 45q84 0 136 -55q54 -56 54 -142q2 -129 -74 -219.5t-188 -88.5q-82 0 -147 50z" />
    <glyph glyph-name="afii10096" unicode="&#x44e;" horiz-adv-x="742" 
d="M76 0h-24l84 481h24l-40 -224h149q20 106 85 170q68 66 159 66q79 0 129 -54q50 -55 50 -141q0 -134 -72 -222q-70 -88 -179 -88q-78 0 -128 53q-48 53 -50 138q0 32 2 56h-149zM286 184q0 -78 43 -126t113 -48q97 0 161.5 81.5t64.5 205.5q0 78 -43.5 126t-112.5 48
q-97 0 -161.5 -81.5t-64.5 -205.5z" />
    <glyph glyph-name="afii10097" unicode="&#x44f;" horiz-adv-x="476" 
d="M35 0h-31l181 207q-48 5 -78 38t-30 83q0 67 46 110t119 43h182l-84 -481h-24l36 205h-141zM102 329q0 -46 29.5 -74.5t77.5 -28.5h147l41 233h-155q-61 0 -100.5 -36.5t-39.5 -93.5z" />
    <glyph glyph-name="uni0450" unicode="&#x450;" horiz-adv-x="514" 
d="M51 185q-2 128 71.5 219t178.5 89q76 0 123.5 -52t47.5 -137q0 -23 -8 -68h-386q-4 -20 -4 -52q1 -78 48.5 -126t124.5 -48q73 0 151 45l10 -19q-87 -48 -163 -48q-86 0 -140 54q-54 56 -54 143zM82 256h362q4 21 4 49q0 75 -40.5 120.5t-107.5 45.5q-80 0 -141 -60
q-60 -59 -77 -155zM363 571l-146 101l13 19l144 -105z" />
    <glyph glyph-name="afii10071" unicode="&#x451;" horiz-adv-x="514" 
d="M51 185q-2 128 71.5 219t178.5 89q76 0 123.5 -52t47.5 -137q0 -23 -8 -68h-386q-4 -20 -4 -52q1 -78 48.5 -126t124.5 -48q73 0 151 45l10 -19q-87 -48 -163 -48q-86 0 -140 54q-54 56 -54 143zM82 256h362q4 21 4 49q0 75 -40.5 120.5t-107.5 45.5q-80 0 -141 -60
q-60 -59 -77 -155zM214 636q0 12 8.5 20.5t20.5 8.5q10 0 16 -6.5t6 -15.5q0 -12 -8.5 -20.5t-20.5 -8.5q-9 0 -15.5 6t-6.5 16zM409 636q0 12 8 20.5t20 8.5q10 0 16 -6.5t6 -15.5q0 -12 -8 -20.5t-21 -8.5q-9 0 -15 6t-6 16z" />
    <glyph glyph-name="afii10099" unicode="&#x452;" horiz-adv-x="547" 
d="M76 0h-24l103 589h-78l4 21h78l17 94h24l-17 -94h190l-4 -21h-190l-37 -209q29 52 79.5 82.5t106.5 30.5q66 0 107.5 -39t41.5 -102q0 -20 -5 -53l-73 -408q-9 -51 -43 -81t-84 -30q-36 0 -93 20l8 21q51 -19 84 -19q41 0 69.5 24.5t35.5 65.5l72 407q5 32 5 51
q0 55 -35.5 87.5t-93.5 32.5q-73 0 -128 -52q-55 -51 -69 -131z" />
    <glyph glyph-name="afii10100" unicode="&#x453;" horiz-adv-x="417" 
d="M76 0h-24l84 481h284l-4 -22h-260zM242 571l-10 16l164 103l12 -20z" />
    <glyph glyph-name="afii10101" unicode="&#x454;" horiz-adv-x="482" 
d="M51 185q-2 129 74 219.5t188 88.5q79 0 146 -47l-13 -18q-62 43 -133 43q-86 0 -151 -60q-63 -60 -81 -154h274l-4 -21h-274q-2 -24 -2 -52q0 -77 47 -126q48 -48 121 -48q75 0 142 40l11 -17q-75 -45 -155 -45q-83 0 -137 55q-53 56 -53 142z" />
    <glyph glyph-name="afii10102" unicode="&#x455;" horiz-adv-x="426" 
d="M17 32l10 20q85 -42 163 -42q61 0 97.5 31t36.5 81q0 36 -25 61t-60.5 39.5t-71 30t-60.5 43t-25 67.5q0 56 43 93t110 37q80 0 158 -39l-10 -19q-77 36 -147 36q-58 0 -94 -30t-36 -78q0 -35 25 -59t60.5 -38.5t71 -30t60.5 -44t25 -69.5q0 -59 -43.5 -96.5
t-113.5 -37.5q-83 0 -174 44z" />
    <glyph glyph-name="afii10103" unicode="&#x456;" horiz-adv-x="212" 
d="M76 0h-24l84 481h24zM148 636q0 12 8.5 20.5t20.5 8.5q22 0 22 -22q0 -13 -8 -21.5t-21 -8.5q-10 0 -16 6.5t-6 16.5z" />
    <glyph glyph-name="afii10104" unicode="&#x457;" horiz-adv-x="212" 
d="M51 636q0 12 8.5 20.5t20.5 8.5q10 0 16 -6.5t6 -15.5q0 -12 -8.5 -20.5t-20.5 -8.5q-9 0 -15.5 6t-6.5 16zM76 0h-24l84 481h24zM246 636q0 12 8 20.5t20 8.5q10 0 16 -6.5t6 -15.5q0 -12 -8 -20.5t-21 -8.5q-9 0 -15 6t-6 16z" />
    <glyph glyph-name="afii10105" unicode="&#x458;" horiz-adv-x="220" 
d="M-157 -200l8 21q54 -19 85 -19q42 0 69.5 24t34.5 66l104 589h24l-104 -590q-8 -50 -43 -80.5t-84 -30.5q-36 0 -94 20zM156 636q0 12 8.5 20.5t20.5 8.5q22 0 22 -22q0 -13 -8 -21.5t-21 -8.5q-10 0 -16 6.5t-6 16.5z" />
    <glyph glyph-name="afii10106" unicode="&#x459;" horiz-adv-x="818" 
d="M-21 -4l7 22q30 -8 44 -8q86 0 105 105l65 366h311l-36 -206h149q60 0 95 -33t35 -88q0 -68 -46 -111t-117 -43h-188l81 459h-265l-61 -345q-23 -126 -127 -126q-18 0 -52 8zM471 254l-40 -233h160q61 0 100 36.5t39 95.5q0 46 -29 73.5t-79 27.5h-151z" />
    <glyph glyph-name="afii10107" unicode="&#x45a;" horiz-adv-x="802" 
d="M75 0h-23l84 481h23l-37 -214h312l37 214h23l-37 -214h152q58 0 93 -32t35 -85q0 -66 -44.5 -108t-114.5 -42h-191l43 245h-312zM453 246l-39 -225h164q61 0 98 35t37 93q0 44 -28.5 70.5t-77.5 26.5h-154z" />
    <glyph glyph-name="afii10108" unicode="&#x45b;" horiz-adv-x="547" 
d="M76 0h-24l103 589h-78l4 21h78l17 94h24l-17 -94h190l-4 -21h-190l-37 -209q29 52 79.5 82.5t106.5 30.5q66 0 107.5 -39t41.5 -102q0 -20 -5 -53l-53 -299h-24l53 299q5 32 5 51q0 55 -35.5 87.5t-93.5 32.5q-73 0 -128 -52q-55 -51 -69 -131z" />
    <glyph glyph-name="afii10109" unicode="&#x45c;" horiz-adv-x="476" 
d="M75 0h-23l84 481h23l-39 -224h75l237 224h33l-251 -237l174 -244h-28l-167 235h-77zM267 571l-10 16l164 103l12 -20z" />
    <glyph glyph-name="uni045D" unicode="&#x45d;" horiz-adv-x="547" 
d="M76 0h-24l84 481h23l-78 -444l390 444h24l-84 -481h-23l78 443zM367 571l-146 101l13 19l144 -105z" />
    <glyph glyph-name="afii10110" unicode="&#x45e;" horiz-adv-x="491" 
d="M-38 -212l6 22q29 -8 48 -8q34 0 62.5 24.5t60.5 81.5l55 96l-114 477h23l108 -448l258 448h26l-336 -583q-36 -64 -68.5 -91t-74.5 -27q-20 0 -54 8zM184 665q0 8 2 24h21q-7 -45 18.5 -73.5t73.5 -28.5q46 0 81 28t45 74h21q-11 -56 -51.5 -89.5t-95.5 -33.5
q-52 0 -83.5 27.5t-31.5 71.5z" />
    <glyph glyph-name="afii10193" unicode="&#x45f;" horiz-adv-x="547" 
d="M220 0h-168l84 481h24l-80 -459h311l80 459h24l-84 -481h-168l-28 -160h-23z" />
    <glyph glyph-name="afii10050" unicode="&#x490;" horiz-adv-x="521" 
d="M100 0h-25l118 672h349l28 160h23l-32 -182h-347z" />
    <glyph glyph-name="afii10098" unicode="&#x491;" horiz-adv-x="417" 
d="M76 0h-24l84 481h268l28 160h24l-33 -182h-267z" />
    <glyph glyph-name="uni0492" unicode="&#x492;" horiz-adv-x="537" 
d="M146 309h-102l3 22h102l60 341h372l-4 -22h-347l-57 -319h213l-3 -22h-213l-54 -309h-25z" />
    <glyph glyph-name="uni0493" unicode="&#x493;" horiz-adv-x="425" 
d="M97 217h-86l4 22h86l43 242h284l-4 -21h-260l-39 -221h150l-4 -22h-150l-37 -217h-24z" />
    <glyph glyph-name="uni049A" unicode="&#x49a;" horiz-adv-x="675" 
d="M99 0h-24l118 672h24l-55 -317h109l336 317h33l-350 -329l231 -321h77l-35 -198h-24l31 176h-62l-241 333h-109z" />
    <glyph glyph-name="uni049B" unicode="&#x49b;" horiz-adv-x="508" 
d="M75 0h-23l84 481h23l-39 -224h75l237 224h33l-251 -236l161 -223h56l-32 -182h-24l28 160h-43l-167 235h-77z" />
    <glyph glyph-name="uni04A2" unicode="&#x4a2;" horiz-adv-x="763" 
d="M100 0h-25l118 672h25l-56 -317h446l56 317h24l-114 -650h96l-35 -198h-23l31 176h-97l58 333h-446z" />
    <glyph glyph-name="uni04A3" unicode="&#x4a3;" horiz-adv-x="563" 
d="M76 0h-24l84 481h24l-40 -224h312l39 224h24l-80 -459h64l-33 -182h-23l29 160h-65l41 235h-312z" />
    <glyph glyph-name="uni04AE" unicode="&#x4ae;" horiz-adv-x="571" 
d="M284 304l-190 368h27l178 -345l277 345h30l-298 -371l-53 -301h-24z" />
    <glyph glyph-name="uni04AF" unicode="&#x4af;" horiz-adv-x="491" 
d="M192 1l-112 480h23l105 -448l261 448h26l-280 -480l-37 -209h-24z" />
    <glyph glyph-name="uni04B0" unicode="&#x4b0;" horiz-adv-x="579" 
d="M279 313l-185 359h27l178 -346l277 346h30l-288 -359h159l-4 -22h-166l-52 -291h-24l51 291h-166l4 22h159z" />
    <glyph glyph-name="uni04B1" unicode="&#x4b1;" horiz-adv-x="491" 
d="M190 -5h-150l4 21h144l-108 465h23l105 -448l261 448h26l-272 -465h145l-4 -21h-150l-36 -203h-24z" />
    <glyph glyph-name="uni04BA" unicode="&#x4ba;" horiz-adv-x="674" 
d="M100 0h-25l118 672h25l-54 -309q124 24 224 24q90 0 146 -53t56 -137q0 -22 -5 -55l-23 -142h-24l23 141q5 33 5 55q0 75 -50.5 121.5t-131.5 46.5q-104 0 -224 -24z" />
    <glyph glyph-name="uni04BB" unicode="&#x4bb;" horiz-adv-x="547" 
d="M76 0h-24l124 704h24l-58 -324q29 52 79.5 82.5t106.5 30.5q66 0 107.5 -39t41.5 -102q0 -20 -5 -53l-53 -299h-24l53 299q5 32 5 51q0 55 -35.5 87.5t-93.5 32.5q-73 0 -128 -52q-55 -51 -69 -131z" />
    <glyph glyph-name="uni04D8" unicode="&#x4d8;" horiz-adv-x="681" 
d="M58 245q0 44 11 94h542q5 40 5 78q1 111 -66 178t-175 67q-101 0 -216 -63l-11 19q119 66 227 66q118 0 192 -74t74 -194q2 -116 -44.5 -216t-127 -157t-174.5 -55q-107 0 -172 69q-65 71 -65 188zM83 244q-1 -106 57 -171q58 -63 156 -63q114 0 200 84q87 87 112 223
h-519q-6 -29 -6 -73z" />
    <glyph glyph-name="afii10846" unicode="&#x4d9;" horiz-adv-x="514" 
d="M43 177q0 36 7 68h386q4 20 4 52q-1 78 -49 126t-124 48q-73 0 -150 -46l-11 19q83 49 163 49q86 0 140 -55q55 -54 55 -142q2 -128 -72.5 -219t-178.5 -89q-77 0 -123.5 52t-46.5 137zM66 176q0 -76 40 -121t108 -45q79 0 140 59t79 155h-363q-4 -17 -4 -48z" />
    <glyph glyph-name="uni04E8" unicode="&#x4e8;" horiz-adv-x="730" 
d="M74 256q-3 181 101 306t255 122q115 0 187 -74q73 -73 73 -194q3 -181 -101 -306t-255 -122q-115 0 -188 73q-72 73 -72 195zM98 254q2 -110 66 -176q66 -66 171 -66q124 0 213 89q90 88 111 232h-556q-5 -48 -5 -79zM107 355h555q3 21 3 63q0 110 -66 177t-170 67
q-121 0 -209 -85q-87 -84 -113 -222z" />
    <glyph glyph-name="uni04E9" unicode="&#x4e9;" horiz-adv-x="547" 
d="M51 185q-2 130 73.5 220t184.5 88q83 0 135 -55q52 -53 52 -142q0 -133 -73.5 -220.5t-185.5 -87.5q-83 0 -135 54q-51 55 -51 143zM74 183q1 -78 46 -125.5t118 -47.5q89 0 150 61q62 61 79 163h-390q-3 -26 -3 -51zM80 255h390q2 18 2 43q0 77 -45 125t-118 48
q-87 0 -149 -60q-62 -59 -80 -156z" />
    <glyph glyph-name="uni2010" unicode="&#x2010;" horiz-adv-x="320" 
d="M288 235h-257l4 22h257z" />
    <glyph glyph-name="uni2011" unicode="&#x2011;" horiz-adv-x="320" 
d="M288 235h-257l4 22h257z" />
    <glyph glyph-name="endash" unicode="&#x2013;" horiz-adv-x="480" 
d="M448 235h-417l4 22h417z" />
    <glyph glyph-name="emdash" unicode="&#x2014;" horiz-adv-x="960" 
d="M928 235h-897l4 22h897z" />
    <glyph glyph-name="afii00208" unicode="&#x2015;" horiz-adv-x="960" 
d="M928 235h-897l4 22h897z" />
    <glyph glyph-name="quoteleft" unicode="&#x2018;" horiz-adv-x="227" 
d="M129 508q0 48 31.5 95.5t84.5 77.5l10 -15q-93 -60 -99 -140q20 7 29.5 -11t-5.5 -33q-16 -16 -33.5 -7t-17.5 33z" />
    <glyph glyph-name="quoteright" unicode="&#x2019;" horiz-adv-x="227" 
d="M101 472l-10 15q93 60 99 139q-13 -3 -23 3.5t-10 18.5q0 14 9 23t23 9q28 0 28 -36q0 -48 -31.5 -95t-84.5 -77z" />
    <glyph glyph-name="quotesinglbase" unicode="&#x201a;" horiz-adv-x="227" 
d="M-10 -160l-10 15q93 60 99 139q-13 -3 -23 3.5t-10 18.5q0 14 9 23t23 9q28 0 28 -36q0 -48 -31.5 -95t-84.5 -77z" />
    <glyph glyph-name="quotedblleft" unicode="&#x201c;" horiz-adv-x="391" 
d="M129 508q0 48 31.5 95.5t84.5 77.5l10 -15q-93 -60 -99 -140q20 7 29.5 -11t-5.5 -33q-16 -16 -33.5 -7t-17.5 33zM293 508q0 48 31.5 95.5t84.5 77.5l10 -15q-93 -60 -99 -140q25 9 31 -14q5 -22 -12 -34q-7 -6 -18 -5q-28 0 -28 35z" />
    <glyph glyph-name="quotedblright" unicode="&#x201d;" horiz-adv-x="391" 
d="M101 472l-10 15q93 60 99 139q-13 -3 -23 3.5t-10 18.5q0 14 9 23t23 9q28 0 28 -36q0 -48 -31.5 -95t-84.5 -77zM265 472l-10 15q93 60 99 139q-13 -3 -23 3.5t-10 18.5q0 14 9 23t23 9q28 0 28 -36q0 -48 -31.5 -95t-84.5 -77z" />
    <glyph glyph-name="quotedblbase" unicode="&#x201e;" horiz-adv-x="391" 
d="M-10 -160l-10 15q93 60 99 139q-13 -3 -23 3.5t-10 18.5q0 14 9 23t23 9q28 0 28 -36q0 -48 -31.5 -95t-84.5 -77zM154 -160l-10 15q93 60 99 139q-13 -3 -23 3.5t-10 18.5q0 14 9.5 23t22.5 9q28 0 28 -36q0 -48 -31.5 -95t-84.5 -77z" />
    <glyph glyph-name="dagger" unicode="&#x2020;" horiz-adv-x="481" 
d="M270 468h-183l4 21h183l32 183h22l-32 -183h182l-4 -21h-182l-82 -468h-22z" />
    <glyph glyph-name="daggerdbl" unicode="&#x2021;" horiz-adv-x="481" 
d="M220 183h-183l4 21h183l46 264h-183l4 21h183l32 183h22l-32 -183h182l-4 -21h-182l-47 -264h183l-4 -21h-183l-31 -183h-22z" />
    <glyph glyph-name="bullet" unicode="&#x2022;" horiz-adv-x="480" 
d="M146 186q-42 42 -42 102t42 102t102 42t102 -42t42 -102t-42 -102t-102 -42t-102 42z" />
    <glyph glyph-name="ellipsis" unicode="&#x2026;" horiz-adv-x="960" 
d="M93 16q0 14 9 23t23 9q24 0 24 -25q0 -13 -9 -22t-23 -9q-24 0 -24 24zM413 16q0 14 9 23t23 9q24 0 24 -25q0 -13 -9 -22t-23 -9q-24 0 -24 24zM733 16q0 14 9 23t23 9q24 0 24 -25q0 -13 -9 -22t-23 -9q-24 0 -24 24z" />
    <glyph glyph-name="perthousand" unicode="&#x2030;" horiz-adv-x="1234" 
d="M97 464q0 96 52 157q52 63 131 63q58 0 95 -39t37 -101q0 -96 -52 -158q-53 -62 -132 -62q-59 0 -95 38.5t-36 101.5zM118 465q0 -54 31 -87.5t80 -33.5q69 0 115 57q46 56 46 142q0 54 -30.5 87.5t-79.5 33.5q-70 0 -117 -57q-45 -55 -45 -142zM146 -9l-15 16l621 674
l15 -16zM486 128q0 96 52 157q52 63 131 63q59 0 95.5 -38.5t36.5 -101.5q0 -96 -52 -158q-53 -62 -131 -62q-59 0 -95.5 38.5t-36.5 101.5zM507 129q0 -54 31 -87.5t80 -33.5q69 0 116 56q46 56 46 143q0 54 -31 87.5t-80 33.5q-69 0 -116 -57q-46 -56 -46 -142zM856 128
q0 96 52 157q52 63 132 63q59 0 95 -38.5t36 -101.5q0 -96 -52 -158q-53 -62 -131 -62q-59 0 -95.5 38.5t-36.5 101.5zM878 129q0 -54 30 -87.5t80 -33.5q70 0 116 57q46 56 46 142q0 54 -31 87.5t-80 33.5q-68 0 -115 -57q-46 -56 -46 -142z" />
    <glyph glyph-name="guilsinglleft" unicode="&#x2039;" horiz-adv-x="291" 
d="M190 20l-159 220l3 15l235 217l14 -14l-225 -213l149 -213z" />
    <glyph glyph-name="guilsinglright" unicode="&#x203a;" horiz-adv-x="291" 
d="M24 20l-14 14l225 214l-149 213l17 11l159 -219l-3 -15z" />
    <glyph glyph-name="fraction" unicode="&#x2044;" horiz-adv-x="192" 
d="M-190 -9l-15 16l621 674l15 -16z" />
    <glyph glyph-name="Euro" unicode="&#x20ac;" 
d="M124 262h-81l4 20h77q0 61 16 124h-72l4 20h73q34 117 114 188q80 70 187 70q87 0 169 -52l-11 -19q-74 49 -158 49q-96 0 -170 -63.5t-107 -172.5h289l-3 -20h-292q-15 -68 -15 -124h285l-3 -20h-282q2 -118 57 -185t147 -67q81 0 148 35l9 -21q-71 -36 -159 -36
q-101 0 -162 73q-63 75 -64 201z" />
    <glyph glyph-name="afii61248" unicode="&#x2105;" horiz-adv-x="825" 
d="M90 476q0 88 49 146t127 58q57 0 100 -31l-12 -18q-41 29 -88 29q-66 0 -110 -53q-43 -52 -43 -130q-2 -50 30 -81.5t77.5 -31.5t93.5 28l9 -18q-48 -30 -104 -30t-92.5 37t-36.5 95zM130 -9l-14 16l621 674l14 -16zM468 123q0 89 49 147t125 58q57 0 91.5 -36.5
t34.5 -94.5q0 -89 -49 -147t-125 -58q-56 0 -91 36t-35 95zM490 125q0 -50 29.5 -82t76.5 -32q65 0 108 52t43 132q0 51 -29.5 82.5t-76.5 31.5q-64 0 -108 -53q-43 -52 -43 -131z" />
    <glyph glyph-name="litre" unicode="&#x2113;" horiz-adv-x="356" 
d="M69 87q0 12 4 36l81 456q12 64 46.5 100.5t84.5 36.5q45 0 71.5 -30.5t26.5 -79.5q0 -92 -71 -184q-69 -89 -190 -152l-26 -147q0 -1 -1.5 -15.5t-1.5 -19.5q0 -35 24 -56.5t62 -21.5q26 0 72 8l3 -22q-43 -8 -77 -8q-48 0 -78 27t-30 72zM177 578l-50 -281
q109 58 171.5 140.5t62.5 167.5q0 41 -20.5 65t-55.5 24q-41 0 -69.5 -30.5t-38.5 -85.5z" />
    <glyph glyph-name="numero" unicode="&#x2116;" horiz-adv-x="1116" 
d="M99 0h-24l118 672h24l336 -635l112 635h23l-118 -672h-24l-335 635zM1073 246h-291l3 19h292zM821 475q0 89 49 147t125 58q56 0 91 -36.5t35 -94.5q0 -88 -50 -147q-49 -58 -124 -58q-57 0 -91.5 36.5t-34.5 94.5zM842 477q0 -50 29.5 -82t76.5 -32q66 0 108 52
q43 52 43 132q0 51 -29 82.5t-77 31.5q-64 0 -108 -53q-43 -52 -43 -131z" />
    <glyph glyph-name="uni2117" unicode="&#x2117;" horiz-adv-x="832" 
d="M111 145q-47 85 -47 190q0 107 46.5 190.5t131.5 131.5q85 47 190 47q107 0 191 -47t130 -131q47 -85 47 -191q0 -105 -46.5 -189t-130.5 -131q-85 -47 -191 -47q-105 0 -189.5 46.5t-131.5 130.5zM432 -12q154 0 251 97t97 251t-97 251t-251 97t-251 -97t-97 -251
t97 -251t251 -97zM339 128h-21v416h144q58 0 95 -34.5t37 -90.5t-37 -90.5t-95 -34.5h-123v-166zM339 524v-210h122q49 0 80 29t31 76t-31 76t-80 29h-122z" />
    <glyph glyph-name="uni2120" unicode="&#x2120;" horiz-adv-x="914" 
d="M87 279l8 19q69 -30 131 -30q53 0 85.5 24t32.5 63q0 36 -26 58.5t-63 33.5t-74.5 22.5t-63.5 37.5t-26 68q0 46 37.5 75.5t97.5 29.5q59 0 128 -27l-8 -19q-99 39 -166 19.5t-68 -78.5q0 -35 26 -57t63.5 -33t75 -23t63.5 -38.5t26 -68.5q0 -47 -39 -77t-101 -30
q-70 0 -139 31zM514 256h-21v416h24l167 -225l166 225h24v-416h-21v384l-162 -218h-15l-162 218v-384z" />
    <glyph glyph-name="trademark" unicode="&#x2122;" horiz-adv-x="930" 
d="M223 652h-156v20h334v-20h-156v-396h-22v396zM530 256h-21v416h23l167 -225l167 225h23v-416h-21v384l-161 -218h-16l-161 218v-384z" />
    <glyph glyph-name="uni2126" unicode="&#x2126;" horiz-adv-x="746" 
d="M260 0h-240l4 22h205q-63 49 -100.5 123.5t-37.5 152.5q0 169 96.5 277.5t243.5 108.5q118 0 194 -71q76 -70 76 -189q0 -130 -69 -235t-195 -167h208l-4 -22h-247l3 19q135 66 207 170t72 233q0 110 -69 174q-67 66 -177 66q-133 3 -224.5 -102t-90.5 -262
q0 -78 39.5 -151.5t108.5 -127.5z" />
    <glyph glyph-name="estimated" unicode="&#x212e;" horiz-adv-x="960" 
d="M880 336q0 -13 -1 -16h-623v-196q94 -108 240 -108q148 0 243 112h66q-55 -67 -136 -105.5t-173 -38.5q-117 0 -212.5 59.5t-141.5 155.5q-46 98 -21.5 206.5t103.5 179.5q77 73 195.5 95.5t225.5 -20.5q105 -41 170 -128.5t65 -195.5zM256 548v-196h480v196
q-97 108 -240 108q-145 0 -240 -108z" />
    <glyph glyph-name="uni215F" unicode="&#x215f;" 
d="M156 579l-7 17l143 76h19l-73 -416h-20l68 392zM194 -9l-15 16l621 674l15 -16z" />
    <glyph glyph-name="arrowleft" unicode="&#x2190;" horiz-adv-x="960" 
d="M346 -18l-306 306l306 306l17 -17l-282 -277h855v-24h-855l282 -277z" />
    <glyph glyph-name="arrowup" unicode="&#x2191;" horiz-adv-x="960" 
d="M199 413l-17 17l306 306l306 -306l-17 -17l-277 281v-854h-24v854z" />
    <glyph glyph-name="arrowright" unicode="&#x2192;" horiz-adv-x="960" 
d="M894 276h-854v24h854l-281 277l17 17l306 -306l-306 -306l-17 17z" />
    <glyph glyph-name="arrowdown" unicode="&#x2193;" horiz-adv-x="960" 
d="M488 -160l-306 306l17 17l277 -281v854h24v-854l277 281l17 -17z" />
    <glyph glyph-name="uni2196" unicode="&#x2196;" horiz-adv-x="960" 
d="M195 172h-24v433h433v-24l-395 2l604 -603l-17 -17l-603 604z" />
    <glyph glyph-name="uni2197" unicode="&#x2197;" horiz-adv-x="960" 
d="M180 -37l-17 17l605 604l-396 -3v24h433v-433h-24l3 396z" />
    <glyph glyph-name="uni2198" unicode="&#x2198;" horiz-adv-x="960" 
d="M768 -8l-605 604l17 17l604 -605l-3 396h24v-433h-433v24z" />
    <glyph glyph-name="uni2199" unicode="&#x2199;" horiz-adv-x="960" 
d="M604 -29h-433v433h24l-3 -396l604 605l17 -17l-605 -604l396 3v-24z" />
    <glyph glyph-name="partialdiff" unicode="&#x2202;" horiz-adv-x="547" 
d="M51 185q0 87 33 158t90 110q58 40 129 40q72 0 120.5 -40t58.5 -107q7 46 7 119q-1 41 -9.5 78t-26.5 73t-52.5 57t-81.5 21q-65 0 -131 -30l-8 20q72 32 139 32q54 0 93.5 -23t60.5 -62t30 -80.5t9 -87.5q0 -239 -82 -360q-77 -115 -195 -115q-83 0 -134 54
q-50 56 -50 143zM74 186q0 -79 45 -127.5t117 -48.5q97 0 163.5 88.5t66.5 211.5q0 71 -45 115.5t-117 44.5q-97 2 -164.5 -81t-65.5 -203z" />
    <glyph glyph-name="uni2206" unicode="&#x2206;" horiz-adv-x="650" 
d="M565 0h-564l2 16l386 656h24l155 -657zM397 640l-364 -618h509z" />
    <glyph glyph-name="product" unicode="&#x220f;" horiz-adv-x="770" 
d="M63 -208h-25l161 912h536l-161 -912h-25l157 890h-486z" />
    <glyph glyph-name="summation" unicode="&#x2211;" horiz-adv-x="625" 
d="M515 -208h-540l3 17l428 449l-258 427l4 19h508l-4 -22h-477l252 -418l-3 -16l-413 -434h504z" />
    <glyph glyph-name="minus" unicode="&#x2212;" 
d="M537 277h-482v22h482v-22z" />
    <glyph glyph-name="uni2215" unicode="&#x2215;" horiz-adv-x="192" 
d="M-190 -9l-15 16l621 674l15 -16z" />
    <glyph glyph-name="radical" unicode="&#x221a;" horiz-adv-x="643" 
d="M13 111l-6 22l197 62l125 -370l261 882l22 -6l-269 -909h-26l-128 375z" />
    <glyph glyph-name="infinity" unicode="&#x221e;" horiz-adv-x="754" 
d="M51 256q0 89 50 150q51 60 126 60q54 0 92.5 -37t68.5 -119q52 82 99 119t100 37q59 0 95.5 -40.5t36.5 -105.5q0 -90 -51 -150q-50 -60 -125 -60q-54 0 -92.5 37t-68.5 119q-52 -82 -99 -119t-100 -37q-58 0 -95 40.5t-37 105.5zM74 257q0 -56 30.5 -90.5t80.5 -34.5
q46 0 90 37.5t97 120.5q-29 82 -62.5 118t-81.5 36q-65 0 -110 -55q-44 -55 -44 -132zM398 286q29 -82 62.5 -118t81.5 -36q66 0 109 54q45 54 45 133q0 56 -30.5 90.5t-80.5 34.5q-46 0 -90 -37.5t-97 -120.5z" />
    <glyph glyph-name="integral" unicode="&#x222b;" horiz-adv-x="386" 
d="M24 -206l8 21q30 -13 59 -13q52 0 84 46t32 123q0 85 -24 276t-24 278t38 139t101 52q32 0 68 -14l-8 -21q-30 13 -59 13q-52 0 -84 -46t-32 -123q0 -87 24 -277q24 -189 24 -277q0 -87 -38 -139t-101 -52q-31 0 -68 14z" />
    <glyph glyph-name="approxequal" unicode="&#x2248;" 
d="M83 158l-14 17q55 51 130 51q35 0 99 -24t95 -24q64 0 116 46l14 -18q-57 -51 -130 -51q-41 0 -98.5 24t-95.5 24q-63 0 -116 -45zM83 352l-14 18q55 51 130 51q35 0 99 -24t95 -24q65 0 116 45l14 -17q-55 -51 -130 -51q-35 0 -99 24t-95 24q-64 0 -116 -46z" />
    <glyph glyph-name="notequal" unicode="&#x2260;" 
d="M229 180h-159v22h170l86 172h-256v22h267l78 155l20 -10l-73 -145h159v-22h-171l-84 -172h255v-22h-267l-77 -155l-20 10z" />
    <glyph glyph-name="lessequal" unicode="&#x2264;" 
d="M521 0h-451v22h451v-22zM514 122l-444 208v22l444 208l10 -21l-423 -198l423 -198z" />
    <glyph glyph-name="greaterequal" unicode="&#x2265;" 
d="M77 122l-9 21l423 198l-423 198l9 21l444 -208v-22zM521 0h-451v22h451v-22z" />
    <glyph glyph-name="uni22C5" unicode="&#x22c5;" horiz-adv-x="227" 
d="M85 243q0 14 9.5 23t22.5 9q24 0 24 -25q0 -13 -9 -22t-23 -9q-24 0 -24 24z" />
    <glyph glyph-name="lozenge" unicode="&#x25ca;" 
d="M294 0l-216 336l216 336h22l216 -336l-216 -336h-22zM305 648l-200 -312l200 -314l200 314z" />
    <glyph glyph-name="uniE000" unicode="&#xe000;" horiz-adv-x="480" 
d="M480 0h-480v480h480v-480z" />
    <glyph glyph-name="afii10066.locl" unicode="&#xe700;" horiz-adv-x="499" 
d="M37 169q0 86 59.5 158.5t168.5 120.5q-78 63 -78 129q0 57 42.5 92t112.5 35h143l-4 -22h-138q-60 0 -96.5 -28.5t-36.5 -75.5q0 -36 24.5 -67.5t59.5 -57t70 -54t59.5 -71t24.5 -95.5q0 -107 -68 -176t-165 -69q-76 0 -127 52t-51 129zM60 170q-1 -67 44 -114
q46 -46 112 -46q87 0 147 62q61 64 62 160q0 108 -143 203q-108 -47 -164.5 -115t-57.5 -150z" />
    <glyph glyph-name="afii10068.locl" unicode="&#xe701;" horiz-adv-x="426" 
d="M31 102q0 51 34.5 84t84 49.5t99 32t84 43.5t34.5 71q0 42 -31 65.5t-88 23.5q-64 0 -132 -27l-7 21q68 28 140 28q66 0 104 -29.5t38 -80.5q0 -50 -34.5 -82t-84 -48.5t-99 -32t-84 -44.5t-34.5 -74q0 -44 32 -68t91 -24q66 0 149 30l7 -20q-81 -32 -157 -32
q-69 0 -107.5 30.5t-38.5 83.5z" />
    <glyph glyph-name="afii10069.locl" unicode="&#xe702;" horiz-adv-x="547" 
d="M12 -176l9 21q87 -43 162 -43q79 0 131.5 40.5t65.5 112.5l23 134q-69 -101 -180 -101q-77 0 -125 52q-47 53 -47 137q-2 132 69.5 225t174.5 91q59 0 101.5 -32.5t55.5 -88.5l23 109h20l-92 -526q-15 -83 -73 -129t-146 -46q-79 0 -172 44zM75 178q0 -75 42 -121.5
t110 -46.5q70 0 125 47q53 46 67 121l17 101q5 28 5 43q0 66 -40.5 107t-103.5 41q-94 2 -159 -83.5t-63 -208.5z" />
    <glyph glyph-name="afii10081.salt" unicode="&#xe703;" horiz-adv-x="547" 
d="M76 0h-24l84 481h20l-15 -102q29 53 79.5 83.5t107.5 30.5q66 0 107.5 -39t41.5 -102q0 -20 -5 -53l-53 -299h-24l53 299q5 32 5 51q0 55 -35.5 87.5t-93.5 32.5q-73 0 -128 -52q-55 -51 -69 -131z" />
    <glyph glyph-name="afii10084.locl" unicode="&#xe704;" horiz-adv-x="858" 
d="M76 0h-24l84 481h20l-15 -98q67 110 179 110q59 0 98.5 -33.5t42.5 -88.5q31 58 80 90t106 32q63 0 102.5 -37t39.5 -97q0 -28 -4 -48l-55 -311h-24l55 311q4 17 4 47q0 50 -33.5 81t-87.5 31q-70 0 -123 -50q-54 -51 -67 -129l-51 -291h-24l55 311q4 17 4 47
q0 51 -34 81.5t-88 30.5q-69 0 -122 -50q-54 -51 -67 -129z" />
    <glyph glyph-name="commaaccent.alt" unicode="&#xea01;" horiz-adv-x="240" 
d="M153 610q0 39 28 78.5t75 66.5l9 -14q-79 -52 -87 -118q12 3 20.5 -2.5t8.5 -16.5q1 -22 -20 -27q-23 -6 -32 15q-3 8 -2 18z" />
    <glyph glyph-name="caron.alt" unicode="&#xea02;" horiz-adv-x="240" 
d="M178 558l-17 8l87 158l20 -10z" />
    <glyph glyph-name="ringacute" unicode="&#xea03;" horiz-adv-x="240" 
d="M98 626q0 63 58 94l170 97l10 -19l-125 -71q30 -3 48 -23.5t18 -51.5q0 -43 -29.5 -72.5t-72.5 -29.5q-34 0 -55.5 21.5t-21.5 54.5zM118 629q0 -28 15.5 -44t43.5 -16q34 0 57.5 23t23.5 58q0 27 -16 43t-43 16q-34 0 -57.5 -23t-23.5 -57z" />
    <glyph glyph-name="registered.alt" unicode="&#xec00;" horiz-adv-x="512" 
d="M135 303q-63 63 -63 161t63 161t161 63t161 -63t63 -161t-63 -161t-161 -63t-161 63zM147 612q-57 -57 -57 -148q0 -90 57 -149q59 -57 149 -57q91 0 148 57q58 58 58 149t-58 148q-57 58 -148 58t-149 -58zM241 344h-18v240h85q33 0 55 -19.5t22 -49.5q0 -28 -17.5 -47
t-46.5 -22l72 -102h-23l-69 100h-60v-100zM241 568v-107h67q25 0 41.5 15t16.5 38q0 24 -16 39t-42 15h-67z" />
    <glyph glyph-name="apple" unicode="&#xf8ff;" horiz-adv-x="591" 
d="M238 0h-138v659h391v-65h-326v-529h73v-65zM491 202h-261v65h196v66h-196v195h261v-65h-196v-65h196v-196z" />
    <glyph glyph-name="CR.001" horiz-adv-x="333" 
 />
    </font>
</defs>
</svg>
